<svg version="1.1" xmlns="http://www.w3.org/2000/svg" viewBox="-20.916615737901036 -38.35592155397757 34.58315853579983 69.80867735110995" fill="none" stroke="black" stroke-width="0.6%" vector-effect="non-scaling-stroke">
    <path d="M -14.98404 -21.82013 A 13 11.63563 0 0 1 -3.25929 -32.89614 A 4.5 4.02772 0 0 1 -3.28526 -33.3282 A 4.5 4.02772 0 0 1 5.71474 -33.3282 A 4.5 4.02772 0 0 1 4.98584 -31.13053 A 13 11.63563 360 0 1 11.00373 -21.31555 A 13 11.63563 360 0 1 9.84032 -16.50428 A 4.5 4.02772 0 0 1 12.52136 -12.82027 A 4.5 4.02772 0 0 1 4.0094 -10.996 A 13 11.63563 360 0 1 -12.56982 -14.54625 A 4.5 4.02772 0 0 1 -19.7249 -17.79819 A 4.5 4.02772 0 0 1 -14.98404 -21.82013 Z" />
    <path d="M -17.40661 -17.74721 A 1.99 1.78115 180 0 0 -13.42661 -17.74721 L -13.42661 -18.63915 A 1.99 1.78115 0 0 1 -17.40661 -18.63915 A 1.99 1.78115 0 0 1 -13.50901 -19.14637 A 1.99 1.78115 0 0 1 -13.42661 -18.63915" />
    <path d="M 6.17654 -12.69715 A 1.99 1.78115 180 0 0 10.15654 -12.69715 L 10.15654 -13.58909 A 1.99 1.78115 360 0 1 6.17654 -13.58909 A 1.99 1.78115 360 0 1 6.72197 -14.81413 A 1.99 1.78115 360 0 1 10.15654 -13.58909" />
    <path d="M 0.79824 -31.77004 A 1.99 1.78115 180 0 0 3.25128 -33.5023 L 3.25128 -34.39424 A 1.99 1.78115 360 0 1 0.79824 -32.66198 A 1.99 1.78115 360 0 1 -0.72872 -34.39424 A 1.99 1.78115 360 0 1 3.25128 -34.39424" />
    <path d="M -0.72872 -33.5023 A 1.99 1.78115 180 0 0 0.79824 -31.77004" />
    <path d="M -19.7249 21.44712 A 4.5 4.02772 180 0 0 -12.56982 24.69906" />
    <path d="M 4.0094 28.24931 A 4.5 4.02772 180 0 0 12.52136 26.42504" />
    <path d="M 4.0094 28.24931 A 13 11.63563 360 0 1 -12.56982 24.69906" />
    <path d="M -12.56982 20.23937 A 4.5 4.02772 0 0 1 -14.03961 20.87291" />
    <path d="M -12.56982 20.23937 L -12.56982 24.69906" />
    <path d="M -12.61104 20.18749 C -12.64 20.08 -12.66 19.98 -12.69093 19.87835 C -12.72 19.78 -12.74 19.67 -12.76965 19.56836 C -12.8 19.46 -12.82 19.36 -12.84722 19.25752 C -12.87 19.15 -12.9 19.05 -12.92363 18.9458 C -12.95 18.84 -12.97 18.74 -12.9989 18.6332 C -13.02 18.53 -13.05 18.42 -13.07304 18.31968 C -13.1 18.22 -13.12 18.11 -13.14604 18.00522 C -13.17 17.9 -13.19 17.8 -13.21793 17.68979 C -13.24 17.61 -13.25 17.53 -13.27323 17.4431 C -13.29 17.36 -13.31 17.28 -13.32787 17.19576 C -13.35 17.11 -13.36 17.03 -13.38186 16.94775 C -13.4 16.86 -13.42 16.78 -13.43521 16.69903 L -13.50384 16.77774 L -13.57272 16.86171 L -13.64194 16.95103 L -13.71157 17.0458 L -13.7817 17.14613 L -13.8524 17.25213 L -13.92375 17.36393 L -13.99583 17.48165 L -14.06873 17.60543 L -14.14253 17.7354 L -14.21731 17.87172 L -14.29315 18.01454 L -14.37016 18.16403 L -14.4484 18.32034 L -14.4484 -8.73513 L -14.37016 -8.72665 L -14.29315 -8.72265 L -14.21731 -8.72313 L -14.14253 -8.7281 L -14.06873 -8.73755 L -13.99583 -8.75151 L -13.92375 -8.76997 L -13.8524 -8.79298 L -13.7817 -8.82055 L -13.71157 -8.85271 L -13.64194 -8.88949 L -13.57272 -8.93096 L -13.50384 -8.97714 L -13.43521 -9.02809 L -13.43521 16.69903" />
    <path d="M -14.4484 18.32034 L -14.70306 18.08287 L -14.9491 17.87725 L -15.18803 17.70222 L -15.42134 17.5567 L -15.65046 17.43981 L -15.87679 17.3508 L -16.10174 17.28915 L -16.32669 17.25446 L -16.55303 17.24653 L -16.78214 17.2653 L -17.01545 17.3109 L -17.25439 17.38359 L -17.50043 17.48384 L -17.75508 17.61226 L -17.82965 17.20465 L -17.90169 16.83466 L -17.97165 16.50001 L -18.03996 16.19863 L -18.10705 15.92867 L -18.17332 15.68846 L -18.23919 15.47652 L -18.30505 15.29155 L -18.37133 15.13242 L -18.43841 14.99813 L -18.50673 14.88785 L -18.57669 14.80093 L -18.64873 14.7368 L -18.72329 14.69509" />
    <path d="M -19.00954 14.61334 A 4.5 4.02772 180 0 0 -14.03961 20.87291" />
    <path d="M -12.61104 20.18749 A 4.5 4.02772 0 0 1 -14.03961 20.87291" />
    <path d="M -17.92611 -9.57653 L -17.91431 -9.56288 L -17.90246 -9.54988 L -17.89055 -9.53751 L -17.87857 -9.52579 L -17.86654 -9.5147 L -17.85444 -9.50424 L -17.84228 -9.49442 L -17.83004 -9.48522 L -17.81774 -9.47666 L -17.80536 -9.46872 L -17.79291 -9.46141 L -17.78038 -9.45472 L -17.76777 -9.44866 L -17.75508 -9.44322 L -17.75508 17.61226" />
    <path d="M -17.75508 -9.44322 L -17.50043 -9.20574 L -17.25439 -9.00013 L -17.01545 -8.8251 L -16.78214 -8.67958 L -16.55303 -8.56268 L -16.32669 -8.47368 L -16.10174 -8.41203 L -15.87679 -8.37734 L -15.65046 -8.36941 L -15.42134 -8.38818 L -15.18803 -8.43378 L -14.9491 -8.50647 L -14.70306 -8.60672 L -14.4484 -8.73513" />
    <path d="M -12.72443 -9.98981 C -12.75 -9.96 -12.77 -9.93 -12.78951 -9.9039 C -12.81 -9.88 -12.83 -9.85 -12.85379 -9.81858 C -12.88 -9.79 -12.9 -9.76 -12.91728 -9.73389 C -12.94 -9.71 -12.96 -9.68 -12.97997 -9.64982 C -13 -9.62 -13.02 -9.59 -13.04188 -9.5664 C -13.06 -9.54 -13.08 -9.51 -13.10301 -9.48363 C -13.12 -9.46 -13.14 -9.43 -13.16336 -9.40154 C -13.18 -9.37 -13.2 -9.35 -13.22294 -9.32016 C -13.24 -9.3 -13.26 -9.27 -13.27694 -9.24614 C -13.29 -9.22 -13.31 -9.2 -13.33031 -9.17277 C -13.35 -9.15 -13.37 -9.12 -13.38307 -9.10007 C -13.4 -9.08 -13.42 -9.05 -13.43521 -9.02809" />
    <path d="M -14.03961 -9.45301 A 4.5 4.02772 0 0 1 -19.00954 -10.86247 A 4.5 4.02772 0 0 1 -19.7249 -14.45064" />
    <path d="M -12.56982 -14.54625 L -12.56982 -10.08655" />
    <path d="M -14.03961 -9.45301 A 4.5 4.02772 180 0 0 -12.56982 -10.08655" />
    <path d="M -19.7249 -13.3385 A 4.5 4.02772 180 0 0 -14.03961 -9.45301" />
    <path d="M 4.99968 -5.37596 A 4.5 4.02772 180 0 0 12.52136 -8.36058 L 12.52136 -12.82027" />
    <path d="M 4.0094 -6.5363 A 4.5 4.02772 180 0 0 4.99968 -5.37596" />
    <path d="M 4.0094 -10.996 L 4.0094 -6.5363" />
    <path d="M 5.40857 -4.82138 L 5.40857 20.73421 C 5.37 20.82 5.33 20.91 5.29562 21.0017 C 5.27 21.06 5.25 21.12 5.22065 21.17809 C 5.2 21.24 5.17 21.3 5.14553 21.35391 C 5.12 21.41 5.1 21.47 5.07024 21.52917 C 5.05 21.59 5.02 21.65 4.99477 21.70389 C 4.97 21.76 4.94 21.82 4.91911 21.87807 C 4.89 21.94 4.87 21.99 4.84325 22.05171 C 4.79 22.17 4.74 22.28 4.6909 22.39743 C 4.64 22.51 4.59 22.63 4.53768 22.7411 C 4.49 22.86 4.44 22.97 4.38354 23.08274 C 4.33 23.2 4.28 23.31 4.22845 23.42239 C 4.18 23.54 4.12 23.65 4.07239 23.76005 A 13 11.63563 360 0 1 4.0094 23.78962 L 4.0094 28.24931" />
    <path d="M -12.56982 20.23937 A 13 11.63563 360 0 1 -12.61104 20.18749" />
    <path d="M 4.99968 24.94996 A 4.5 4.02772 360 0 1 4.0094 23.78962" />
    <path d="M -18.72329 -10.52272 L -18.72329 14.69509" />
    <path d="M 11.47322 21.16133 L 11.29313 21.14851 L 11.11913 21.15995 L 10.95016 21.19571 L 10.78516 21.25602 L 10.62313 21.34125 L 10.46307 21.45192 L 10.30399 21.58872 L 10.14491 21.75248 L 9.98484 21.94423 L 9.82281 22.16513 L 9.65782 22.41655 L 9.48884 22.70003 L 9.31485 23.01734 L 9.13475 23.37041 L 8.8801 23.13293 L 8.63406 22.92731 L 8.39512 22.75228 L 8.16181 22.60677 L 7.9327 22.48987 L 7.70636 22.40087 L 7.48141 22.33921 L 7.25646 22.30453 L 7.03013 22.2966 L 6.80101 22.31537 L 6.56771 22.36096 L 6.32877 22.43366 L 6.08273 22.53391 L 5.82807 22.66232 L 5.79568 22.48231 L 5.7638 22.30951 L 5.73239 22.14373 L 5.70143 21.98476 L 5.67087 21.83244 L 5.64069 21.68659 L 5.61085 21.54704 L 5.58131 21.41364 L 5.55203 21.28623 L 5.523 21.16466 L 5.49417 21.04881 L 5.46551 20.93853 L 5.43699 20.83371 L 5.40857 20.73421" />
    <path d="M 4.99968 24.94996 A 4.5 4.02772 360 0 1 4.07239 23.76005" />
    <path d="M 4.99968 24.94996 A 4.5 4.02772 180 0 0 11.75946 19.66341" />
    <path d="M 5.65705 -4.52646 L 5.66885 -4.51282 L 5.6807 -4.49981 L 5.69261 -4.48745 L 5.70458 -4.47572 L 5.71662 -4.46463 L 5.72871 -4.45417 L 5.74088 -4.44435 L 5.75311 -4.43516 L 5.76542 -4.42659 L 5.77779 -4.41865 L 5.79025 -4.41134 L 5.80278 -4.40466 L 5.81538 -4.3986 L 5.82807 -4.39316 L 5.82807 22.66232" />
    <path d="M 5.82807 -4.39316 L 6.08273 -4.15568 L 6.32877 -3.95006 L 6.56771 -3.77503 L 6.80101 -3.62952 L 7.03013 -3.51262 L 7.25646 -3.42362 L 7.48141 -3.36196 L 7.70636 -3.32728 L 7.9327 -3.31934 L 8.16181 -3.33812 L 8.39512 -3.38371 L 8.63406 -3.45641 L 8.8801 -3.55665 L 9.13475 -3.68507 L 9.13475 23.37041" />
    <path d="M 9.13475 -3.68507 L 9.24404 -3.67444 L 9.35096 -3.67262 L 9.45575 -3.6796 L 9.55864 -3.69539 L 9.65986 -3.72004 L 9.75964 -3.75359 L 9.85821 -3.79613 L 9.95578 -3.84775 L 10.05258 -3.90856 L 10.14881 -3.97869 L 10.24469 -4.05832 L 10.34044 -4.1476 L 10.43628 -4.24675 L 10.53241 -4.35599 L 11.75946 -5.8124 A 4.5 4.02772 0 0 1 4.99968 -5.37596" />
    <path d="M 12.52136 -9.25229 A 4.5 4.02772 0 0 1 11.75946 -5.8124" />
    <path d="M 11.47322 -5.47266 L 11.47322 21.16133" />
    <path d="M 5.71474 -30.68327 L 5.71474 -33.3282" />
    <path d="M -3.28526 -32.89384 L -3.28526 -33.3282" />
    <path d="M -19.7249 18.20152 L -19.7249 21.44712" />
    <path d="M -18.72329 14.2736 L -19.00954 14.61334" />
    <path d="M -17.92611 -9.57653 L -19.00954 -10.86247" />
    <path d="M -19.7249 -13.3385 L -19.7249 -17.79819" />
    <path d="M 11.00373 -21.31555 L 11.00373 -15.83639" />
    <path d="M -17.40661 -17.74721 L -17.40661 -18.63915" />
    <path d="M 6.17654 -12.69715 L 6.17654 -13.58909" />
    <path d="M -0.72872 -33.5023 L -0.72872 -34.39424" />
    <path d="M 12.52136 23.1033 L 12.52136 26.42504" />
    <path d="M 11.47322 19.32367 L 11.75946 19.66341" />
    <path d="M 5.65705 -4.52646 L 4.78286 -5.56405" />
</svg>