<svg version="1.1" xmlns="http://www.w3.org/2000/svg" viewBox="-20.65664906619792 -33.40930240355251 34.2346542229113 65.88231499764836" fill="none" stroke="black" stroke-width="0.6%" vector-effect="non-scaling-stroke">
    <path d="M -14.90646 -10.16631 A 13 12.30972 0 0 1 -11.56988 -17.8552" />
    <path d="M 7.73012 -17.8552 A 13 12.30972 0 0 1 11.08012 -9.60695 A 13 12.30972 0 0 1 9.90551 -4.49368 A 4.5 4.26106 0 0 1 12.578 -0.59982 A 4.5 4.26106 0 0 1 4.06182 1.32224 A 13 12.30972 0 0 1 -12.50913 -2.46629 A 4.5 4.26106 0 0 1 -19.65665 -5.91184 A 4.5 4.26106 0 0 1 -14.90646 -10.16631" />
    <path d="M 7.73012 -9.60695 A 9.65 9.1376 0 0 1 -11.56988 -9.60695" />
    <path d="M -19.65665 21.89993 A 4.5 4.26106 180 0 0 -12.50913 25.34549" />
    <path d="M 4.06182 29.13402 A 4.5 4.26106 180 0 0 12.578 27.21195" />
    <path d="M 4.06182 29.13402 A 13 12.30972 0 0 1 -12.50913 25.34549" />
    <path d="M -12.50913 20.20111 A 4.5 4.26106 0 0 1 -19.65665 16.75556 A 4.5 4.26106 0 0 1 -18.65352 14.07365" />
    <path d="M -12.50913 20.20111 L -12.50913 25.34549" />
    <path d="M -12.50913 20.20111 A 13 12.30972 0 0 1 -13.37163 18.88659" />
    <path d="M -14.38704 19.89718 L -13.37163 18.88659" />
    <path d="M -17.69207 19.14157 L -14.38704 19.89718 L -14.38704 3.43081" />
    <path d="M -18.65352 16.0535 L -17.69207 19.14157" />
    <path d="M -19.65665 -0.76747 A 4.5 4.26106 180 0 0 -12.50913 2.67809" />
    <path d="M -12.50913 -2.46629 L -12.50913 2.67809" />
    <path d="M 4.06182 1.32224 L 4.06182 6.46662 A 4.5 4.26106 180 0 0 12.578 4.54455" />
    <path d="M -13.37163 3.14402 L -13.37163 18.88659" />
    <path d="M 5.46275 8.01213 L 5.46275 23.1926 L 5.87931 24.53057 L 9.18434 25.28618 L 11.52793 22.95373" />
    <path d="M 4.06182 23.98964 A 13 12.30972 180 0 0 5.46275 23.1926" />
    <path d="M 4.06182 23.98964 L 4.06182 29.13402" />
    <path d="M -8.91116 -29.57017 A 9.65 9.1376 0 0 1 7.73012 -23.2717 L 7.73012 -9.60695" />
    <path d="M 7.73012 -23.2717 A 9.65 9.1376 0 0 1 -11.56988 -23.2717 L -11.56988 -9.60695" />
    <path d="M -11.56988 -23.2717 A 9.65 9.1376 0 0 1 -8.91116 -29.57017" />
    <path d="M 11.52793 19.3317 A 4.5 4.26106 0 0 1 12.578 22.06758 L 12.578 27.21195" />
    <path d="M 12.578 22.06758 A 4.5 4.26106 0 0 1 4.06182 23.98964" />
    <path d="M -17.69207 2.75287 L -17.69207 19.14157" />
    <path d="M -18.65352 1.91444 L -18.65352 16.0535" />
    <path d="M 5.87931 8.26236 L 5.87931 24.53057" />
    <path d="M 11.52793 7.28043 L 11.52793 22.95373" />
    <path d="M 9.18434 8.67483 L 9.18434 25.28618" />
    <path d="M -19.65665 16.75556 L -19.65665 21.89993" />
    <path d="M -19.65665 -5.91184 L -19.65665 -0.76747" />
    <path d="M 11.08012 -9.60695 L 11.08012 -3.77404" />
    <path d="M 12.578 -0.59982 L 12.578 4.54455" />
</svg>