<svg version="1.1" xmlns="http://www.w3.org/2000/svg" viewBox="-20.656807894300226 -39.06878146051648 34.23422477711091 69.57848399610951" fill="none" stroke="black" stroke-width="0.6%" vector-effect="non-scaling-stroke">
    <path d="M -14.90627 -22.39102 A 13 11.76563 360 0 1 -3.1549 -33.56789 A 4.5 4.07272 360 0 1 -3.17984 -33.99606 A 4.5 4.07272 360 0 1 5.82016 -33.99606 A 4.5 4.07272 360 0 1 5.08596 -31.76649 A 13 11.76563 360 0 1 11.08026 -21.85549 A 13 11.76563 360 0 1 9.90523 -16.9674 A 4.5 4.07272 360 0 1 12.57742 -13.24578 A 4.5 4.07272 360 0 1 4.06108 -11.40895 A 13 11.76563 360 0 1 -12.50956 -15.03118 A 4.5 4.07272 360 0 1 -19.65681 -18.32462 A 4.5 4.07272 360 0 1 -14.90627 -22.39102 Z" />
    <path d="M -17.33865 -18.27345 A 1.99 1.80105 180 1 0 -13.35865 -18.27345 L -13.35865 -18.69876 A 1.99 1.80105 360 1 1 -17.33865 -18.69876 A 1.99 1.80105 360 0 1 -13.43983 -19.20792 A 1.99 1.80105 360 0 1 -13.35865 -18.69876" />
    <path d="M 6.2323 -13.12101 A 1.99 1.80105 180 0 0 10.2123 -13.12101 L 10.2123 -13.54631 A 1.99 1.80105 360 0 1 6.2323 -13.54631 A 1.99 1.80105 360 0 1 6.78068 -14.78786 A 1.99 1.80105 360 0 1 10.2123 -13.54631" />
    <path d="M 0.89991 -32.42131 A 1.99 1.80105 180 0 0 3.35711 -34.17201 L 3.35711 -34.59732 A 1.99 1.80105 360 0 1 0.89991 -32.84662 A 1.99 1.80105 360 0 1 -0.62289 -34.59732 A 1.99 1.80105 360 0 1 3.35711 -34.59732" />
    <path d="M -0.62289 -34.17201 A 1.99 1.80105 180 0 0 0.89991 -32.42131" />
    <path d="M -19.65681 19.10257 A 4.5 4.07272 180 0 0 -12.50956 22.39601" />
    <path d="M 4.06108 26.01824 A 4.5 4.07272 180 0 0 12.57742 24.18141" />
    <path d="M 4.06108 26.01824 A 13 11.76563 360 0 1 -12.50956 22.39601" />
    <path d="M -12.50956 15.59107 A 4.5 4.07272 360 0 1 -19.65681 12.29763 A 4.5 4.07272 360 0 1 -18.65362 9.73419" />
    <path d="M -12.50956 15.59107 L -12.50956 22.39601" />
    <path d="M -12.50956 15.59107 A 13 11.76563 360 0 1 -13.37196 14.33459" />
    <path d="M -14.38746 15.30044 L -13.37196 14.33459" />
    <path d="M -17.69243 14.57799 L -14.38746 15.30044 L -14.38746 12.74858 L -13.37196 11.78273 L -13.37196 14.33459" />
    <path d="M -18.65362 11.62636 L -17.69243 14.57799 L -17.69243 12.02614 L -14.38746 12.74858" />
    <path d="M -18.65362 9.0745 L -17.69243 12.02614" />
    <path d="M -17.48126 7.95946 L -18.65362 9.0745" />
    <path d="M -18.2648 9.15949 L -17.41669 11.76388 L -14.50054 12.40133 L -13.54076 11.48847" />
    <path d="M -13.37196 11.78273 A 13 11.76563 360 0 1 -13.54076 11.48847" />
    <path d="M -13.82029 9.74748 C -13.83 9.76 -13.83 9.76 -13.84108 9.77329 C -13.85 9.78 -13.86 9.79 -13.86251 9.79808 C -13.87 9.81 -13.88 9.81 -13.88453 9.82168 C -13.89 9.83 -13.89 9.83 -13.89573 9.83301 C -13.9 9.84 -13.9 9.84 -13.90705 9.84399 C -13.91 9.85 -13.92 9.85 -13.91966 9.85571 C -13.92 9.86 -13.93 9.86 -13.93237 9.86698 C -13.94 9.87 -13.94 9.87 -13.94517 9.8778 C -13.95 9.88 -13.95 9.88 -13.95803 9.88814 C -13.96 9.89 -13.97 9.89 -13.97094 9.898 C -13.98 9.9 -13.98 9.9 -13.98388 9.90739 C -13.99 9.91 -13.99 9.91 -13.99684 9.91629 C -14 9.92 -14.01 9.92 -14.00979 9.9247 C -14.01 9.93 -14.02 9.93 -14.02357 9.93314 C -14.03 9.94 -14.03 9.94 -14.03731 9.94103 C -14.04 9.94 -14.05 9.95 -14.051 9.9484 C -14.06 9.95 -14.06 9.95 -14.06463 9.95525 C -14.07 9.96 -14.07 9.96 -14.07845 9.96171 C -14.08 9.96 -14.09 9.97 -14.09219 9.96766 C -14.1 9.97 -14.11 9.97 -14.11938 9.9781 C -14.13 9.98 -14.14 9.98 -14.14614 9.98668 C -14.15 9.99 -14.16 9.99 -14.17245 9.99355 C -14.18 10 -14.19 10 -14.19327 9.99792 C -14.2 10 -14.21 10 -14.21377 10.00134 C -14.22 10 -14.23 10 -14.23396 10.00386 C -14.24 10 -14.25 10.01 -14.25384 10.00555 C -14.27 10.01 -14.28 10.01 -14.29272 10.00663 C -14.31 10.01 -14.32 10.01 -14.33046 10.00499 C -14.38 10 -14.43 9.99 -14.47123 9.97711 C -14.59 9.94 -14.69 9.88 -14.78607 9.80627 L -14.50054 12.40133" />
    <path d="M -14.78607 9.80627 C -14.79 9.81 -14.8 9.82 -14.80536 9.83088 C -14.81 9.84 -14.82 9.85 -14.825 9.85532 C -14.83 9.86 -14.84 9.87 -14.84501 9.87959 C -14.85 9.89 -14.86 9.9 -14.86539 9.90367 C -14.87 9.91 -14.88 9.92 -14.88617 9.92756 C -14.89 9.94 -14.9 9.94 -14.90736 9.95125 C -14.91 9.96 -14.92 9.97 -14.92899 9.9747 C -14.94 9.98 -14.94 9.99 -14.95106 9.99792 C -14.96 10.01 -14.97 10.01 -14.97361 10.02088 C -14.98 10.03 -14.99 10.04 -14.99665 10.04355 C -15 10.05 -15.01 10.06 -15.0202 10.06592 C -15.03 10.07 -15.04 10.08 -15.0443 10.08796 C -15.05 10.1 -15.06 10.1 -15.06898 10.10964 C -15.08 10.12 -15.09 10.12 -15.09425 10.13093 C -15.1 10.14 -15.11 10.14 -15.12017 10.1518 C -15.13 10.16 -15.14 10.17 -15.14676 10.1722 C -15.15 10.18 -15.16 10.18 -15.16555 10.18601 C -15.17 10.19 -15.18 10.2 -15.18469 10.19955 C -15.19 10.2 -15.2 10.21 -15.20418 10.21281 C -15.21 10.22 -15.22 10.22 -15.22407 10.22577 C -15.23 10.23 -15.24 10.23 -15.24435 10.23841 C -15.25 10.24 -15.26 10.25 -15.26505 10.25071 C -15.27 10.25 -15.28 10.26 -15.28619 10.26265 C -15.29 10.27 -15.3 10.27 -15.30778 10.27418 C -15.32 10.28 -15.32 10.28 -15.32985 10.28529 C -15.34 10.29 -15.34 10.29 -15.3524 10.29593 C -15.37 10.3 -15.38 10.31 -15.39904 10.31566 C -15.43 10.33 -15.46 10.34 -15.49895 10.34753 C -15.59 10.37 -15.7 10.38 -15.81588 10.35313 C -16.35 10.19 -16.55 9.73 -16.72045 9.38343 L -17.41669 11.76388" />
    <path d="M -16.72045 9.38343 C -16.73 9.39 -16.73 9.39 -16.73493 9.39039 C -16.74 9.39 -16.74 9.39 -16.74948 9.39696 C -16.75 9.4 -16.76 9.4 -16.76411 9.40313 C -16.77 9.41 -16.77 9.41 -16.77882 9.40888 C -16.78 9.41 -16.79 9.41 -16.79361 9.41418 C -16.8 9.42 -16.8 9.42 -16.80849 9.41902 C -16.81 9.42 -16.82 9.42 -16.82345 9.42336 C -16.83 9.42 -16.83 9.43 -16.8385 9.42718 C -16.84 9.43 -16.85 9.43 -16.85364 9.43044 C -16.86 9.43 -16.86 9.43 -16.86886 9.43312 C -16.87 9.43 -16.88 9.43 -16.88418 9.43518 C -16.89 9.44 -16.89 9.44 -16.89959 9.43657 C -16.9 9.44 -16.91 9.44 -16.9151 9.43726 C -16.92 9.44 -16.93 9.44 -16.9307 9.43719 C -16.94 9.44 -16.94 9.44 -16.9464 9.43631 C -16.95 9.44 -16.96 9.44 -16.9622 9.43456 C -16.97 9.43 -16.97 9.43 -16.97318 9.43282 C -16.98 9.43 -16.98 9.43 -16.9842 9.4306 C -16.99 9.43 -16.99 9.43 -16.99526 9.42789 C -17 9.43 -17 9.43 -17.00637 9.42466 C -17.01 9.42 -17.01 9.42 -17.01752 9.42087 C -17.02 9.42 -17.02 9.42 -17.02872 9.41651 C -17.03 9.41 -17.04 9.41 -17.03996 9.41152 C -17.04 9.41 -17.05 9.41 -17.05124 9.40588 C -17.06 9.4 -17.06 9.4 -17.06256 9.39954 C -17.07 9.4 -17.07 9.39 -17.07391 9.39247 C -17.08 9.39 -17.08 9.39 -17.08529 9.38461 C -17.09 9.38 -17.09 9.38 -17.09668 9.37592 C -17.11 9.36 -17.13 9.35 -17.14227 9.33177 C -17.28 9.2 -17.35 8.76 -17.33865 8.44296" />
    <path d="M -16.72045 -2.9165 C -16.71 -2.92 -16.7 -2.93 -16.69085 -2.93057 C -16.68 -2.94 -16.67 -2.94 -16.65973 -2.94418 C -16.65 -2.95 -16.65 -2.95 -16.64356 -2.95079 C -16.64 -2.95 -16.63 -2.96 -16.62696 -2.95727 C -16.62 -2.96 -16.62 -2.96 -16.60991 -2.9636 C -16.6 -2.97 -16.6 -2.97 -16.59238 -2.96978 C -16.59 -2.97 -16.58 -2.97 -16.57436 -2.97579 C -16.57 -2.98 -16.56 -2.98 -16.55581 -2.98162 C -16.55 -2.98 -16.54 -2.99 -16.53672 -2.98727 C -16.53 -2.99 -16.52 -2.99 -16.51705 -2.99272 C -16.51 -2.99 -16.5 -3 -16.49676 -2.99794 C -16.49 -3 -16.48 -3 -16.47584 -3.00294 C -16.47 -3 -16.46 -3.01 -16.45422 -3.00768 C -16.45 -3.01 -16.44 -3.01 -16.43188 -3.01216 C -16.42 -3.01 -16.41 -3.02 -16.39974 -3.01785 C -16.39 -3.02 -16.38 -3.02 -16.366 -3.0229 C -16.35 -3.02 -16.34 -3.03 -16.33052 -3.02725 C -16.32 -3.03 -16.31 -3.03 -16.29311 -3.03078 C -16.29 -3.03 -16.28 -3.03 -16.27362 -3.03221 C -16.27 -3.03 -16.26 -3.03 -16.2536 -3.03338 C -16.25 -3.03 -16.24 -3.03 -16.233 -3.0343 C -16.23 -3.03 -16.22 -3.03 -16.21181 -3.03493 C -16.2 -3.04 -16.2 -3.04 -16.19 -3.03525 C -16.18 -3.04 -16.18 -3.04 -16.16755 -3.03525 C -16.16 -3.04 -16.15 -3.04 -16.14443 -3.03489 C -16.14 -3.03 -16.13 -3.03 -16.12061 -3.03416 C -16.09 -3.03 -16.05 -3.03 -16.00899 -3.02595 C -15.99 -3.02 -15.97 -3.02 -15.94623 -3.01801 C -15.9 -3.01 -15.86 -3 -15.81583 -2.99426 C -15.28 -2.86 -15.01 -2.65 -14.78607 -2.49366 L -14.50054 -3.3351" />
    <path d="M -14.78607 -2.49366 C -14.77 -2.51 -14.76 -2.53 -14.74737 -2.54342 C -14.73 -2.56 -14.72 -2.58 -14.70771 -2.59401 C -14.69 -2.61 -14.68 -2.63 -14.66701 -2.64549 C -14.65 -2.66 -14.64 -2.68 -14.62518 -2.69792 C -14.61 -2.72 -14.6 -2.73 -14.58214 -2.75137 C -14.57 -2.76 -14.57 -2.77 -14.56013 -2.77849 C -14.55 -2.79 -14.55 -2.8 -14.53778 -2.8059 C -14.53 -2.82 -14.52 -2.82 -14.51507 -2.83359 C -14.51 -2.84 -14.5 -2.85 -14.49197 -2.86159 C -14.48 -2.87 -14.48 -2.88 -14.46848 -2.8899 C -14.46 -2.9 -14.45 -2.91 -14.44457 -2.91854 C -14.43 -2.93 -14.42 -2.94 -14.41273 -2.9564 C -14.4 -2.97 -14.39 -2.98 -14.38011 -2.99483" />
    <path d="M -13.82029 -3.52729 L -13.82029 9.74748 C -13.81 9.81 -13.8 9.88 -13.79073 9.94029 C -13.78 10 -13.77 10.07 -13.76085 10.13294 C -13.75 10.23 -13.73 10.32 -13.71652 10.41464 C -13.7 10.51 -13.69 10.6 -13.67152 10.69592 C -13.66 10.79 -13.64 10.88 -13.62591 10.97643 C -13.61 11.07 -13.6 11.16 -13.57964 11.25646 C -13.57 11.33 -13.55 11.41 -13.54076 11.48847" />
    <path d="M -17.69243 -3.71029 L -18.65362 -6.66193" />
    <path d="M -14.38746 -2.98785 L -17.69243 -3.71029" />
    <path d="M -13.37196 -3.9537 L -14.38746 -2.98785" />
    <path d="M -19.65681 -11.51968 A 4.5 4.07272 180 0 0 -12.50956 -8.22623" />
    <path d="M -12.50956 -15.03118 L -12.50956 -8.22623" />
    <path d="M 4.06108 -11.40895 L 4.06108 -4.60401 A 4.5 4.07272 180 0 0 12.57742 -6.44084" />
    <path d="M -13.37196 -7.78101 L -13.37196 -3.9537" />
    <path d="M 5.46207 -3.12659 L 5.46207 0.16328" />
    <path d="M 6.28074 1.53007 L 6.28074 14.14142 C 6.26 14.2 6.24 14.26 6.22398 14.31536 C 6.21 14.37 6.19 14.43 6.16706 14.48904 C 6.14 14.57 6.11 14.66 6.08345 14.74278 C 6.06 14.83 6.03 14.91 5.99952 14.99587 C 5.97 15.08 5.94 15.16 5.91538 15.24802 C 5.89 15.33 5.86 15.42 5.83095 15.49948 C 5.81 15.57 5.78 15.64 5.76065 15.70762 L 6.15426 16.91632 L 9.07041 17.55377 L 11.13845 15.58684 L 10.29034 12.98245" />
    <path d="M 5.76065 15.70762 A 13 11.76563 360 0 1 5.46207 15.89972 L 5.87852 17.17858 L 9.18349 17.90103 L 11.52727 15.67183 L 10.56608 12.72019 L 10.2123 12.64286" />
    <path d="M 5.46207 15.89972 L 5.46207 18.45157 L 5.87852 19.73044 L 5.87852 17.17858" />
    <path d="M 4.06108 19.21329 A 13 11.76563 180 0 0 5.46207 18.45157" />
    <path d="M 4.06108 19.21329 L 4.06108 26.01824" />
    <path d="M 11.09977 14.35906 A 4.5 4.07272 360 0 1 12.57742 17.37646 L 12.57742 24.18141" />
    <path d="M 12.57742 17.37646 A 4.5 4.07272 360 0 1 4.06108 19.21329" />
    <path d="M -18.65362 11.62636 L -18.65362 9.0745" />
    <path d="M -17.33865 7.74104 L -18.2648 9.15949" />
    <path d="M -16.72045 -2.9165 L -17.41669 -3.97255" />
    <path d="M -18.65362 -8.95624 L -18.65362 -6.66193" />
    <path d="M -17.69243 -8.15506 L -17.69243 -3.71029" />
    <path d="M -14.38746 -7.50692 L -14.38746 -2.98785" />
    <path d="M 9.18349 20.45288 L 11.52727 18.22368 L 11.52727 15.67183" />
    <path d="M 5.87852 19.73044 L 9.18349 20.45288 L 9.18349 17.90103" />
    <path d="M 10.2123 12.86408 L 10.29034 12.98245" />
    <path d="M 10.2123 13.5954 C 10.21 13.6 10.21 13.6 10.212 13.60704 C 10.21 13.61 10.21 13.61 10.21112 13.6172 C 10.21 13.62 10.21 13.62 10.20971 13.62601 C 10.21 13.63 10.21 13.63 10.20784 13.63358 C 10.21 13.64 10.21 13.64 10.20607 13.63869 C 10.21 13.64 10.2 13.64 10.20405 13.64316 C 10.2 13.64 10.2 13.65 10.2018 13.64701 C 10.2 13.65 10.2 13.65 10.19934 13.65028 C 10.2 13.65 10.2 13.65 10.19667 13.653 C 10.2 13.65 10.19 13.65 10.19381 13.65521 C 10.19 13.66 10.19 13.66 10.19077 13.65693 C 10.19 13.66 10.19 13.66 10.18755 13.65818 C 10.19 13.66 10.19 13.66 10.18418 13.65899 C 10.18 13.66 10.18 13.66 10.18065 13.65939 C 10.18 13.66 10.18 13.66 10.17698 13.65938 C 10.18 13.66 10.17 13.66 10.17317 13.659 C 10.17 13.66 10.17 13.66 10.16516 13.65715 C 10.16 13.66 10.16 13.66 10.15668 13.65398 L 11.13845 15.58684" />
    <path d="M 10.15668 13.65398 C 10.15 13.68 10.15 13.7 10.14678 13.72854 C 10.14 13.75 10.14 13.78 10.13573 13.80377 C 10.13 13.83 10.13 13.85 10.12343 13.87971 C 10.12 13.89 10.12 13.91 10.11677 13.91795 C 10.11 13.93 10.11 13.94 10.10974 13.95637 C 10.11 13.97 10.1 13.98 10.10233 13.99498 C 10.1 14.01 10.1 14.02 10.09452 14.03377 C 10.09 14.05 10.09 14.06 10.08628 14.07276 C 10.08 14.09 10.08 14.1 10.07759 14.11193 C 10.07 14.13 10.07 14.14 10.06842 14.15129 C 10.07 14.16 10.06 14.18 10.05875 14.19085 C 10.06 14.2 10.05 14.22 10.04854 14.23059 C 10.05 14.24 10.04 14.26 10.03775 14.27053 C 10.04 14.28 10.03 14.29 10.02993 14.29823 C 10.03 14.31 10.02 14.32 10.02181 14.32602 C 10.02 14.34 10.02 14.34 10.01338 14.35387 C 10.01 14.36 10.01 14.37 10.0046 14.38181 C 10 14.39 10 14.4 9.99547 14.40982 C 9.99 14.42 9.99 14.43 9.98597 14.43791 C 9.98 14.45 9.98 14.46 9.97607 14.46606 C 9.97 14.48 9.97 14.48 9.96576 14.49426 C 9.96 14.5 9.96 14.51 9.95502 14.52252 C 9.95 14.53 9.95 14.54 9.94381 14.55079 C 9.94 14.56 9.94 14.57 9.93213 14.57908 C 9.93 14.59 9.92 14.6 9.91994 14.60736 C 9.92 14.62 9.91 14.63 9.90723 14.63561 C 9.9 14.65 9.9 14.65 9.89395 14.66379 C 9.88 14.68 9.88 14.7 9.86562 14.71983 C 9.81 14.82 9.74 14.92 9.6639 14.99643 C 9.27 15.32 9 15.1 8.78488 14.95871 L 9.07041 17.55377" />
    <path d="M 8.78488 14.95871 C 8.78 14.97 8.77 14.98 8.76559 14.98332 C 8.76 14.99 8.75 15 8.74595 15.00776 C 8.74 15.02 8.73 15.02 8.72594 15.03203 C 8.72 15.04 8.71 15.05 8.70556 15.05611 C 8.7 15.06 8.69 15.07 8.68478 15.08001 C 8.68 15.09 8.67 15.1 8.66359 15.10369 C 8.66 15.11 8.65 15.12 8.64196 15.12715 C 8.63 15.13 8.63 15.14 8.61989 15.15036 C 8.61 15.16 8.6 15.17 8.59734 15.17332 C 8.59 15.18 8.58 15.19 8.5743 15.19599 C 8.57 15.2 8.56 15.21 8.55075 15.21836 C 8.54 15.23 8.53 15.23 8.52665 15.2404 C 8.52 15.25 8.51 15.25 8.50197 15.26208 C 8.49 15.27 8.49 15.28 8.4767 15.28337 C 8.47 15.29 8.46 15.3 8.45078 15.30424 C 8.44 15.31 8.43 15.32 8.42419 15.32464 C 8.42 15.33 8.41 15.33 8.4054 15.33845 C 8.4 15.34 8.39 15.35 8.38627 15.35199 C 8.38 15.36 8.37 15.36 8.36677 15.36525 C 8.36 15.37 8.35 15.37 8.34688 15.37821 C 8.34 15.38 8.33 15.39 8.3266 15.39085 C 8.32 15.4 8.31 15.4 8.3059 15.40316 C 8.3 15.41 8.29 15.41 8.28476 15.41509 C 8.28 15.42 8.27 15.42 8.26317 15.42663 C 8.26 15.43 8.25 15.43 8.2411 15.43773 C 8.23 15.44 8.23 15.44 8.21855 15.44837 C 8.2 15.46 8.19 15.46 8.17191 15.4681 C 8.14 15.48 8.11 15.49 8.072 15.49997 C 7.98 15.52 7.87 15.53 7.75507 15.50557 C 7.23 15.34 7.02 14.88 6.8505 14.53587 L 6.15426 16.91632" />
    <path d="M 6.8505 14.53587 C 6.85 14.54 6.84 14.54 6.83602 14.54283 C 6.83 14.55 6.83 14.55 6.82147 14.5494 C 6.82 14.55 6.81 14.55 6.80684 14.55557 C 6.8 14.56 6.8 14.56 6.79213 14.56132 C 6.79 14.56 6.78 14.56 6.77734 14.56663 C 6.77 14.57 6.77 14.57 6.76246 14.57146 C 6.76 14.57 6.75 14.57 6.7475 14.5758 C 6.74 14.58 6.74 14.58 6.73245 14.57962 C 6.73 14.58 6.72 14.58 6.71732 14.58289 C 6.71 14.58 6.71 14.58 6.70209 14.58557 C 6.7 14.59 6.69 14.59 6.68677 14.58762 C 6.68 14.59 6.68 14.59 6.67136 14.58901 C 6.67 14.59 6.66 14.59 6.65585 14.5897 C 6.65 14.59 6.65 14.59 6.64025 14.58963 C 6.64 14.59 6.63 14.59 6.62455 14.58875 C 6.62 14.59 6.61 14.59 6.60875 14.58701 C 6.61 14.59 6.6 14.59 6.59777 14.58526 C 6.59 14.58 6.59 14.58 6.58675 14.58304 C 6.58 14.58 6.58 14.58 6.57569 14.58033 C 6.57 14.58 6.57 14.58 6.56458 14.5771 C 6.56 14.58 6.56 14.57 6.55343 14.57332 C 6.55 14.57 6.55 14.57 6.54223 14.56895 C 6.54 14.57 6.53 14.57 6.53099 14.56396 C 6.53 14.56 6.52 14.56 6.51971 14.55832 C 6.52 14.56 6.51 14.55 6.50839 14.55199 C 6.5 14.55 6.5 14.55 6.49704 14.54491 C 6.49 14.54 6.49 14.54 6.48566 14.53705 C 6.48 14.53 6.48 14.53 6.47427 14.52837 C 6.46 14.52 6.44 14.5 6.42868 14.48422 C 6.37 14.42 6.31 14.3 6.28074 14.14142" />
    <path d="M 6.8505 2.23594 C 6.86 2.23 6.87 2.23 6.8801 2.22187 C 6.89 2.22 6.9 2.21 6.91122 2.20826 C 6.92 2.21 6.92 2.2 6.92739 2.20165 C 6.93 2.2 6.94 2.2 6.94399 2.19517 C 6.95 2.19 6.96 2.19 6.96104 2.18884 C 6.97 2.19 6.97 2.18 6.97857 2.18267 C 6.98 2.18 6.99 2.18 6.99659 2.17665 C 7 2.17 7.01 2.17 7.01514 2.17082 C 7.02 2.17 7.03 2.17 7.03423 2.16517 C 7.04 2.16 7.05 2.16 7.0539 2.15973 C 7.06 2.16 7.07 2.16 7.07419 2.1545 C 7.08 2.15 7.09 2.15 7.09512 2.1495 C 7.1 2.15 7.11 2.15 7.11673 2.14476 C 7.12 2.14 7.13 2.14 7.13907 2.14028 C 7.15 2.14 7.16 2.14 7.17121 2.13459 C 7.18 2.13 7.19 2.13 7.20495 2.12954 C 7.22 2.13 7.23 2.13 7.24043 2.1252 C 7.25 2.12 7.27 2.12 7.27785 2.12166 C 7.28 2.12 7.29 2.12 7.29733 2.12024 C 7.3 2.12 7.31 2.12 7.31735 2.11906 C 7.32 2.12 7.33 2.12 7.33795 2.11814 C 7.34 2.12 7.35 2.12 7.35914 2.11751 C 7.37 2.12 7.37 2.12 7.38095 2.11719 C 7.39 2.12 7.4 2.12 7.4034 2.11719 C 7.41 2.12 7.42 2.12 7.42652 2.11755 C 7.43 2.12 7.44 2.12 7.45034 2.11828 C 7.49 2.12 7.52 2.12 7.56196 2.12649 C 7.58 2.13 7.6 2.13 7.62473 2.13443 C 7.67 2.14 7.71 2.15 7.75513 2.15818 C 8.29 2.29 8.56 2.5 8.78488 2.65878 L 9.07041 1.81734" />
    <path d="M 8.78488 2.65878 C 8.8 2.64 8.81 2.63 8.82358 2.60902 C 8.84 2.59 8.85 2.58 8.86324 2.55843 C 8.88 2.54 8.89 2.52 8.90394 2.50695 C 8.92 2.49 8.93 2.47 8.94577 2.45452 C 8.96 2.44 8.97 2.42 8.98881 2.40108 C 9 2.39 9 2.38 9.01082 2.37395 C 9.02 2.36 9.03 2.36 9.03317 2.34655 C 9.04 2.34 9.05 2.33 9.05588 2.31885 C 9.06 2.31 9.07 2.3 9.07898 2.29085 C 9.09 2.28 9.09 2.27 9.10247 2.26254 C 9.11 2.25 9.12 2.24 9.12638 2.2339 C 9.14 2.22 9.15 2.21 9.15822 2.19604 C 9.17 2.18 9.18 2.17 9.19084 2.15761" />
    <path d="M 10.00661 1.38172 C 10.01 1.38 10.01 1.38 10.01825 1.37592 C 10.02 1.37 10.03 1.37 10.0293 1.37077 C 10.03 1.37 10.04 1.37 10.03978 1.36623 C 10.04 1.36 10.05 1.36 10.04975 1.36226 C 10.05 1.36 10.06 1.36 10.05921 1.35882 C 10.06 1.36 10.07 1.36 10.0682 1.35588 C 10.07 1.35 10.07 1.35 10.07676 1.35341 C 10.08 1.35 10.08 1.35 10.0849 1.35138 C 10.09 1.35 10.09 1.35 10.09264 1.34976 C 10.1 1.35 10.1 1.35 10.10001 1.34854 C 10.1 1.35 10.1 1.35 10.10703 1.34769 C 10.11 1.35 10.11 1.35 10.11371 1.3472 C 10.12 1.35 10.12 1.35 10.12006 1.34704 C 10.12 1.35 10.12 1.35 10.12611 1.34719 C 10.13 1.35 10.13 1.35 10.13187 1.34766 C 10.13 1.35 10.14 1.35 10.13735 1.34841 C 10.14 1.35 10.14 1.35 10.14751 1.35072 C 10.15 1.35 10.15 1.35 10.15668 1.35404 L 11.13845 -0.1496" />
    <path d="M 11.52727 -0.0646 L 9.18349 2.16459 L 5.87852 1.44215 L 5.46207 0.16328" />
    <path d="M 5.87852 -2.88746 L 5.87852 1.44215" />
    <path d="M 6.8505 2.23594 L 6.15426 1.17989" />
    <path d="M 6.24364 27.90062 A 1.99 1.80105 180 0 0 10.21125 27.76713" />
    <path d="M -17.33492 22.66642 A 1.99 1.80105 180 0 0 -13.3846 22.84616" />
    <path d="M 9.18349 -2.49307 L 9.18349 2.16459" />
    <path d="M 11.52727 -3.82581 L 11.52727 -0.0646" />
    <path d="M -3.17984 -33.99606 L -3.17984 -33.56571" />
    <path d="M 5.82016 -33.99606 L 5.82016 -31.30854" />
    <path d="M -19.65681 12.29763 L -19.65681 19.10257" />
    <path d="M -17.33865 -3.63296 L -17.33865 8.44296" />
    <path d="M -19.65681 -18.32462 L -19.65681 -11.51968" />
    <path d="M 11.08026 -21.85549 L 11.08026 -16.27911" />
    <path d="M 11.08026 0.36056 L 11.08026 14.29913" />
    <path d="M 12.57742 -13.24578 L 12.57742 -6.44084" />
    <path d="M -17.33865 -18.27345 L -17.33865 -18.69876" />
    <path d="M 6.2323 -13.12101 L 6.2323 -13.54631" />
    <path d="M -0.62289 -34.17201 L -0.62289 -34.59732" />
    <path d="M 10.2123 1.26886 L 10.2123 13.5954" />
</svg>