<svg version="1.1" xmlns="http://www.w3.org/2000/svg" viewBox="-20.65664906619793 -38.19230394428412 34.23465422291131 68.6699991655112" fill="none" stroke="black" stroke-width="0.6%" vector-effect="non-scaling-stroke">
    <path d="M -14.90646 -21.50759 A 13 11.77 360 0 1 -3.15604 -32.68943 A 4.5 4.07423 360 0 1 -3.18101 -33.11807 A 4.5 4.07423 360 0 1 5.81899 -33.11807 A 4.5 4.07423 360 0 1 5.08498 -30.88794 A 13 11.77 360 0 1 11.08012 -20.97276 A 13 11.77 360 0 1 9.90551 -16.08368 A 4.5 4.07423 360 0 1 12.578 -12.36055 A 4.5 4.07423 360 0 1 4.06182 -10.52276 A 13 11.77 360 0 1 -12.50913 -14.14518 A 4.5 4.07423 360 0 1 -19.65665 -17.43967 A 4.5 4.07423 360 0 1 -14.90646 -21.50759 Z" />
    <path d="M -17.33849 -17.38846 A 1.99 1.80172 180 0 0 -13.35849 -17.38846 L -13.35849 -18.66224 A 1.99 1.80172 360 0 1 -17.33849 -18.66224 A 1.99 1.80172 360 0 1 -13.43971 -19.17172 A 1.99 1.80172 360 0 1 -13.35849 -18.66224" />
    <path d="M 6.2329 -12.23574 A 1.99 1.80172 180 0 0 10.2129 -12.23574 L 10.2129 -13.50952 A 1.99 1.80172 360 0 1 6.2329 -13.50952 A 1.99 1.80172 360 0 1 6.78118 -14.75142 A 1.99 1.80172 360 0 1 10.2129 -13.50952" />
    <path d="M 0.89888 -31.5427 A 1.99 1.80172 180 0 0 3.35593 -33.29409 L 3.35593 -34.56787 A 1.99 1.80172 360 0 1 0.89888 -32.81648 A 1.99 1.80172 360 0 1 -0.62407 -34.56787 A 1.99 1.80172 360 1 1 3.35593 -34.56787" />
    <path d="M -0.62407 -33.29409 A 1.99 1.80172 180 0 0 0.89888 -31.5427" />
    <path d="M 3.58012 -20.97276 A 5.5 4.97961 360 0 1 -7.41988 -20.97276" />
    <path d="M -19.65665 19.07531 A 4.5 4.07423 180 0 0 -12.50913 22.36979" />
    <path d="M 4.06182 25.99221 A 4.5 4.07423 180 0 0 12.578 24.15442" />
    <path d="M 4.06182 25.99221 A 13 11.77 360 0 1 -12.50913 22.36979" />
    <path d="M -12.50913 15.57631 A 4.5 4.07423 360 0 1 -19.65665 12.28183 A 4.5 4.07423 360 0 1 -18.65352 9.71751" />
    <path d="M -12.50913 15.57631 L -12.50913 22.36979" />
    <path d="M -12.50913 15.57631 A 13 11.77 360 0 1 -13.37163 14.31942" />
    <path d="M -14.38704 15.2857 L -13.37163 14.31942" />
    <path d="M -17.69207 14.56322 L -14.38704 15.2857 L -14.38704 -6.63198" />
    <path d="M -18.65352 11.61055 L -17.69207 14.56322" />
    <path d="M -19.65665 -10.64618 A 4.5 4.07423 180 0 0 -12.50913 -7.3517" />
    <path d="M -12.50913 -14.14518 L -12.50913 -7.3517" />
    <path d="M 4.06182 -10.52276 L 4.06182 -3.72928 A 4.5 4.07423 180 0 0 12.578 -5.56707" />
    <path d="M -13.37163 -6.9062 L -13.37163 14.31942" />
    <path d="M 5.46275 -2.25153 L 5.46275 18.43663 L 5.87931 19.71594 L 9.18434 20.43842 L 11.52793 18.20824" />
    <path d="M 4.06182 19.19873 A 13 11.77 180 0 0 5.46275 18.43663" />
    <path d="M 4.06182 19.19873 L 4.06182 25.99221" />
    <path d="M 11.52793 14.74502 A 4.5 4.07423 360 0 1 12.578 17.36094 L 12.578 24.15442" />
    <path d="M 12.578 17.36094 A 4.5 4.07423 360 0 1 4.06182 19.19873" />
    <path d="M 6.24513 27.87538 A 1.99 1.80172 180 0 0 10.21158 27.7416" />
    <path d="M -17.33425 22.64074 A 1.99 1.80172 180 0 0 -13.38581 22.82082" />
    <path d="M -17.69207 -7.28019 L -17.69207 14.56322" />
    <path d="M -18.65352 -8.08186 L -18.65352 11.61055" />
    <path d="M 5.87931 -2.01227 L 5.87931 19.71594" />
    <path d="M -5.90455 -25.25435 A 5.5 4.97961 360 0 1 3.58012 -21.82195 L 3.58012 -20.97276" />
    <path d="M 3.58012 -21.82195 A 5.5 4.97961 360 0 1 -7.41988 -21.82195 L -7.41988 -20.97276" />
    <path d="M -7.41988 -21.82195 A 5.5 4.97961 360 0 1 -5.90455 -25.25435" />
    <path d="M 11.52793 -2.95115 L 11.52793 18.20824" />
    <path d="M 9.18434 -1.61789 L 9.18434 20.43842" />
    <path d="M -3.18101 -33.11807 L -3.18101 -32.68725" />
    <path d="M 5.81899 -33.11807 L 5.81899 -30.43001" />
    <path d="M -19.65665 12.28183 L -19.65665 19.07531" />
    <path d="M -19.65665 -17.43967 L -19.65665 -10.64618" />
    <path d="M 11.08012 -20.97276 L 11.08012 -15.39559" />
    <path d="M 12.578 -12.36055 L 12.578 -5.56707" />
    <path d="M -17.33849 -17.38846 L -17.33849 -18.66224" />
    <path d="M 6.2329 -12.23574 L 6.2329 -13.50952" />
    <path d="M -0.62407 -33.29409 L -0.62407 -34.56787" />
</svg>