<svg version="1.1" xmlns="http://www.w3.org/2000/svg" viewBox="-20.49281635216868 -37.7464888624994 34.18962074440742 69.62805850932645" fill="none" stroke="black" stroke-width="0.6%" vector-effect="non-scaling-stroke">
    <path d="M -15.20763 -21.49936 A 13.5 11.97327 0 0 1 -2.88049 -32.81037 A 4.5 3.99109 0 0 1 6.11908 -32.7554 A 4.5 3.99109 0 0 1 5.61916 -30.92712 A 13.5 11.97327 0 0 1 11.77436 -20.88098 A 13.5 11.97327 0 0 1 10.50027 -15.80331 A 4.5 3.99109 0 0 1 12.6968 -12.37474 A 4.5 3.99109 0 0 1 4.41154 -10.21647 A 13.5 11.97327 0 0 1 -12.79671 -14.02927 A 4.5 3.99109 0 0 1 -19.49282 -17.51281 A 4.5 3.99109 0 0 1 -15.20763 -21.49936 Z" />
    <path d="M 10.33061 -12.25146 A 1.99 1.76495 0 0 1 6.35061 -12.25146" />
    <path d="M -13.19509 -17.464 A 1.99 1.76495 0 0 1 -17.17509 -17.464" />
    <path d="M 7.87436 -20.88098 A 9.6 8.51433 0 0 1 -11.32564 -20.88098" />
    <path d="M 1.18524 -31.21516 A 1.99 1.76495 0 0 1 -0.32244 -32.92749" />
    <path d="M 3.65756 -32.92749 A 1.99 1.76495 0 0 1 1.18524 -31.21516" />
    <path d="M -19.49282 21.7524 A 4.5 3.99109 180 0 0 -12.79671 25.23595" />
    <path d="M 4.41154 29.04874 A 4.5 3.99109 180 0 0 12.6968 26.89048" />
    <path d="M 4.41154 29.04874 A 13.5 11.97327 0 0 1 -12.79671 25.23595" />
    <path d="M -12.79671 17.84485 A 4.5 3.99109 0 0 1 -19.49282 14.3613 A 4.5 3.99109 0 0 1 -18.48372 11.84279" />
    <path d="M -12.79671 17.84485 L -12.79671 25.23595" />
    <path d="M -12.79671 17.84485 A 13.5 11.97327 0 0 1 -13.59065 16.70469" />
    <path d="M -14.24944 17.30918 L -13.59065 16.70469" />
    <path d="M -17.54806 16.57831 L -14.24944 17.30918 L -14.24944 13.61363 L -13.59065 13.00914 L -13.59065 16.70469" />
    <path d="M -18.48372 13.67925 L -17.54806 16.57831 L -17.54806 12.88276 L -14.24944 13.61363" />
    <path d="M -18.48372 9.9837 L -17.54806 12.88276" />
    <path d="M -17.17509 8.78294 L -18.48372 9.9837" />
    <path d="M -14.05778 12.16901 A 1.99 1.76495 0 0 1 -17.17509 10.71457" />
    <path d="M -13.59065 13.00914 A 13.5 11.97327 0 0 1 -14.05778 12.16901" />
    <path d="M -14.05778 -3.19221 L -14.05778 12.16901" />
    <path d="M -18.48372 -6.64628 L -17.54806 -3.74721 L -17.54806 -6.83647" />
    <path d="M -14.24944 -3.01635 L -13.59065 -3.62083" />
    <path d="M -17.54806 -3.74721 L -14.24944 -3.01635 L -14.24944 -6.18546" />
    <path d="M -19.49282 -10.12171 A 4.5 3.99109 180 0 0 -12.79671 -6.63817" />
    <path d="M -12.79671 -14.02927 L -12.79671 -6.63817" />
    <path d="M 4.41154 -10.21647 L 4.41154 -2.82538 A 4.5 3.99109 180 0 0 12.6968 -4.98364" />
    <path d="M -13.59065 -6.32932 L -13.59065 -3.62083" />
    <path d="M 5.71678 -1.65336 L 5.71678 0.65707 L 5.97764 1.46532 L 5.97764 -1.51161" />
    <path d="M 6.57451 1.59757 L 6.57451 16.74046 A 13.5 11.97327 0 0 1 5.71678 17.28705 L 5.97764 18.0953 L 9.27626 18.82617 L 11.63923 16.65798 L 10.70358 13.75891 L 10.33061 13.67628" />
    <path d="M 5.71678 17.28705 L 5.71678 20.9826 L 5.97764 21.79085 L 5.97764 18.0953" />
    <path d="M 4.41154 21.65764 A 13.5 11.97327 180 0 0 5.71678 20.9826" />
    <path d="M 4.41154 21.65764 L 4.41154 29.04874" />
    <path d="M 6.90976 -13.94003 A 1.99 1.76495 0 0 1 10.33061 -12.7134 L 10.33061 -12.25146" />
    <path d="M 10.33061 -12.7134 A 1.99 1.76495 0 0 1 6.35061 -12.7134 L 6.35061 -12.25146" />
    <path d="M 6.35061 -12.7134 A 1.99 1.76495 0 0 1 6.90976 -13.94003" />
    <path d="M -13.27193 -18.41164 A 1.99 1.76495 0 0 1 -13.19509 -17.92594 L -13.19509 -17.464" />
    <path d="M -13.19509 -17.92594 A 1.99 1.76495 0 0 1 -17.17509 -17.92594 L -17.17509 -17.464" />
    <path d="M -17.17509 -17.92594 A 1.99 1.76495 0 0 1 -13.27193 -18.41164" />
    <path d="M -8.62821 -27.72226 A 9.6 8.51433 0 0 1 7.87436 -21.80487 L 7.87436 -20.88098" />
    <path d="M 7.87436 -21.80487 A 9.6 8.51433 0 0 1 -11.32564 -21.80487 L -11.32564 -20.88098" />
    <path d="M -11.32564 -21.80487 A 9.6 8.51433 0 0 1 -8.62821 -27.72226" />
    <path d="M 1.18524 -31.67711 A 1.99 1.76495 0 0 1 -0.32244 -33.38943 L -0.32244 -32.92749" />
    <path d="M -0.32244 -33.38943 A 1.99 1.76495 0 1 1 3.65756 -33.38943 L 3.65756 -32.92749" />
    <path d="M 3.65756 -33.38943 A 1.99 1.76495 0 0 1 1.18524 -31.67711" />
    <path d="M 11.63923 16.92892 A 4.5 3.99109 0 0 1 12.6968 19.49938 L 12.6968 26.89048" />
    <path d="M 12.6968 19.49938 A 4.5 3.99109 0 0 1 4.41154 21.65764" />
    <path d="M -18.48372 13.67925 L -18.48372 9.9837" />
    <path d="M -18.48372 -6.64628 L -18.48372 -7.6032" />
    <path d="M 9.27626 22.52172 L 11.63923 20.35353 L 11.63923 16.65798" />
    <path d="M 5.97764 21.79085 L 9.27626 22.52172 L 9.27626 18.82617" />
    <path d="M 10.33061 15.92711 A 1.99 1.76495 0 0 1 6.57451 16.74046" />
    <path d="M 9.27626 2.19619 L 11.63923 0.028 L 11.63923 -2.41318" />
    <path d="M 5.97764 1.46532 L 9.27626 2.19619 L 9.27626 -1.10908" />
    <path d="M 6.11908 -32.7554 L 6.11908 -30.6253" />
    <path d="M -19.49282 14.3613 L -19.49282 21.7524" />
    <path d="M -17.17509 -3.66458 L -17.17509 10.71457" />
    <path d="M -19.49282 -17.51281 L -19.49282 -10.12171" />
    <path d="M 11.77436 -20.88098 L 11.77436 -14.79571" />
    <path d="M 11.77436 -2.56267 L 11.77436 17.07841" />
    <path d="M 12.6968 -12.37474 L 12.6968 -4.98364" />
    <path d="M 10.33061 1.22876 L 10.33061 15.92711" />
</svg>