<svg version="1.1" xmlns="http://www.w3.org/2000/svg" viewBox="-20.49281966937006 -38.14787858633368 34.18961172070459 70.25419650570798" fill="none" stroke="black" stroke-width="0.6%" vector-effect="non-scaling-stroke">
    <path d="M 3.66758 -33.35784 A 2 1.76037 360 0 1 3.47556 -32.60518" />
    <path d="M -0.32638 -33.45848 A 2 1.76037 360 0 1 -0.33242 -33.59515 A 2 1.76037 360 0 1 3.66758 -33.59515 A 2 1.76037 360 0 1 3.35425 -32.64915 A 13.5 11.88249 360 0 1 11.77436 -21.63999 A 13.5 11.88249 360 0 1 9.2031 -14.66415 A 2 1.76037 360 0 1 10.34059 -13.07589 A 2 1.76037 360 0 1 6.56647 -12.26321 A 13.5 11.88249 360 0 1 -14.05364 -16.79735 L -14.05364 -16.56003 A 2 1.76037 360 0 1 -17.1851 -18.01162" />
    <path d="M -15.09765 -20.00762 A 13.5 11.88249 360 0 1 -15.22564 -21.63999 A 13.5 11.88249 360 0 1 -0.32638 -33.45848" />
    <path d="M -15.13242 -20.00869 A 13.5 11.88249 360 0 1 -15.22564 -21.40268" />
    <path d="M -2.86858 -33.47982 A 4.5 3.96083 360 0 1 6.11911 -33.18705 A 4.5 3.96083 360 0 1 5.71824 -31.55286" />
    <path d="M 11.77436 18.70373 A 13.5 11.88249 360 0 1 11.70377 19.91725" />
    <path d="M 10.34059 19.28641 A 13.5 11.88249 180 0 0 10.50026 18.99659 A 4.5 3.96083 360 0 1 12.69679 22.39917 L 12.69679 27.14549" />
    <path d="M 10.50026 -16.36349 A 13.5 11.88249 360 0 1 9.34262 -14.59938" />
    <path d="M -14.05364 -16.79735 A 2 1.76037 360 0 1 -17.1851 -18.24894 A 2 1.76037 360 0 1 -15.09765 -20.00762" />
    <path d="M -19.49282 22.04634 A 4.5 3.96083 180 0 0 -12.79672 25.50347" />
    <path d="M 4.41152 29.28738 A 4.5 3.96083 180 0 0 12.69679 27.14549" />
    <path d="M 4.41152 29.28738 A 13.5 11.88249 360 0 1 -12.79672 25.50347" />
    <path d="M -12.79672 20.75715 A 4.5 3.96083 360 0 1 -19.49282 17.30002 L -19.49282 22.04634" />
    <path d="M -19.49282 17.30002 A 4.5 3.96083 360 0 1 -17.1851 13.84101" />
    <path d="M -12.79672 20.75715 L -12.79672 25.50347" />
    <path d="M -12.79672 20.75715 A 13.5 11.88249 360 0 1 -14.05364 18.80005 A 2 1.76037 360 0 1 -17.1851 17.34846" />
    <path d="M -14.05364 -9.44014 L -14.05364 18.80005" />
    <path d="M -19.49282 -13.31374 A 4.5 3.96083 180 0 0 -12.79672 -9.85661" />
    <path d="M -12.79672 -14.60293 A 4.5 3.96083 360 0 1 -19.49282 -18.06006 L -19.49282 -13.31374" />
    <path d="M -19.49282 -18.06006 A 4.5 3.96083 360 0 1 -15.21888 -22.01589" />
    <path d="M -12.79672 -14.60293 L -12.79672 -9.85661" />
    <path d="M -12.79672 -14.60293 A 13.5 11.88249 360 0 1 -14.05364 -16.56003" />
    <path d="M 4.41152 24.54106 L 4.41152 29.28738" />
    <path d="M 12.69679 22.39917 A 4.5 3.96083 360 0 1 4.41152 24.54106 A 13.5 11.88249 180 0 0 6.56647 23.33419" />
    <path d="M 10.34059 22.52151 A 2 1.76037 360 0 1 6.56647 23.33419" />
    <path d="M 6.56647 -4.52285 L 6.56647 23.33419" />
    <path d="M 4.41152 -6.0727 A 4.5 3.96083 180 0 0 12.69679 -8.2146" />
    <path d="M 4.41152 -10.81902 L 4.41152 -6.0727" />
    <path d="M 10.50026 -16.36349 A 4.5 3.96083 360 0 1 12.69679 -12.96092 L 12.69679 -8.2146" />
    <path d="M 12.69679 -12.96092 A 4.5 3.96083 360 0 1 4.41152 -10.81902" />
    <path d="M 10.34059 -12.83857 A 2 1.76037 360 0 1 6.56647 -12.02589 A 13.5 11.88249 360 0 1 4.41152 -10.81902" />
    <path d="M 6.56647 -12.26321 L 6.56647 -12.02589" />
    <path d="M -0.33242 -33.59515 L -0.33242 -33.45903" />
    <path d="M 3.66758 -33.59515 L 3.66758 -33.35784" />
    <path d="M -15.22564 -21.63999 L -15.22564 -21.40268" />
    <path d="M 11.77436 -21.63999 L 11.77436 -15.36351" />
    <path d="M 11.77436 -5.812 L 11.77436 18.70373" />
    <path d="M 6.11911 -33.18705 L 6.11911 -31.31041" />
    <path d="M -17.1851 -9.85473 L -17.1851 17.34846" />
    <path d="M -17.1851 -18.24894 L -17.1851 -18.01162" />
    <path d="M 10.34059 -4.73212 L 10.34059 22.52151" />
    <path d="M 10.34059 -13.07589 L 10.34059 -12.83857" />
</svg>