<svg version="1.1" xmlns="http://www.w3.org/2000/svg" viewBox="-20.65664906619792 -38.50543948047876 34.2346542229113 68.75185180860774" fill="none" stroke="black" stroke-width="0.6%" vector-effect="non-scaling-stroke">
    <path d="M -14.90646 -21.9434 A 13 11.67795 360 0 1 -3.15604 -33.03778 A 4.5 4.04237 0 0 1 -3.18101 -33.46307 A 4.5 4.04237 0 0 1 5.81899 -33.46307 A 4.5 4.04237 0 0 1 5.08498 -31.25038 A 13 11.67795 360 0 1 11.08012 -21.41275 A 13 11.67795 360 0 1 9.90551 -16.5619 A 4.5 4.04237 360 0 1 12.578 -12.86789 A 4.5 4.04237 360 0 1 4.06182 -11.04447 A 13 11.67795 360 0 1 -12.50913 -14.63857 L -12.50913 -7.60856" />
    <path d="M -12.50913 -14.63857 A 4.5 4.04237 360 0 1 -19.65665 -17.90728 A 4.5 4.04237 360 0 1 -14.90646 -21.9434" />
    <path d="M 7.73012 -21.41275 A 9.65 8.66863 360 0 1 -11.56988 -21.41275" />
    <path d="M -19.65665 20.09868 A 4.5 4.04237 180 0 0 -12.50913 23.3674" />
    <path d="M 4.06182 26.96149 A 4.5 4.04237 180 0 0 12.578 25.13807" />
    <path d="M 4.06182 26.96149 A 13 11.67795 360 0 1 -12.50913 23.3674" />
    <path d="M -12.50913 16.33739 A 4.5 4.04237 360 0 1 -19.65665 13.06868 A 4.5 4.04237 360 0 1 -18.65352 10.52441" />
    <path d="M -12.50913 16.33739 L -12.50913 23.3674" />
    <path d="M -12.50913 16.33739 A 13 11.67795 360 0 1 -13.37163 15.09033" />
    <path d="M -14.38704 16.04906 L -13.37163 15.09033" />
    <path d="M -17.69207 15.33223 L -14.38704 16.04906 L -14.38704 -6.89447" />
    <path d="M -18.65352 12.40265 L -17.69207 15.33223" />
    <path d="M -19.65665 -10.87728 A 4.5 4.04237 180 0 0 -12.50913 -7.60856" />
    <path d="M 4.06182 -11.04447 L 4.06182 -4.01447 A 4.5 4.04237 180 0 0 12.578 -5.83789" />
    <path d="M -13.37163 -7.16654 L -13.37163 15.09033" />
    <path d="M 5.46275 -2.54828 L 5.46275 19.17534 L 5.87931 20.44465 L 9.18434 21.16148 L 11.52793 18.94874" />
    <path d="M 4.06182 19.93149 A 13 11.67795 180 0 0 5.46275 19.17534" />
    <path d="M 4.06182 19.93149 L 4.06182 26.96149" />
    <path d="M -8.91116 -28.04702 A 9.65 8.66863 360 0 1 7.73012 -22.07181 L 7.73012 -21.41275" />
    <path d="M 7.73012 -22.07181 A 9.65 8.66863 360 0 1 -11.56988 -22.07181 L -11.56988 -21.41275" />
    <path d="M -11.56988 -22.07181 A 9.65 8.66863 360 0 1 -8.91116 -28.04702" />
    <path d="M 11.52793 15.51261 A 4.5 4.04237 360 0 1 12.578 18.10807 L 12.578 25.13807" />
    <path d="M 12.578 18.10807 A 4.5 4.04237 360 0 1 4.06182 19.93149" />
    <path d="M 7.60496 29.15804 A 1.99 1.78762 180 0 0 9.04849 29.08531" />
    <path d="M -17.69207 -7.53762 L -17.69207 15.33223" />
    <path d="M -18.65352 -8.33301 L -18.65352 12.40265" />
    <path d="M 5.87931 -2.31089 L 5.87931 20.44465" />
    <path d="M 11.52793 -3.24243 L 11.52793 18.94874" />
    <path d="M 9.18434 -1.91959 L 9.18434 21.16148" />
    <path d="M -3.18101 -33.46307 L -3.18101 -33.03562" />
    <path d="M 5.81899 -33.46307 L 5.81899 -30.79604" />
    <path d="M -19.65665 13.06868 L -19.65665 20.09868" />
    <path d="M -19.65665 -17.90728 L -19.65665 -10.87728" />
    <path d="M 11.08012 -21.41275 L 11.08012 -15.8792" />
    <path d="M 12.578 -12.86789 L 12.578 -5.83789" />
</svg>