<svg version="1.1" xmlns="http://www.w3.org/2000/svg" viewBox="-20.49281966937006 -36.355521740467466 34.18961172070458 68.46183965984176" fill="none" stroke="black" stroke-width="0.6%" vector-effect="non-scaling-stroke">
    <path d="M -0.32638 -33.45848 A 2 1.76037 360 0 1 -0.33242 -33.59515 A 2 1.76037 360 1 1 3.66758 -33.59515 A 2 1.76037 360 0 1 3.35425 -32.64915 A 13.5 11.88249 360 0 1 11.77436 -21.63999 A 13.5 11.88249 360 0 1 9.2031 -14.66415 A 2 1.76037 360 0 1 10.34059 -13.07589 A 2 1.76037 360 0 1 6.56647 -12.26321 L 6.56647 23.33419 A 13.5 11.88249 360 0 1 4.41152 24.54106 L 4.41152 29.28738" />
    <path d="M -15.09765 -20.00762 A 13.5 11.88249 360 0 1 -15.22564 -21.63999 A 13.5 11.88249 360 0 1 -0.32638 -33.45848" />
    <path d="M 11.70377 19.91725 A 13.5 11.88249 180 0 0 11.77436 18.70373" />
    <path d="M 10.50026 18.99659 A 13.5 11.88249 360 0 1 10.34059 19.28641" />
    <path d="M 6.56647 -12.26321 A 13.5 11.88249 360 0 1 -14.05364 -16.79735 L -14.05364 18.80005 A 2 1.76037 0 0 1 -17.1851 17.34846" />
    <path d="M -14.05364 -16.79735 A 2 1.76037 0 0 1 -17.1851 -18.24894 L -17.1851 17.34846" />
    <path d="M -17.1851 -18.24894 A 2 1.76037 0 0 1 -15.09765 -20.00762" />
    <path d="M 12.69679 27.14549 A 4.5 3.96083 0 0 1 4.41152 29.28738" />
    <path d="M -12.79672 25.50347 A 13.5 11.88249 180 0 0 4.41152 29.28738" />
    <path d="M -12.79672 25.50347 A 4.5 3.96083 360 0 1 -19.49282 22.04634" />
    <path d="M -12.79672 20.75715 L -12.79672 25.50347" />
    <path d="M -12.79672 20.75715 A 4.5 3.96083 360 0 1 -19.49282 17.30002 L -19.49282 22.04634" />
    <path d="M -19.49282 17.30002 A 4.5 3.96083 360 0 1 -17.1851 13.84101" />
    <path d="M -12.79672 20.75715 A 13.5 11.88249 360 0 1 -14.05364 18.80005" />
    <path d="M 10.50026 18.99659 A 4.5 3.96083 360 0 1 12.69679 22.39917 L 12.69679 27.14549" />
    <path d="M 12.69679 22.39917 A 4.5 3.96083 360 0 1 4.41152 24.54106" />
    <path d="M 10.34059 22.52151 A 2 1.76037 360 0 1 6.56647 23.33419" />
    <path d="M -0.33242 -33.59515 L -0.33242 -33.45903" />
    <path d="M 3.66758 -33.59515 L 3.66758 -32.53307" />
    <path d="M -15.22564 -21.63999 L -15.22564 -20.00894" />
    <path d="M 11.77436 -21.63999 L 11.77436 18.70373" />
    <path d="M 10.34059 -13.07589 L 10.34059 22.52151" />
</svg>