<svg version="1.1" xmlns="http://www.w3.org/2000/svg" viewBox="-19.105626806044175 -38.05163599714416 38.000002 72.84417743121446" fill="none" stroke="black" stroke-width="0.6%" vector-effect="non-scaling-stroke">
    <path d="M 11.55804 -16.46676 A 4.5 3.93244 0 0 1 14.11195 -12.92107 A 4.5 3.93244 0 0 1 5.53854 -11.24985 A 13 11.36038 360 0 1 -10.90929 -15.16506 A 4.5 3.93244 0 0 1 -17.95008 -18.4107 A 4.5 3.93244 0 0 1 -13.06958 -22.32906 A 13 11.36038 360 0 1 -0.96563 -32.81915 A 4.5 3.93244 0 0 1 -0.97874 -33.11919 A 4.5 3.93244 0 0 1 8.02126 -33.11919 A 4.5 3.93244 0 0 1 7.21416 -30.87205 A 13 11.36038 360 0 1 12.89437 -21.48366 A 13 11.36038 360 0 1 11.55804 -16.46676 Z" />
    <path d="M 11.74278 -12.79697 A 1.99 1.73901 0 0 1 7.76278 -12.79697 L 7.76278 -13.76927 A 1.99 1.73901 360 0 1 8.35148 -15.00402 A 1.99 1.73901 360 0 1 11.74278 -13.76927 A 1.99 1.73901 360 0 1 7.76278 -13.76927" />
    <path d="M -11.65348 -18.36617 A 1.99 1.73901 360 0 1 -15.63348 -18.36617 L -15.63348 -19.33847 A 1.99 1.73901 360 0 1 -11.71917 -19.7816 A 1.99 1.73901 360 0 1 -11.65348 -19.33847 A 1.99 1.73901 360 0 1 -15.63348 -19.33847" />
    <path d="M 3.05081 -31.60995 A 1.99 1.73901 0 0 1 1.58382 -33.28783 L 1.58382 -34.26013 A 1.99 1.73901 0 0 1 5.56382 -34.26013 A 1.99 1.73901 0 0 1 3.05081 -32.58225 A 1.99 1.73901 0 0 1 1.58382 -34.26013" />
    <path d="M 5.56382 -33.28783 A 1.99 1.73901 0 0 1 3.05081 -31.60995" />
    <path d="M 5.53854 -1.52686 A 4.5 3.93244 180 0 0 14.11195 -3.19808 L 14.11195 -12.92107" />
    <path d="M 5.53854 -11.24985 L 5.53854 -1.52686" />
    <path d="M 6.96331 21.10859 A 13 11.36038 360 0 1 -11.73114 16.6586 L -12.7771 17.5651 L -12.7771 -4.7995" />
    <path d="M -11.73114 -5.05348 L -11.73114 16.6586" />
    <path d="M -10.90929 -15.16506 L -10.90929 -5.44207" />
    <path d="M 6.96331 -0.01896 L 6.96331 21.10859" />
    <path d="M -16.92395 5.96918 A 18 15.72976 180 0 0 -17.88953 14.00456" />
    <path d="M 13.03326 0.82302 A 18 15.72976 360 0 1 13.81123 21.55054 A 4.5 3.93244 360 0 1 11.19454 23.81834 A 18 15.72976 360 0 1 7.78586 25.71199 A 18 15.72976 360 0 1 -7.99711 25.71199 A 18 15.72976 360 0 1 -16.95045 17.11876 A 4.5 3.93244 360 0 1 -17.95008 14.64747 L -17.95008 24.37046 A 4.5 3.93244 180 0 0 -10.90929 27.61611 A 13 11.36038 180 0 0 5.53854 31.53132 A 4.5 3.93244 180 0 0 14.11195 29.8601" />
    <path d="M -17.95008 14.64747 A 4.5 3.93244 360 0 1 -17.88953 14.00456" />
    <path d="M 7.33868 22.35342 L 6.96331 21.10859" />
    <path d="M 10.61916 23.1343 L 7.33868 22.35342" />
    <path d="M 13.03326 21.04208 L 10.61916 23.1343" />
    <path d="M -16.05758 16.78423 L -16.92395 13.91113" />
    <path d="M -12.7771 17.5651 L -16.05758 16.78423" />
    <path d="M 7.33868 0.1957 L 7.33868 22.35342" />
    <path d="M 10.61916 0.6346 L 10.61916 23.1343" />
    <path d="M 13.03326 -0.64363 L 13.03326 21.04208" />
    <path d="M -17.95008 -8.68771 A 4.5 3.93244 180 0 0 -10.90929 -5.44207" />
    <path d="M 5.53854 26.66982 A 13 11.36038 360 0 1 -5.80503 26.64641 L -7.99711 25.71199" />
    <path d="M 5.94918 26.49492 C 5.93 26.5 5.91 26.51 5.89059 26.51988 C 5.87 26.53 5.85 26.54 5.83409 26.54395 C 5.82 26.55 5.8 26.56 5.77967 26.56712 C 5.76 26.57 5.74 26.58 5.72732 26.5894 C 5.71 26.6 5.69 26.6 5.67704 26.61081 C 5.66 26.62 5.64 26.62 5.62881 26.63135 C 5.61 26.64 5.6 26.64 5.58265 26.65102 C 5.57 26.66 5.55 26.66 5.53854 26.66982 L 5.53854 31.53132" />
    <path d="M -16.05758 -5.48273 L -16.05758 16.78423" />
    <path d="M -16.92395 -6.18803 L -16.92395 13.91113" />
    <path d="M -10.90929 24.15592 L -10.90929 27.61611" />
    <path d="M 11.74278 -12.79697 L 11.74278 -13.76927" />
    <path d="M 12.89437 -21.48366 L 12.89437 -15.61108" />
    <path d="M -11.65348 -18.36617 L -11.65348 -19.33847" />
    <path d="M 5.56382 -33.28783 L 5.56382 -34.26013" />
    <path d="M 8.02126 -30.35054 L 8.02126 -33.11919" />
    <path d="M -0.97874 -32.81839 L -0.97874 -33.11919" />
    <path d="M -17.95008 -8.68771 L -17.95008 -18.4107" />
    <path d="M 5.94918 26.49492 L 7.78586 25.71199" />
    <path d="M 14.11195 21.22127 L 14.11195 29.8601" />
</svg>