<svg version="1.1" xmlns="http://www.w3.org/2000/svg" viewBox="-20.49281635216868 -38.3949745728377 34.189620744407414 71.93953785176582" fill="none" stroke="black" stroke-width="0.6%" vector-effect="non-scaling-stroke">
    <path d="M -13.19509 -18.58049 A 13.5 12.56948 0 0 1 -2.88049 -24.47418 A 4.5 4.18983 360 0 1 -0.32244 -28.19626" />
    <path d="M 3.65756 -28.15175 A 4.5 4.18983 360 0 1 6.11908 -24.41647 A 4.5 4.18983 360 0 1 5.61916 -22.49715 A 13.5 12.56948 360 0 1 11.77436 -11.95077 A 13.5 12.56948 360 0 1 10.50027 -6.62026 A 4.5 4.18983 360 0 1 12.6968 -3.02096 A 4.5 4.18983 360 0 1 4.41154 -0.75522 A 13.5 12.56948 360 0 1 -12.79671 -4.75788 A 4.5 4.18983 0 0 1 -19.49282 -8.41488 A 4.5 4.18983 0 0 1 -17.17509 -12.07906" />
    <path d="M 10.33061 -2.89154 A 1.99 1.85283 360 0 1 6.35061 -2.89154" />
    <path d="M -13.19509 -8.36364 A 1.99 1.85283 0 0 1 -17.17509 -8.36364" />
    <path d="M 6.35061 -7.03309 A 9.65 8.98485 360 0 1 -11.37564 -11.95077" />
    <path d="M 1.18524 -22.79954 A 1.99 1.85283 360 0 1 -0.32244 -24.59713" />
    <path d="M 3.65756 -24.59713 A 1.99 1.85283 360 0 1 1.18524 -22.79954" />
    <path d="M -19.49282 22.96081 A 4.5 4.18983 180 0 0 -12.79671 26.61782" />
    <path d="M 11.77436 19.42492 A 13.5 12.56948 360 0 1 11.76208 19.96096" />
    <path d="M 4.41154 30.62047 A 4.5 4.18983 180 0 0 12.6968 28.35474" />
    <path d="M 4.41154 30.62047 A 13.5 12.56948 360 0 1 -12.79671 26.61782" />
    <path d="M -12.79671 20.78048 A 4.5 4.18983 0 0 1 -19.49282 17.12347 L -19.49282 22.96081" />
    <path d="M -19.49282 17.12347 A 4.5 4.18983 0 0 1 -18.48372 14.47955" />
    <path d="M -12.79671 20.78048 L -12.79671 26.61782" />
    <path d="M -12.79671 20.78048 A 13.5 12.56948 360 0 1 -13.59065 19.58355" />
    <path d="M -14.24944 20.21814 L -13.59065 19.58355" />
    <path d="M -17.54806 19.45087 L -14.24944 20.21814 L -14.24944 1.55472" />
    <path d="M -18.48372 16.40745 L -17.54806 19.45087" />
    <path d="M -19.49282 -2.57754 A 4.5 4.18983 180 0 0 -12.79671 1.07946" />
    <path d="M -12.79671 -4.75788 L -12.79671 1.07946" />
    <path d="M 4.41154 -0.75522 L 4.41154 5.08211 A 4.5 4.18983 180 0 0 12.6968 2.81638" />
    <path d="M -13.59065 1.4037 L -13.59065 19.58355" />
    <path d="M 5.71678 6.31249 L 5.71678 24.07447 L 5.97764 24.92297 L 9.27626 25.69023 L 11.63923 23.41408" />
    <path d="M 4.41154 24.78313 A 13.5 12.56948 180 0 0 5.71678 24.07447" />
    <path d="M 4.41154 24.78313 L 4.41154 30.62047" />
    <path d="M 6.90976 -15.12426 A 1.99 1.85283 360 0 1 10.33061 -13.83655 L 10.33061 -2.89154" />
    <path d="M 10.33061 -13.83655 A 1.99 1.85283 360 0 1 6.35061 -13.83655 L 6.35061 -2.89154" />
    <path d="M 6.35061 -13.83655 A 1.99 1.85283 360 0 1 6.90976 -15.12426" />
    <path d="M -13.27193 -19.81853 A 1.99 1.85283 0 0 1 -13.19509 -19.30865 L -13.19509 -8.36364" />
    <path d="M -13.19509 -19.30865 A 1.99 1.85283 0 0 1 -17.17509 -19.30865 L -17.17509 -8.36364" />
    <path d="M -17.17509 -19.30865 A 1.99 1.85283 0 0 1 -13.27193 -19.81853" />
    <path d="M -8.66416 -18.56 A 9.65 8.98485 360 0 1 7.32592 -15.43043" />
    <path d="M 6.35061 -7.39793 A 9.65 8.98485 360 0 1 -11.37564 -12.3156 L -11.37564 -11.95077" />
    <path d="M -11.37564 -12.3156 A 9.65 8.98485 360 0 1 -8.66416 -18.56" />
    <path d="M 1.18524 -33.74455 A 1.99 1.85283 360 0 1 -0.32244 -35.54214 L -0.32244 -24.59713" />
    <path d="M -0.32244 -35.54214 A 1.99 1.85283 360 0 1 3.65756 -35.54214 L 3.65756 -24.59713" />
    <path d="M 3.65756 -35.54214 A 1.99 1.85283 360 0 1 1.18524 -33.74455" />
    <path d="M 11.63923 19.81894 A 4.5 4.18983 360 0 1 12.6968 22.5174 L 12.6968 28.35474" />
    <path d="M 12.6968 22.5174 A 4.5 4.18983 360 0 1 4.41154 24.78313" />
    <path d="M -17.54806 0.87129 L -17.54806 19.45087" />
    <path d="M -18.48372 0.06637 L -18.48372 16.40745" />
    <path d="M 5.97764 6.4613 L 5.97764 24.92297" />
    <path d="M 11.63923 5.51484 L 11.63923 23.41408" />
    <path d="M 9.27626 6.88388 L 9.27626 25.69023" />
    <path d="M 6.11908 -24.41647 L 6.11908 -22.1803" />
    <path d="M -19.49282 -8.41488 L -19.49282 -2.57754" />
    <path d="M 11.77436 -11.95077 L 11.77436 -5.56248" />
    <path d="M 11.77436 5.3579 L 11.77436 19.42492" />
    <path d="M 12.6968 -3.02096 L 12.6968 2.81638" />
</svg>