<svg version="1.1" xmlns="http://www.w3.org/2000/svg" viewBox="-20.656649066197918 -36.95138779875568 34.2346542229113 67.68718851203354" fill="none" stroke="black" stroke-width="0.6%" vector-effect="non-scaling-stroke">
    <path d="M -14.90646 -20.1298 A 13 11.87271 360 0 1 -3.15604 -31.40922 A 4.5 4.10978 360 0 1 -3.18101 -31.8416 A 4.5 4.10978 360 1 1 5.81899 -31.8416 A 4.5 4.10978 360 0 1 5.08498 -29.592 A 13 11.87271 360 0 1 11.08012 -19.5903 A 13 11.87271 360 0 1 9.90551 -14.65855 A 4.5 4.10978 360 0 1 12.578 -10.90294 A 4.5 4.10978 360 0 1 4.06182 -9.0491 A 13 11.87271 360 0 1 -12.50913 -12.70314 A 4.5 4.10978 360 0 1 -19.65665 -16.02637 A 4.5 4.10978 360 0 1 -14.90646 -20.1298 Z" />
    <path d="M -17.33849 -15.97472 A 1.99 1.81744 180 0 0 -13.35849 -15.97472 L -13.35849 -16.78936 A 1.99 1.81744 360 0 1 -17.33849 -16.78936 A 1.99 1.81744 360 0 1 -13.43971 -17.30329 A 1.99 1.81744 360 0 1 -13.35849 -16.78936" />
    <path d="M 6.2329 -10.77703 A 1.99 1.81744 180 0 0 10.2129 -10.77703 L 10.2129 -11.59167 A 1.99 1.81744 360 0 1 6.2329 -11.59167 A 1.99 1.81744 360 0 1 6.78118 -12.84441 A 1.99 1.81744 360 0 1 10.2129 -11.59167" />
    <path d="M 7.73012 -19.5903 A 9.65 8.81321 360 0 1 -11.56988 -19.5903" />
    <path d="M 2.24837 -30.39018 A 1.99 1.81744 180 0 0 3.35593 -32.01916 L 3.35593 -32.8338 A 1.99 1.81744 360 0 1 0.89888 -31.06712 A 1.99 1.81744 360 0 1 -0.62407 -32.8338 A 1.99 1.81744 360 0 1 3.35593 -32.8338" />
    <path d="M -0.62407 -32.01916 A 1.99 1.81744 180 0 0 -0.37654 -31.1413" />
    <path d="M -19.65665 19.41046 A 4.5 4.10978 180 0 0 -12.50913 22.73369" />
    <path d="M 4.06182 26.38773 A 4.5 4.10978 180 0 0 12.578 24.5339" />
    <path d="M 4.06182 26.38773 A 13 11.87271 360 0 1 -12.50913 22.73369" />
    <path d="M -12.50913 16.21658 A 4.5 4.10978 360 0 1 -19.65665 12.89334 A 4.5 4.10978 360 0 1 -18.65352 10.30664" />
    <path d="M -12.50913 16.21658 L -12.50913 22.73369" />
    <path d="M -12.50913 16.21658 A 13 11.87271 360 0 1 -13.37163 14.94872" />
    <path d="M -14.38704 15.92343 L -13.37163 14.94872" />
    <path d="M -17.69207 15.19464 L -14.38704 15.92343 L -14.38704 -5.46002" />
    <path d="M -18.65352 12.21621 L -17.69207 15.19464" />
    <path d="M -19.65665 -9.50925 A 4.5 4.10978 180 0 0 -12.50913 -6.18602" />
    <path d="M -12.50913 -12.70314 L -12.50913 -6.18602" />
    <path d="M 4.06182 -9.0491 L 4.06182 -2.53199 A 4.5 4.10978 180 0 0 12.578 -4.38582" />
    <path d="M -13.37163 -5.73663 L -13.37163 14.94872" />
    <path d="M 5.46275 -1.04134 L 5.46275 19.10186 L 5.87931 20.39233 L 9.18434 21.12112 L 11.52793 18.87147" />
    <path d="M 4.06182 19.87061 A 13 11.87271 180 0 0 5.46275 19.10186" />
    <path d="M 4.06182 19.87061 L 4.06182 26.38773" />
    <path d="M -8.91116 -28.5164 A 9.65 8.81321 360 0 1 7.73012 -22.44154 L 7.73012 -19.5903" />
    <path d="M 7.73012 -22.44154 A 9.65 8.81321 360 0 1 -11.56988 -22.44154 L -11.56988 -19.5903" />
    <path d="M -11.56988 -22.44154 A 9.65 8.81321 360 0 1 -8.91116 -28.5164" />
    <path d="M 11.52793 15.37803 A 4.5 4.10978 360 0 1 12.578 18.01678 L 12.578 24.5339" />
    <path d="M 12.578 18.01678 A 4.5 4.10978 360 0 1 4.06182 19.87061" />
    <path d="M 6.27734 28.30032 A 1.99 1.81744 180 0 0 10.19517 28.16041" />
    <path d="M -17.31161 23.01836 A 1.99 1.81744 180 0 0 -13.43074 23.20595" />
    <path d="M -17.69207 -6.11389 L -17.69207 15.19464" />
    <path d="M -18.65352 -6.92256 L -18.65352 12.21621" />
    <path d="M 5.87931 -0.79999 L 5.87931 20.39233" />
    <path d="M 11.52793 -1.74707 L 11.52793 18.87147" />
    <path d="M 9.18434 -0.40217 L 9.18434 21.12112" />
    <path d="M -3.18101 -31.8416 L -3.18101 -31.40702" />
    <path d="M 5.81899 -31.8416 L 5.81899 -29.13009" />
    <path d="M -19.65665 12.89334 L -19.65665 19.41046" />
    <path d="M -19.65665 -16.02637 L -19.65665 -9.50925" />
    <path d="M 11.08012 -19.5903 L 11.08012 -13.96446" />
    <path d="M 12.578 -10.90294 L 12.578 -4.38582" />
    <path d="M -17.33849 -15.97472 L -17.33849 -16.78936" />
    <path d="M 6.2329 -10.77703 L 6.2329 -11.59167" />
    <path d="M -0.62407 -32.01916 L -0.62407 -32.8338" />
</svg>