<svg version="1.1" xmlns="http://www.w3.org/2000/svg" viewBox="-20.65664906619792 -38.19768678259248 34.2346542229113 69.62244850379486" fill="none" stroke="black" stroke-width="0.6%" vector-effect="non-scaling-stroke">
    <path d="M -14.90646 -21.66834 A 13 11.65341 360 0 1 -3.15604 -32.73942 A 4.5 4.03387 360 0 1 -3.18101 -33.16381 A 4.5 4.03387 360 0 1 5.81899 -33.16381 A 4.5 4.03387 360 0 1 5.08498 -30.95577 A 13 11.65341 360 0 1 11.08012 -21.13881 A 13 11.65341 360 0 1 9.90551 -16.29816 A 4.5 4.03387 360 0 1 12.578 -12.61191 A 4.5 4.03387 360 0 1 4.06182 -10.79232 A 13 11.65341 360 0 1 -12.50913 -14.37886 A 4.5 4.03387 360 0 1 -19.65665 -17.64071 A 4.5 4.03387 360 0 1 -14.90646 -21.66834 Z" />
    <path d="M -17.33849 -17.59001 A 1.99 1.78387 180 0 0 -13.35849 -17.59001 L -13.35849 -18.47644 A 1.99 1.78387 360 1 1 -17.33849 -18.47644 A 1.99 1.78387 360 0 1 -13.43971 -18.98088 A 1.99 1.78387 360 0 1 -13.35849 -18.47644" />
    <path d="M 6.2329 -12.48833 A 1.99 1.78387 180 0 0 10.2129 -12.48833 L 10.2129 -13.37476 A 1.99 1.78387 360 0 1 6.2329 -13.37476 A 1.99 1.78387 360 0 1 6.78118 -14.60436 A 1.99 1.78387 360 0 1 10.2129 -13.37476" />
    <path d="M 0.89888 -31.60405 A 1.99 1.78387 180 0 0 3.35593 -33.33809 L 3.35593 -34.22452 A 1.99 1.78387 360 0 1 0.89888 -32.49048 A 1.99 1.78387 360 0 1 -0.62407 -34.22452 A 1.99 1.78387 360 0 1 3.35593 -34.22452" />
    <path d="M -0.62407 -33.33809 A 1.99 1.78387 180 0 0 0.89888 -31.60405" />
    <path d="M -19.65665 21.36209 A 4.5 4.03387 180 0 0 -12.50913 24.62394" />
    <path d="M 4.06182 28.21048 A 4.5 4.03387 180 0 0 12.578 26.39089" />
    <path d="M 4.06182 28.21048 A 13 11.65341 360 0 1 -12.50913 24.62394" />
    <path d="M -12.50913 20.1918 A 4.5 4.03387 360 0 1 -19.65665 16.92995 A 4.5 4.03387 360 0 1 -18.65352 14.39103" />
    <path d="M -12.50913 20.1918 L -12.50913 24.62394" />
    <path d="M -12.50913 20.1918 A 13 11.65341 360 0 1 -13.37163 18.94736" />
    <path d="M -14.38704 19.90407 L -13.37163 18.94736" />
    <path d="M -17.69207 19.18874 L -14.38704 19.90407 L -14.38704 -9.23413" />
    <path d="M -18.65352 16.26532 L -17.69207 19.18874" />
    <path d="M -19.65665 -13.20857 A 4.5 4.03387 180 0 0 -12.50913 -9.94673" />
    <path d="M -12.50913 -14.37886 L -12.50913 -9.94673" />
    <path d="M 4.06182 -10.79232 L 4.06182 -6.36019 A 4.5 4.03387 180 0 0 12.578 -8.17977" />
    <path d="M -13.37163 -9.50564 L -13.37163 18.94736" />
    <path d="M 5.46275 -4.89708 L 5.46275 23.02379 L 5.87931 24.29043 L 9.18434 25.00575 L 11.52793 22.79766" />
    <path d="M 4.06182 23.77834 A 13 11.65341 180 0 0 5.46275 23.02379" />
    <path d="M 4.06182 23.77834 L 4.06182 28.21048" />
    <path d="M 11.52793 19.36875 A 4.5 4.03387 360 0 1 12.578 21.95875 L 12.578 26.39089" />
    <path d="M 12.578 21.95875 A 4.5 4.03387 360 0 1 4.06182 23.77834" />
    <path d="M -17.69207 -9.87593 L -17.69207 19.18874" />
    <path d="M -18.65352 -10.66966 L -18.65352 16.26532" />
    <path d="M 5.87931 -4.66018 L 5.87931 24.29043" />
    <path d="M 11.52793 -5.58977 L 11.52793 22.79766" />
    <path d="M 9.18434 -4.26971 L 9.18434 25.00575" />
    <path d="M -3.18101 -33.16381 L -3.18101 -32.73726" />
    <path d="M 5.81899 -33.16381 L 5.81899 -30.50238" />
    <path d="M -19.65665 16.92995 L -19.65665 21.36209" />
    <path d="M -19.65665 -17.64071 L -19.65665 -13.20857" />
    <path d="M 11.08012 -21.13881 L 11.08012 -15.61689" />
    <path d="M 12.578 -12.61191 L 12.578 -8.17977" />
    <path d="M -17.33849 -17.59001 L -17.33849 -18.47644" />
    <path d="M 6.2329 -12.48833 L 6.2329 -13.37476" />
    <path d="M -0.62407 -33.33809 L -0.62407 -34.22452" />
</svg>