<svg version="1.1" xmlns="http://www.w3.org/2000/svg" viewBox="-19.105627000305976 -38.05501711638421 38.000002 72.8511245723846" fill="none" stroke="black" stroke-width="0.6%" vector-effect="non-scaling-stroke">
    <path d="M -17.95007 24.37466 A 4.5 3.93219 180 0 0 -10.90928 27.6201" />
    <path d="M 5.53856 31.53503 A 4.5 3.93219 180 0 0 14.11197 29.86391" />
    <path d="M 5.53856 31.53503 A 13 11.35966 360 0 1 -10.90928 27.6201" />
    <path d="M -16.95044 17.12083 A 4.5 3.93219 0 0 1 -17.95007 14.64969 A 4.5 3.93219 0 0 1 -17.88953 14.00682" />
    <path d="M -12.81239 22.71728 L -12.81239 23.40468 A 15 13.10731 180 0 0 6.80322 28.07361" />
    <path d="M -10.90928 25.53221 L -10.90928 27.6201" />
    <path d="M 13.03328 0.8261 A 18 15.72877 360 0 1 13.81125 21.55227 A 4.5 3.93219 360 0 1 11.19456 23.81993 A 18 15.72877 360 0 1 7.79472 25.70971 A 18 15.72877 360 0 1 -8.00597 25.70971 A 18 15.72877 360 0 1 -16.95044 17.12083" />
    <path d="M -16.92395 5.97191 A 18 15.72877 180 0 0 -17.88953 14.00682" />
    <path d="M -16.05757 16.78631 L -16.92395 13.9134" />
    <path d="M -12.77709 17.56713 L -16.05757 16.78631" />
    <path d="M -11.73113 16.66069 L -12.77709 17.56713 L -12.77709 -4.80229" />
    <path d="M 6.96333 21.11036 A 13 11.35966 360 0 1 -11.73113 16.66069" />
    <path d="M 7.33871 22.35512 L 6.96333 21.11036" />
    <path d="M 10.61918 23.13594 L 7.33871 22.35512" />
    <path d="M 13.03328 21.04385 L 10.61918 23.13594" />
    <path d="M 6.80322 26.13292 L 6.80322 28.07361" />
    <path d="M 5.53856 28.5834 L 5.53856 31.53503" />
    <path d="M 6.47799 26.27173 A 15 13.10731 360 0 1 -6.68924 26.27173 L -8.00597 25.70971" />
    <path d="M 13.03328 -0.64673 L 13.03328 21.04385" />
    <path d="M 10.61918 0.63142 L 10.61918 23.13594" />
    <path d="M 7.33871 0.19255 L 7.33871 22.35512" />
    <path d="M 6.96333 -0.02209 L 6.96333 21.11036" />
    <path d="M -11.73113 -5.05626 L -11.73113 16.66069" />
    <path d="M 5.53856 -11.25487 L 5.53856 -1.52989 A 4.5 3.93219 180 0 0 14.11197 -3.20101 L 14.11197 -12.92598 A 4.5 3.93219 0 0 1 5.53856 -11.25487 A 13 11.35966 360 0 1 -10.90928 -15.1698 A 4.5 3.93219 0 0 1 -17.95007 -18.41524 A 4.5 3.93219 0 0 1 -13.06958 -22.33335 A 13 11.35966 0 0 1 -0.96565 -32.82279 A 4.5 3.93219 0 0 1 -0.97877 -33.12282 A 4.5 3.93219 0 0 1 8.02123 -33.12282 A 4.5 3.93219 0 0 1 7.21414 -30.87583 A 13 11.35966 360 0 1 12.89437 -21.48801 L 12.89437 -15.61585" />
    <path d="M -10.90928 -15.1698 L -10.90928 -5.44482" />
    <path d="M -16.05757 -5.48547 L -16.05757 16.78631" />
    <path d="M -16.92395 -6.19074 L -16.92395 13.9134" />
    <path d="M 12.89437 -21.48801 A 13 11.35966 360 0 1 11.55805 -16.47145 A 4.5 3.93219 0 0 1 14.11197 -12.92598" />
    <path d="M -15.63347 -18.3707 A 1.99 1.7389 180 0 0 -11.65347 -18.3707 L -11.65347 -19.3432 A 1.99 1.7389 0 0 1 -15.63347 -19.3432 A 1.99 1.7389 0 0 1 -11.71916 -19.7863 A 1.99 1.7389 0 0 1 -11.65347 -19.3432" />
    <path d="M 7.7628 -12.8019 A 1.99 1.7389 180 0 0 11.7428 -12.8019 L 11.7428 -13.77439 A 1.99 1.7389 360 0 1 7.7628 -13.77439 A 1.99 1.7389 360 0 1 8.3515 -15.00906 A 1.99 1.7389 360 0 1 11.7428 -13.77439" />
    <path d="M 3.05079 -31.61367 A 1.99 1.7389 180 0 0 5.56379 -33.29144 L 5.56379 -34.26394 A 1.99 1.7389 0 0 1 3.05079 -32.58617 A 1.99 1.7389 0 0 1 1.58379 -34.26394 A 1.99 1.7389 0 0 1 5.56379 -34.26394" />
    <path d="M 1.58379 -33.29144 A 1.99 1.7389 180 0 0 3.05079 -31.61367" />
    <path d="M -17.95007 -8.69026 A 4.5 3.93219 180 0 0 -10.90928 -5.44482" />
    <path d="M -17.95007 14.64969 L -17.95007 24.37466" />
    <path d="M 14.11197 21.22303 L 14.11197 29.86391" />
    <path d="M 6.47799 26.27173 L 7.79472 25.70971" />
    <path d="M -17.95007 -8.69026 L -17.95007 -18.41524" />
    <path d="M 8.02123 -30.35435 L 8.02123 -33.12282" />
    <path d="M -0.97877 -32.82203 L -0.97877 -33.12282" />
    <path d="M -15.63347 -18.3707 L -15.63347 -19.3432" />
    <path d="M 7.7628 -12.8019 L 7.7628 -13.77439" />
    <path d="M 1.58379 -33.29144 L 1.58379 -34.26394" />
</svg>