<svg version="1.1" xmlns="http://www.w3.org/2000/svg" viewBox="-20.65664906619793 -38.61689667701191 34.23465422291131 69.094591898239" fill="none" stroke="black" stroke-width="0.6%" vector-effect="non-scaling-stroke">
    <path d="M -14.90646 -21.93219 A 13 11.77 360 0 1 -3.15604 -33.11402 A 4.5 4.07423 360 0 1 -3.18101 -33.54267 A 4.5 4.07423 360 0 1 5.81899 -33.54267 A 4.5 4.07423 360 0 1 5.08498 -31.31253 A 13 11.77 360 0 1 11.08012 -21.39736 A 13 11.77 360 0 1 9.90551 -16.50827 A 4.5 4.07423 360 0 1 12.578 -12.78515 A 4.5 4.07423 360 0 1 4.06182 -10.94735 A 13 11.77 360 0 1 -12.50913 -14.56977 A 4.5 4.07423 360 0 1 -19.65665 -17.86426 A 4.5 4.07423 360 0 1 -14.90646 -21.93219 Z" />
    <path d="M -17.33849 -17.81305 A 1.99 1.80172 180 0 0 -13.35849 -17.81305 L -13.35849 -18.66224 A 1.99 1.80172 360 0 1 -17.33849 -18.66224 A 1.99 1.80172 360 0 1 -13.43971 -19.17172 A 1.99 1.80172 360 0 1 -13.35849 -18.66224" />
    <path d="M 6.2329 -12.66033 A 1.99 1.80172 180 0 0 10.2129 -12.66033 L 10.2129 -13.50952 A 1.99 1.80172 360 0 1 6.2329 -13.50952 A 1.99 1.80172 360 0 1 6.78118 -14.75142 A 1.99 1.80172 360 0 1 10.2129 -13.50952" />
    <path d="M 0.89888 -31.9673 A 1.99 1.80172 180 0 0 3.35593 -33.71868 L 3.35593 -34.56787 A 1.99 1.80172 360 0 1 0.89888 -32.81648 A 1.99 1.80172 360 0 1 -0.62407 -34.56787 A 1.99 1.80172 360 1 1 3.35593 -34.56787" />
    <path d="M -0.62407 -33.71868 A 1.99 1.80172 180 0 0 0.89888 -31.9673" />
    <path d="M -19.65665 19.07531 A 4.5 4.07423 180 0 0 -12.50913 22.36979" />
    <path d="M 4.06182 25.99221 A 4.5 4.07423 180 0 0 12.578 24.15442" />
    <path d="M 4.06182 25.99221 A 13 11.77 360 0 1 -12.50913 22.36979" />
    <path d="M -12.50913 15.57631 A 4.5 4.07423 360 0 1 -19.65665 12.28183 A 4.5 4.07423 360 0 1 -18.65352 9.71751" />
    <path d="M -12.50913 15.57631 L -12.50913 22.36979" />
    <path d="M -12.50913 15.57631 A 13 11.77 360 0 1 -13.37163 14.31942" />
    <path d="M -14.38704 15.2857 L -13.37163 14.31942" />
    <path d="M -17.69207 14.56322 L -14.38704 15.2857 L -14.38704 -7.05657" />
    <path d="M -18.65352 11.61055 L -17.69207 14.56322" />
    <path d="M -19.65665 -11.07077 A 4.5 4.07423 180 0 0 -12.50913 -7.77629" />
    <path d="M -12.50913 -14.56977 L -12.50913 -7.77629" />
    <path d="M 4.06182 -10.94735 L 4.06182 -4.15387 A 4.5 4.07423 180 0 0 12.578 -5.99166" />
    <path d="M -13.37163 -7.33079 L -13.37163 14.31942" />
    <path d="M 5.46275 -2.67612 L 5.46275 18.43663 L 5.87931 19.71594 L 9.18434 20.43842 L 11.52793 18.20824" />
    <path d="M 4.06182 19.19873 A 13 11.77 180 0 0 5.46275 18.43663" />
    <path d="M 4.06182 19.19873 L 4.06182 25.99221" />
    <path d="M 11.52793 14.74502 A 4.5 4.07423 360 0 1 12.578 17.36094 L 12.578 24.15442" />
    <path d="M 12.578 17.36094 A 4.5 4.07423 360 0 1 4.06182 19.19873" />
    <path d="M 6.24513 27.87538 A 1.99 1.80172 180 0 0 10.21158 27.7416" />
    <path d="M -17.33425 22.64074 A 1.99 1.80172 180 0 0 -13.38581 22.82082" />
    <path d="M -17.69207 -7.70479 L -17.69207 14.56322" />
    <path d="M -18.65352 -8.50645 L -18.65352 11.61055" />
    <path d="M 5.87931 -2.43686 L 5.87931 19.71594" />
    <path d="M 11.52793 -3.37574 L 11.52793 18.20824" />
    <path d="M 9.18434 -2.04248 L 9.18434 20.43842" />
    <path d="M -3.18101 -33.54267 L -3.18101 -33.11184" />
    <path d="M 5.81899 -33.54267 L 5.81899 -30.85461" />
    <path d="M -19.65665 12.28183 L -19.65665 19.07531" />
    <path d="M -19.65665 -17.86426 L -19.65665 -11.07077" />
    <path d="M 11.08012 -21.39736 L 11.08012 -15.82019" />
    <path d="M 12.578 -12.78515 L 12.578 -5.99166" />
    <path d="M -17.33849 -17.81305 L -17.33849 -18.66224" />
    <path d="M 6.2329 -12.66033 L 6.2329 -13.50952" />
    <path d="M -0.62407 -33.71868 L -0.62407 -34.56787" />
</svg>