<svg version="1.1" xmlns="http://www.w3.org/2000/svg" viewBox="-20.49281635216868 -38.38453041003671 34.189620744407414 70.49009047895284" fill="none" stroke="black" stroke-width="0.6%" vector-effect="non-scaling-stroke">
    <path d="M -15.20763 -22.25281 A 13.5 11.88264 0 0 1 -2.88049 -33.47821 A 4.5 3.96088 360 0 1 6.11908 -33.42365 A 4.5 3.96088 360 0 1 5.61916 -31.60921 A 13.5 11.88264 360 0 1 11.77436 -21.63912 A 13.5 11.88264 360 0 1 10.50027 -16.59989 A 4.5 3.96088 360 0 1 12.6968 -13.19727 A 4.5 3.96088 360 0 1 4.41154 -11.05534 A 13.5 11.88264 360 0 1 -12.79671 -14.83927 L -12.79671 -8.66933" />
    <path d="M 10.34061 17.86193 A 13.5 11.88264 180 0 0 10.50027 17.57211 A 4.5 3.96088 360 0 1 12.6968 20.97473 L 12.6968 27.14468" />
    <path d="M -12.79671 -14.83927 A 4.5 3.96088 360 0 1 -19.49282 -18.29645 A 4.5 3.96088 360 0 1 -15.20763 -22.25281" />
    <path d="M -19.49282 22.0455 A 4.5 3.96088 180 0 0 -12.79671 25.50267" />
    <path d="M 4.41154 29.28661 A 4.5 3.96088 180 0 0 12.6968 27.14468" />
    <path d="M 4.41154 29.28661 A 13.5 11.88264 360 0 1 -12.79671 25.50267" />
    <path d="M -12.79671 19.33273 A 4.5 3.96088 360 0 1 -19.49282 15.87555 L -19.49282 22.0455" />
    <path d="M -19.49282 15.87555 A 4.5 3.96088 360 0 1 -17.18509 12.41649" />
    <path d="M -12.79671 19.33273 L -12.79671 25.50267" />
    <path d="M -12.79671 19.33273 A 13.5 11.88264 360 0 1 -14.05364 17.3756 A 2 1.76039 360 0 1 -17.18509 15.924" />
    <path d="M -14.05364 -8.25285 L -14.05364 17.3756" />
    <path d="M -19.49282 -12.1265 A 4.5 3.96088 180 0 0 -12.79671 -8.66933" />
    <path d="M 4.41154 23.11666 L 4.41154 29.28661" />
    <path d="M 12.6968 20.97473 A 4.5 3.96088 360 0 1 4.41154 23.11666 A 13.5 11.88264 180 0 0 6.56649 21.90977" />
    <path d="M 10.34061 21.09708 A 2 1.76039 360 0 1 6.56649 21.90977" />
    <path d="M 6.56649 -3.33553 L 6.56649 21.90977" />
    <path d="M 4.41154 -4.8854 A 4.5 3.96088 180 0 0 12.6968 -7.02732" />
    <path d="M 4.41154 -11.05534 L 4.41154 -4.8854" />
    <path d="M 11.77436 -21.63912 L 11.77436 -15.59991" />
    <path d="M 11.77436 -4.62468 L 11.77436 18.57209" />
    <path d="M 6.11908 -33.42365 L 6.11908 -31.30967" />
    <path d="M -17.18509 -8.66745 L -17.18509 15.924" />
    <path d="M -19.49282 -18.29645 L -19.49282 -12.1265" />
    <path d="M 10.34061 -3.54481 L 10.34061 21.09708" />
    <path d="M 12.6968 -13.19727 L 12.6968 -7.02732" />
</svg>