<svg version="1.1" xmlns="http://www.w3.org/2000/svg" viewBox="-20.49281635216868 -37.7464888624994 34.18962074440742 69.62805850932645" fill="none" stroke="black" stroke-width="0.6%" vector-effect="non-scaling-stroke">
    <path d="M -15.20763 -21.49936 A 13.5 11.97327 0 0 1 -2.88049 -32.81037 A 4.5 3.99109 0 0 1 6.11908 -32.7554 A 4.5 3.99109 0 0 1 5.61916 -30.92712 A 13.5 11.97327 0 0 1 11.77436 -20.88098 A 13.5 11.97327 0 0 1 10.50027 -15.80331 A 4.5 3.99109 0 0 1 12.6968 -12.37474 A 4.5 3.99109 0 0 1 4.41154 -10.21647 A 13.5 11.97327 0 0 1 -12.79671 -14.02927 A 4.5 3.99109 0 0 1 -19.49282 -17.51281 A 4.5 3.99109 0 0 1 -15.20763 -21.49936 Z" />
    <path d="M 10.34061 -12.25146 A 2 1.77382 0 0 1 6.34061 -12.25146" />
    <path d="M -13.18509 -17.464 A 2 1.77382 0 0 1 -17.18509 -17.464" />
    <path d="M 7.77436 -20.88098 A 9.5 8.42564 0 0 1 -11.22564 -20.88098" />
    <path d="M 1.18281 -31.20656 A 2 1.77382 0 0 1 -0.33244 -32.92749" />
    <path d="M 3.66756 -32.92749 A 2 1.77382 0 0 1 1.18281 -31.20656" />
    <path d="M -19.49282 21.7524 A 4.5 3.99109 180 0 0 -12.79671 25.23595" />
    <path d="M 11.77436 18.38423 A 13.5 11.97327 0 0 1 11.77406 18.46389" />
    <path d="M 4.41154 29.04874 A 4.5 3.99109 180 0 0 12.6968 26.89048" />
    <path d="M 4.41154 29.04874 A 13.5 11.97327 0 0 1 -12.79671 25.23595" />
    <path d="M -12.79671 19.23068 A 4.5 3.99109 0 0 1 -19.49282 15.74713 L -19.49282 21.7524" />
    <path d="M -19.49282 15.74713 A 4.5 3.99109 0 0 1 -17.18509 12.26169" />
    <path d="M -12.79671 19.23068 L -12.79671 25.23595" />
    <path d="M -12.79671 19.23068 A 13.5 11.97327 0 0 1 -14.05364 17.25862 A 2 1.77382 0 0 1 -17.18509 15.79595" />
    <path d="M -14.05364 -7.60434 L -14.05364 17.25862" />
    <path d="M -19.49282 -11.50755 A 4.5 3.99109 180 0 0 -12.79671 -8.024" />
    <path d="M -12.79671 -14.02927 L -12.79671 -8.024" />
    <path d="M 10.34061 17.74866 A 13.5 11.97327 180 0 0 10.50027 17.45664 A 4.5 3.99109 0 0 1 12.6968 20.88521 L 12.6968 26.89048" />
    <path d="M 4.41154 -10.21647 L 4.41154 -4.21121 A 4.5 3.99109 180 0 0 12.6968 -6.36947" />
    <path d="M 6.56649 -2.64952 L 6.56649 21.82738" />
    <path d="M 4.41154 23.04347 A 13.5 11.97327 180 0 0 6.56649 21.82738" />
    <path d="M 4.41154 23.04347 L 4.41154 29.04874" />
    <path d="M 6.90257 -13.94619 A 2 1.77382 0 0 1 10.34061 -12.7134 L 10.34061 -12.25146" />
    <path d="M 10.34061 -12.7134 A 2 1.77382 0 0 1 6.34061 -12.7134 L 6.34061 -12.25146" />
    <path d="M 6.34061 -12.7134 A 2 1.77382 0 0 1 6.90257 -13.94619" />
    <path d="M -13.26231 -18.41408 A 2 1.77382 0 0 1 -13.18509 -17.92594 L -13.18509 -17.464" />
    <path d="M -13.18509 -17.92594 A 2 1.77382 0 0 1 -17.18509 -17.92594 L -17.18509 -17.464" />
    <path d="M -17.18509 -17.92594 A 2 1.77382 0 0 1 -13.26231 -18.41408" />
    <path d="M -8.55631 -27.66062 A 9.5 8.42564 0 0 1 7.77436 -21.80487 L 7.77436 -20.88098" />
    <path d="M 7.77436 -21.80487 A 9.5 8.42564 0 0 1 -11.22564 -21.80487 L -11.22564 -20.88098" />
    <path d="M -11.22564 -21.80487 A 9.5 8.42564 0 0 1 -8.55631 -27.66062" />
    <path d="M 1.18281 -31.6685 A 2 1.77382 0 0 1 -0.33244 -33.38943 L -0.33244 -32.92749" />
    <path d="M -0.33244 -33.38943 A 2 1.77382 0 1 1 3.66756 -33.38943 L 3.66756 -32.92749" />
    <path d="M 3.66756 -33.38943 A 2 1.77382 0 0 1 1.18281 -31.6685" />
    <path d="M 12.6968 20.88521 A 4.5 3.99109 0 0 1 4.41154 23.04347" />
    <path d="M 10.34061 21.00849 A 2 1.77382 0 0 1 6.56649 21.82738" />
    <path d="M 6.11908 -32.7554 L 6.11908 -30.6253" />
    <path d="M -17.18509 -8.0221 L -17.18509 15.79595" />
    <path d="M -19.49282 -17.51281 L -19.49282 -11.50755" />
    <path d="M 11.77436 -20.88098 L 11.77436 -14.79571" />
    <path d="M 11.77436 -3.9485 L 11.77436 18.38423" />
    <path d="M 12.6968 -12.37474 L 12.6968 -6.36947" />
    <path d="M 10.34061 -2.86039 L 10.34061 21.00849" />
</svg>