<svg version="1.1" xmlns="http://www.w3.org/2000/svg" viewBox="-20.752530844393394 -38.718047176752876 34.53796412256667 70.98051258759665" fill="none" stroke="black" stroke-width="0.6%" vector-effect="non-scaling-stroke">
    <path d="M 5.09348 30.09578 A 4.5 3.95331 180 0 0 12.78543 27.30915" />
    <path d="M 5.09348 30.09578 A 4.5 3.95331 0 0 1 4.36118 29.3321" />
    <path d="M -12.85603 25.58708 A 13.5 11.85994 180 0 0 4.36118 29.3321" />
    <path d="M -12.85603 25.58708 A 4.5 3.95331 0 0 1 -13.90933 25.96236" />
    <path d="M -19.75253 22.18926 A 4.5 3.95331 180 0 0 -13.90933 25.96236" />
    <path d="M 5.47778 -31.81435 A 13.5 11.85994 0 0 1 11.69882 -21.82603 A 13.5 11.85994 0 0 1 10.41549 -16.77912 A 4.5 3.95331 0 0 1 12.78543 -13.29674 L 12.78543 27.30915" />
    <path d="M 4.36118 24.55494 L 4.36118 29.3321" />
    <path d="M 5.09348 25.31861 A 4.5 3.95331 0 0 1 4.36118 24.55494" />
    <path d="M 5.09348 25.31861 L 5.09348 30.09578" />
    <path d="M 4.40566 -11.29393 A 13.5 11.85994 0 0 1 -12.88468 -15.05486 L -12.88468 20.77387 A 4.5 3.95331 0 0 1 -13.90933 21.1852 L -13.90933 25.96236" />
    <path d="M 4.40566 -11.29393 L 4.40566 24.5348 A 13.5 11.85994 0 0 1 4.36118 24.55494" />
    <path d="M -12.85603 20.80992 L -12.85603 25.58708" />
    <path d="M -12.85603 20.80992 A 13.5 11.85994 0 0 1 -12.88468 20.77387" />
    <path d="M -12.85603 20.80992 A 4.5 3.95331 0 0 1 -13.90933 21.1852" />
    <path d="M -15.28698 -22.36983 A 13.5 11.85994 0 0 1 -2.93435 -33.64412 A 4.5 3.95331 0 0 1 -2.93645 -33.76473 L -2.93645 -33.64397" />
    <path d="M -2.93645 -33.76473 A 4.5 3.95331 0 0 1 6.06355 -33.76473 L 6.06355 -31.46554" />
    <path d="M 6.06355 -33.76473 A 4.5 3.95331 0 0 1 5.47778 -31.81435" />
    <path d="M 5.09348 25.31861 A 4.5 3.95331 0 0 1 4.40566 24.5348" />
    <path d="M 12.78543 -13.29674 A 4.5 3.95331 0 0 1 4.40566 -11.29393" />
    <path d="M -12.88468 -15.05486 A 4.5 3.95331 0 0 1 -19.75253 -18.41663 L -19.75253 22.18926" />
    <path d="M -19.75253 -18.41663 A 4.5 3.95331 0 0 1 -15.28698 -22.36983" />
    <path d="M 11.69882 -21.82603 L 11.69882 -15.87287" />
</svg>