<svg version="1.1" xmlns="http://www.w3.org/2000/svg" viewBox="-20.65664906619792 -38.19768678259248 34.2346542229113 69.62244850379486" fill="none" stroke="black" stroke-width="0.6%" vector-effect="non-scaling-stroke">
    <path d="M -14.90646 -21.66834 A 13 11.65341 360 0 1 -3.15604 -32.73942 A 4.5 4.03387 360 0 1 -3.18101 -33.16381 A 4.5 4.03387 360 0 1 5.81899 -33.16381 A 4.5 4.03387 360 0 1 5.08498 -30.95577 A 13 11.65341 360 0 1 11.08012 -21.13881 A 13 11.65341 360 0 1 9.90551 -16.29816 A 4.5 4.03387 360 0 1 12.578 -12.61191 A 4.5 4.03387 360 0 1 4.06182 -10.79232 A 13 11.65341 360 0 1 -12.50913 -14.37886 A 4.5 4.03387 360 0 1 -19.65665 -17.64071 A 4.5 4.03387 360 0 1 -14.90646 -21.66834 Z" />
    <path d="M -17.33849 -17.59001 A 1.99 1.78387 180 0 0 -13.35849 -17.59001 L -13.35849 -18.47644 A 1.99 1.78387 360 1 1 -17.33849 -18.47644 A 1.99 1.78387 360 0 1 -13.43971 -18.98088 A 1.99 1.78387 360 0 1 -13.35849 -18.47644" />
    <path d="M 6.2329 -12.48833 A 1.99 1.78387 180 0 0 10.2129 -12.48833 L 10.2129 -13.37476 A 1.99 1.78387 360 0 1 6.2329 -13.37476 A 1.99 1.78387 360 0 1 6.78118 -14.60436 A 1.99 1.78387 360 0 1 10.2129 -13.37476" />
    <path d="M 0.89888 -31.60405 A 1.99 1.78387 180 0 0 3.35593 -33.33809 L 3.35593 -34.22452 A 1.99 1.78387 360 0 1 0.89888 -32.49048 A 1.99 1.78387 360 0 1 -0.62407 -34.22452 A 1.99 1.78387 360 0 1 3.35593 -34.22452" />
    <path d="M -0.62407 -33.33809 A 1.99 1.78387 180 0 0 0.89888 -31.60405" />
    <path d="M -19.65665 21.36209 A 4.5 4.03387 180 0 0 -12.50913 24.62394" />
    <path d="M 11.08012 17.86399 A 13 11.65341 360 0 1 11.02748 18.91154" />
    <path d="M 4.06182 28.21048 A 4.5 4.03387 180 0 0 12.578 26.39089" />
    <path d="M 4.06182 28.21048 A 13 11.65341 360 0 1 -12.50913 24.62394" />
    <path d="M -12.50913 20.1918 A 4.5 4.03387 360 0 1 -19.65665 16.92995 A 4.5 4.03387 360 0 1 -18.65352 14.39103" />
    <path d="M -12.50913 20.1918 L -12.50913 24.62394" />
    <path d="M -12.50913 20.1918 A 13 11.65341 360 0 1 -13.37163 18.94736" />
    <path d="M -14.38704 19.90407 L -13.37163 18.94736" />
    <path d="M -17.69207 19.18874 L -14.38704 19.90407 L -14.38704 17.688 L -15.48115 17.4512 A 3 2.68925 360 0 1 -16.59797 17.20948 L -17.69207 16.97268 L -18.01035 16.0049" />
    <path d="M -18.65352 16.26532 L -17.69207 19.18874 L -17.69207 16.97268" />
    <path d="M -13.82003 14.41476 A 1.99 1.78387 360 0 1 -17.33849 13.27243" />
    <path d="M -17.87769 13.31828 A 3 2.68925 360 0 1 -17.73314 13.13285" />
    <path d="M -18.33524 15.01703 A 3 2.68925 360 0 1 -17.87769 13.31828" />
    <path d="M -18.33524 15.01703 A 3 2.68925 180 0 0 -18.01035 16.0049" />
    <path d="M -16.59797 17.20948 A 3 2.68925 360 0 1 -18.01035 16.0049" />
    <path d="M -13.61122 16.95703 A 3 2.68925 360 0 1 -15.48115 17.4512" />
    <path d="M -13.34877 16.76926 A 3 2.68925 360 0 1 -13.61122 16.95703 L -14.38704 17.688" />
    <path d="M -13.34877 16.76926 C -13.36 16.69 -13.38 16.62 -13.39691 16.54295 C -13.41 16.47 -13.43 16.39 -13.44453 16.316 C -13.46 16.24 -13.48 16.16 -13.49165 16.08837 C -13.51 16.01 -13.52 15.94 -13.53829 15.86 C -13.55 15.78 -13.57 15.71 -13.58448 15.63085 C -13.6 15.55 -13.62 15.48 -13.63023 15.40083 C -13.64 15.36 -13.65 15.32 -13.65295 15.28547 C -13.66 15.25 -13.67 15.21 -13.67558 15.16986 C -13.68 15.13 -13.69 15.09 -13.69811 15.05399 C -13.71 15.02 -13.71 14.98 -13.72056 14.93783 C -13.73 14.89 -13.74 14.85 -13.74555 14.8077 C -13.75 14.76 -13.76 14.72 -13.77045 14.67716 C -13.78 14.63 -13.79 14.59 -13.79527 14.5462 C -13.8 14.5 -13.81 14.46 -13.82003 14.41476" />
    <path d="M -13.82003 -8.30732 A 1.99 1.78387 0 0 1 -16.9303 -8.36728 L -17.14073 -8.61438" />
    <path d="M -13.82003 -8.30732 L -13.82003 14.41476" />
    <path d="M -13.34877 -8.93713 C -13.36 -8.92 -13.38 -8.89 -13.39691 -8.87151 C -13.41 -8.85 -13.43 -8.83 -13.44453 -8.80658 C -13.46 -8.79 -13.48 -8.76 -13.49165 -8.74238 C -13.51 -8.72 -13.52 -8.7 -13.53829 -8.67897 C -13.55 -8.66 -13.57 -8.64 -13.58448 -8.61643 C -13.59 -8.61 -13.6 -8.6 -13.6074 -8.5855 C -13.62 -8.58 -13.62 -8.57 -13.63023 -8.55482 C -13.64 -8.54 -13.65 -8.53 -13.65295 -8.52441 C -13.66 -8.51 -13.67 -8.5 -13.67558 -8.49427 C -13.68 -8.48 -13.69 -8.47 -13.69811 -8.46442 C -13.71 -8.45 -13.71 -8.44 -13.72056 -8.43489 C -13.73 -8.42 -13.74 -8.41 -13.74555 -8.40228 C -13.75 -8.39 -13.76 -8.38 -13.77045 -8.37013 C -13.78 -8.36 -13.79 -8.35 -13.79527 -8.33846 C -13.8 -8.33 -13.81 -8.32 -13.82003 -8.30732" />
    <path d="M -13.34877 -8.93713 A 3 2.68925 0 0 1 -13.61122 -8.74936 L -13.37163 -8.9751" />
    <path d="M -15.48115 -8.25519 A 3 2.68925 0 0 1 -16.59797 -8.49691 L -15.48115 -8.25519 L -14.38704 -8.01839 L -13.61122 -8.74936" />
    <path d="M -18.01035 -9.70149 A 3 2.68925 0 0 1 -18.25778 -10.28552" />
    <path d="M -19.65665 -13.20857 A 4.5 4.03387 180 0 0 -12.50913 -9.94673" />
    <path d="M -12.50913 -14.37886 L -12.50913 -9.94673" />
    <path d="M 4.06182 -10.79232 L 4.06182 -6.36019 A 4.5 4.03387 180 0 0 12.578 -8.17977" />
    <path d="M -13.37163 16.78739 L -13.37163 18.94736" />
    <path d="M -13.34877 -8.93713 A 13 11.65341 360 0 1 -13.37163 -8.9751" />
    <path d="M -13.37163 -9.50564 L -13.37163 -8.9751" />
    <path d="M 5.46148 -4.89789 A 13 11.65341 360 0 1 5.42308 -4.87424" />
    <path d="M 6.28137 -3.54501 L 6.28137 18.76542 A 1.99 1.78387 180 0 0 10.2129 18.37411" />
    <path d="M 6.28137 18.76542 C 6.26 18.81 6.25 18.85 6.22694 18.89795 C 6.21 18.94 6.19 18.99 6.17275 19.0299 C 6.15 19.07 6.14 19.12 6.11877 19.16133 C 6.1 19.21 6.08 19.25 6.06496 19.29226 C 6.05 19.34 6.03 19.38 6.01128 19.42273 C 5.99 19.47 5.98 19.51 5.95769 19.55275 C 5.94 19.6 5.92 19.64 5.90419 19.68234 C 5.89 19.73 5.87 19.77 5.85073 19.81153 C 5.83 19.85 5.82 19.9 5.79731 19.94034 C 5.78 19.98 5.76 20.03 5.74391 20.06877 C 5.73 20.11 5.71 20.15 5.6905 20.19684 C 5.67 20.24 5.65 20.28 5.63709 20.32456 C 5.62 20.37 5.6 20.41 5.58365 20.45195 C 5.57 20.49 5.55 20.54 5.53017 20.579 C 5.49 20.66 5.46 20.75 5.42308 20.83215 A 3 2.68925 180 0 0 5.56103 21.10658 A 3 2.68925 180 0 0 6.97342 22.31116 L 5.87931 22.07436 L 5.56103 21.10658" />
    <path d="M 5.46275 20.9199 L 5.46275 23.02379 L 5.87931 24.29043 L 5.87931 22.07436" />
    <path d="M 4.06182 23.77834 A 13 11.65341 180 0 0 5.46275 23.02379" />
    <path d="M 4.06182 23.77834 L 4.06182 28.21048" />
    <path d="M 11.02789 18.9125 A 4.5 4.03387 360 0 1 12.578 21.95875 L 12.578 26.39089" />
    <path d="M 12.578 21.95875 A 4.5 4.03387 360 0 1 4.06182 23.77834" />
    <path d="M -18.33524 15.01703 L -18.65352 14.04926 L -17.87769 13.31828" />
    <path d="M -18.65352 16.26532 L -18.65352 14.04926" />
    <path d="M -18.01035 -9.70149 L -17.69207 -8.73371 L -16.59797 -8.49691" />
    <path d="M -18.18154 -10.22201 L -18.01035 -9.70149" />
    <path d="M -14.38704 -9.23413 L -14.38704 -8.01839" />
    <path d="M -17.69207 -9.87593 L -17.69207 -8.73371" />
    <path d="M 9.18434 25.00575 L 11.52793 22.79766 L 11.52793 20.58159 L 10.7521 21.31256 A 3 2.68925 180 0 0 11.20965 19.61381 L 11.52793 20.58159" />
    <path d="M 5.87931 24.29043 L 9.18434 25.00575 L 9.18434 22.78968 L 8.09024 22.55288 A 3 2.68925 180 0 0 9.96017 22.05871 L 9.18434 22.78968" />
    <path d="M 10.2129 17.58164 L 10.56649 17.65817 L 10.88477 18.62594 A 3 2.68925 180 0 0 10.60755 18.23453" />
    <path d="M 6.97342 22.31116 A 3 2.68925 180 0 0 8.09024 22.55288" />
    <path d="M 9.96017 22.05871 A 3 2.68925 180 0 0 10.7521 21.31256" />
    <path d="M 11.20965 19.61381 A 3 2.68925 180 0 0 10.88477 18.62594" />
    <path d="M 9.80472 -3.26559 A 1.99 1.78387 0 0 1 6.64108 -3.26559 L 6.43066 -3.5127" />
    <path d="M 10.7521 -4.39383 A 3 2.68925 0 0 1 10.60755 -4.2084 A 3 2.68925 0 0 1 9.96017 -3.64768 L 10.7521 -4.39383 L 11.52793 -5.1248" />
    <path d="M 8.09024 -3.15351 A 3 2.68925 0 0 1 6.97342 -3.39523 L 8.09024 -3.15351 L 9.18434 -2.91671 L 9.96017 -3.64768" />
    <path d="M 5.56103 -4.59981 A 3 2.68925 0 0 1 5.42308 -4.87424" />
    <path d="M 5.46341 -4.89665 L 5.56103 -4.59981 L 5.87931 -3.63203 L 6.97342 -3.39523" />
    <path d="M 5.87931 -4.66018 L 5.87931 -3.63203" />
    <path d="M 11.52793 -5.58977 L 11.52793 -5.1248" />
    <path d="M 9.18434 -4.26971 L 9.18434 -2.91671" />
    <path d="M -3.18101 -33.16381 L -3.18101 -32.73726" />
    <path d="M 5.81899 -33.16381 L 5.81899 -30.50238" />
    <path d="M -19.65665 16.92995 L -19.65665 21.36209" />
    <path d="M -17.33849 12.66939 L -17.73314 13.13285" />
    <path d="M -17.33849 -8.65719 L -17.33849 13.27243" />
    <path d="M -19.65665 -17.64071 L -19.65665 -13.20857" />
    <path d="M 11.08012 -21.13881 L 11.08012 -15.61689" />
    <path d="M 11.08012 -4.70288 L 11.08012 17.86399" />
    <path d="M 12.578 -12.61191 L 12.578 -8.17977" />
    <path d="M -17.33849 -17.59001 L -17.33849 -18.47644" />
    <path d="M 6.2329 -12.48833 L 6.2329 -13.37476" />
    <path d="M -0.62407 -33.33809 L -0.62407 -34.22452" />
    <path d="M 10.2129 17.77107 L 10.60755 18.23453" />
    <path d="M 10.2129 -3.74494 L 10.2129 18.37411" />
    <path d="M 9.80472 -3.26559 L 10.60755 -4.2084" />
</svg>