<svg viewBox="0 0 800 800" xmlns="http://www.w3.org/2000/svg"><path d="M518.449358068184,-19.977782152284192 L535.177970362882,-18.551860435448305 M535.177970362882,-18.551860435448305 L551.2999754930008,-15.648503645346068 M551.2999754930008,-15.648503645346068 L566.4112963783484,-11.340020517579887 M566.4112963783484,-11.340020517579887 L580.1327199106915,-5.733780520004586 M580.1327199106915,-5.733780520004586 L592.1193412481942,1.0303568499340372 M592.1193412481942,1.0303568499340372 L602.069146276236,8.783433136366284 M602.069146276236,8.783433136366284 L609.7306268069478,17.33150498219834 M609.7306268069478,17.33150498219834 L614.9092087309796,26.460376141658912 M614.9092087309796,26.460376141658912 L617.4722779875492,35.940900231974354 M617.4722779875492,35.940900231974354 L617.2338136656545,171.10017372725162 M617.2338136656545,171.10017372725162 L617.4634832687586,173.63684847766584 M617.4634832687586,173.63684847766584 L617.5059339543625,176.17698390996725 M617.5059339543625,176.17698390996725 L617.3610237317159,178.71611820962448 M617.3610237317159,178.71611820962448 L616.7922162742896,500.68453436528057 M616.6658324532466,493.0264368179138 L616.8942257985807,495.5771540203131 M616.8942257985807,495.5771540203131 L616.936400701698,498.13134870723485 M616.936400701698,498.13134870723485 L616.7922162742896,500.68453436528057 M616.6658324532466,493.0264368179138 L616.4309614470537,626.1490536937322 M616.4309614470537,626.1490536937322 L613.8932753991701,616.5720385901587 M613.8932753991701,616.5720385901587 L608.7656029877121,607.3501982021592 M608.7656029877121,607.3501982021592 L601.1792342222841,598.7150210962984 M601.1792342222841,598.7150210962984 L591.3268208651184,590.8828979832433 M591.3268208651184,590.8828979832433 L579.4574015641696,584.0497634501078 M579.4574015641696,584.0497634501078 L565.8700375631493,578.3863139680518 M565.8700375631493,578.3863139680518 L550.9062719258498,574.0338500545304 M550.9062719258498,574.0338500545304 L534.9416299201953,571.1008488804164 M534.9416299201953,571.1008488804164 L518.3762650660954,569.6603658758156 M518.3927515756245,436.6643926846722 L518.3762650660954,569.6603658758156 M505.0959512872051,436.6076283099233 L509.52830166575853,436.5198968260479 M509.52830166575853,436.5198968260479 L513.9631494579183,436.53883283478245 M513.9631494579183,436.53883283478245 L518.3927515756245,436.6643926846722 M505.0645098396111,114.9925649923473 L505.0959512872051,436.6076283099233 M505.0645098396111,114.9925649923473 L509.52063055869456,114.90531831581183 M509.52063055869456,114.90531831581183 L513.9792620016997,114.92414968324613 M513.9792620016997,114.92414968324613 L518.4326198126123,115.04901568658954 M518.449358068184,-19.977782152284192 L518.4326198126123,115.04901568658954 M617.4722779875492,35.940900231974354 L626.2841980685494,36.13572127047672 M626.2841980685494,36.13572127047672 L634.7689105079669,37.50607987878266 M634.7689105079669,37.50607987878266 L642.4443869379284,39.97429439041491 M642.4443869379284,39.97429439041491 L648.8743186122836,43.40039170922921 M648.8743186122836,43.40039170922921 L653.6928000420758,47.58997373390821 M653.6928000420758,47.58997373390821 L656.6251642821524,52.30512236753543 M656.6251642821524,52.30512236753543 L657.503692108405,57.27784612880134 M657.503692108405,57.27784612880134 L656.2773541217011,62.22523870454438 M656.2773541217011,62.22523870454438 L653.014956907879,66.86554896561051 M653.014956907879,66.86554896561051 L647.9013905071188,70.93425859351237 M647.9013905071188,70.93425859351237 L641.2273768402279,74.19923664387738 M641.2273768402279,74.19923664387738 L633.3729218536241,76.47407558047996 M633.3729218536241,76.47407558047996 L624.7856618227327,77.62880648789564 M624.7856618227327,77.62880648789564 L615.955291335514,77.5974492352338 M615.955291335514,77.5974492352338 L607.385438189119,76.38178953989006 M607.385438189119,76.38178953989006 L599.5647959747567,74.05130457021994 M599.5647959747567,74.05130457021994 L589.0007955184418,81.57012575982009 M589.0007955184418,81.57012575982009 L576.4621637497949,88.04816112047786 M576.4621637497949,88.04816112047786 L562.265064654872,93.32070692871974 M562.265064654872,93.32070692871974 L546.7682495479023,97.25355175542006 M546.7682495479023,97.25355175542006 L530.3639460013754,99.74649997963047 M530.3639460013754,99.74649997963047 L513.4677391709217,100.73598601680993 M513.4677391709217,100.73598601680993 L496.50792462504876,100.19677966324917 M496.50792462504876,100.19677966324917 L479.9144372360472,98.14263279001892 M479.9144372360472,98.14263279001892 L464.1077540841464,94.62592152836766 M464.1077540841464,94.62592152836766 L459.3871429155838,98.86399973490626 M459.3871429155838,98.86399973490626 L453.0300944495039,102.34930658798635 M453.0300944495039,102.34930658798635 L445.3984602899087,104.8828722415459 M445.3984602899087,104.8828722415459 L436.9271071214595,106.31998583448251 M436.9271071214595,106.31998583448251 L428.0990634580663,106.5785241446896 M428.0990634580663,106.5785241446896 L419.41784338175734,105.64370396802417 M419.41784338175734,105.64370396802417 L411.37850206109135,103.56895725529574 M411.37850206109135,103.56895725529574 L404.43929969718005,100.47281584769098 M404.43929969718005,100.47281584769098 L398.99542635834365,96.53207865894245 M398.99542635834365,96.53207865894245 L395.3564731063544,91.9716109240552 M395.3564731063544,91.9716109240552 L393.7288542849994,87.051426490361 M393.7288542849994,87.051426490361 L394.2042410824911,82.05176683951635 M394.2042410824911,82.05176683951635 L396.7545197810243,77.25713639949402 M396.7545197810243,77.25713639949402 L401.2336614486637,72.9400948825388 M401.2336614486637,72.9400948825388 L407.38623756556734,69.34582558641705 M407.38623756556734,69.34582558641705 L414.86202877456867,66.67830457487759 M414.86202877456867,66.67830457487759 L408.6975651872902,57.73359937477255 M408.6975651872902,57.73359937477255 L405.11428666537324,48.35228424018021 M405.11428666537324,48.35228424018021 L404.2000959421131,38.77134433612457 M404.2000959421131,38.77134433612457 L405.97542821948895,29.23234511612128 M405.97542821948895,29.23234511612128 L410.3930063118065,19.975329427732845 M410.3930063118065,19.975329427732845 L417.33925270173927,11.232788902104517 M417.33925270173927,11.232788902104517 L426.63742664679756,3.2239105214587767 M426.63742664679756,3.2239105214587767 L438.05221089367774,-3.850869586530905 M438.05221089367774,-3.850869586530905 L451.29575159118804,-9.814762603224722 M451.29575159118804,-9.814762603224722 L447.2043459532872,-14.21567669866181 M447.2043459532872,-14.21567669866181 L445.0765733474238,-19.038567553149335 M445.0765733474238,-19.038567553149335 L445.0326280189009,-24.00865571989675 M445.0326280189009,-24.00865571989675 L447.07395689220715,-28.843063559667428 M447.07395689220715,-28.843063559667428 L451.08346209158003,-33.26689820081032 M451.08346209158003,-33.26689820081032 L456.8323068866545,-37.02886181398492 M456.8323068866545,-37.02886181398492 L463.9931548875875,-39.915423062127104 M463.9931548875875,-39.915423062127104 L472.1587880556035,-41.76283500374774 M472.1587880556035,-41.76283500374774 L480.8652041347765,-42.46637435757458 M480.8652041347765,-42.46637435757458 L489.617869611563,-41.98615446337328 M489.617869611563,-41.98615446337328 L497.9196504280188,-40.34939377124829 M497.9196504280188,-40.34939377124829 L505.29886762278954,-37.648885732023814 M505.29886762278954,-37.648885732023814 L511.3359408482601,-34.03779200474611 M511.3359408482601,-34.03779200474611 L515.6872209974788,-29.721055960727767 M515.6872209974788,-29.721055960727767 L518.1045155425463,-24.943856268978436 M518.1045155425463,-24.943856268978436 L518.449358068184,-19.977782152284192 M485.4704325564911,-13.646679507245665 L489.12030457964266,-14.476338708268884 M489.12030457964266,-14.476338708268884 L492.3127805888083,-15.775125360793595 M492.3127805888083,-15.775125360793595 L494.8622444289198,-17.46745258113816 M494.8622444289198,-17.46745258113816 L496.6205676017998,-19.454849544143144 M496.6205676017998,-19.454849544143144 L497.4856921607323,-21.62171500628267 M497.4856921607323,-21.62171500628267 L497.4075273021041,-23.842078529629703 M497.4075273021041,-23.842078529629703 L496.39083093828054,-25.986897588076204 M496.39083093828054,-25.986897588076204 L494.4948626167618,-27.93158419382371 M494.4948626167618,-27.93158419382371 L491.8299381470114,-29.563221323899427 M491.8299381470114,-29.563221323899427 L488.55092874422036,-30.78710341481093 M488.55092874422036,-30.78710341481093 L484.84833400322015,-31.532209961551985 M484.84833400322015,-31.532209961551985 L480.9371617877699,-31.75531459266506 M480.9371617877699,-31.75531459266506 L477.04450995036495,-31.44347194929759 M477.04450995036495,-31.44347194929759 L473.3964077414681,-30.6147783499743 M473.3964077414681,-30.6147783499743 L470.2047176901766,-29.31730648298992 M470.2047176901766,-29.31730648298992 L467.65486058530166,-27.626350682464306 M467.65486058530166,-27.626350682464306 L465.89505501993756,-25.640067596343954 M465.89505501993756,-25.640067596343954 L465.0277110821323,-23.473793081732822 M465.0277110821323,-23.473793081732822 L465.10341483683663,-21.253378295180198 M465.10341483683663,-21.253378295180198 L466.1179798265324,-19.107864530815505 M466.1179798265324,-19.107864530815505 L468.0126292525127,-17.162002046722534 M468.0126292525127,-17.162002046722534 L470.6773626330835,-15.528978448541011 M470.6773626330835,-15.528978448541011 L473.9573295622775,-14.303821249383645 M473.9573295622775,-14.303821249383645 L477.6618319225077,-13.557837537320324 M477.6618319225077,-13.557837537320324 L481.5754144179752,-13.334454987738411 M481.5754144179752,-13.334454987738411 L485.4704325564911,-13.646679507245665 M441.1011092041086,79.72412419429611 L437.99809683722435,78.34495380237433 M437.99809683722435,78.34495380237433 L434.4020450719716,77.4272218952857 M434.4020450719716,77.4272218952857 L430.52181498239986,77.02416709976791 M430.52181498239986,77.02416709976791 L426.58271193394853,77.15917175483094 M426.58271193394853,77.15917175483094 L422.8134432011644,77.8244091291707 M422.8134432011644,77.8244091291707 L419.4329013175246,78.98128097149328 M419.4329013175246,78.98128097149328 L416.63744446012095,80.56266416892993 M416.63744446012095,80.56266416892993 L414.5895403514449,82.476770937423 M414.5895403514449,82.476770937423 L413.4082970629038,84.6124711408196 M413.4082970629038,84.6124711408196 L413.1625475261734,86.84570779094963 M413.1625475261734,86.84570779094963 L413.8667756284737,89.04671283318402 M413.8667756284737,89.04671283318402 L415.4802510594208,91.08753024192475 M415.4802510594208,91.08753024192475 L417.90935737215983,92.84945854453406 M417.90935737215983,92.84945854453406 L421.01295912508743,94.22999309922466 M421.01295912508743,94.22999309922466 L424.6106516136209,95.1487766516214 M424.6106516136209,95.1487766516214 L428.4931978840943,95.55232966263782 M428.4931978840943,95.55232966263782 L432.43476196425974,95.41715565744812 M432.43476196425974,95.41715565744812 L436.20607279102614,94.75112015783009 M436.20607279102614,94.75112015783009 L439.58777000673496,93.59300426207716 M439.58777000673496,93.59300426207716 L442.3832307638745,92.0102160768227 M442.3832307638745,92.0102160768227 L444.4299864466389,90.09486525487364 M444.4299864466389,90.09486525487364 L445.60919207202784,87.95836692756234 M445.60919207202784,87.95836692756234 L445.8524815174212,85.72496092534237 M445.8524815174212,85.72496092534237 L445.14593446858504,83.52445409806728 M445.14593446858504,83.52445409806728 L443.53081247616734,81.48468833820476 M443.53081247616734,81.48468833820476 L441.1011092041086,79.72412419429611 M566.9528024331925,8.498562445238974 L577.0939968524578,15.520438840074178 M577.0939968524578,15.520438840074178 L584.534353561014,23.555262868939394 M584.534353561014,23.555262868939394 L588.967589943242,32.275461178625335 M588.967589943242,32.275461178625335 L590.209699462989,41.32491725218813 M590.209699462989,41.32491725218813 L588.2069038252401,50.33340545762428 M588.2069038252401,50.33340545762428 L583.0383329425376,58.931700106220376 M583.0383329425376,58.931700106220376 L574.9132387633731,66.76676484900611 M574.9132387633731,66.76676484900611 L564.1628179358848,73.51636540711843 M564.1628179358848,73.51636540711843 L551.2268837289254,78.90250116332868 M551.2268837289254,78.90250116332868 L536.635926450906,82.70306271549754 M536.635926450906,82.70306271549754 L520.9892261954918,84.76117683657799 M520.9892261954918,84.76117683657799 L504.9300282948935,84.99184403142709 M504.9300282948935,84.99184403142709 L489.11875969414035,83.38553381453119 M489.11875969414035,83.38553381453119 L474.20551675034153,80.00859518352303 M474.20551675034153,80.00859518352303 L460.80301264713285,75.00043566864923 M460.80301264713285,75.00043566864923 L449.4610995272382,68.56763881248696 M449.4610995272382,68.56763881248696 L440.64411180937503,60.9752438051716 M440.64411180937503,60.9752438051716 L434.7118495938465,52.53561687125284 M434.7118495938465,52.53561687125284 L431.90502042512753,43.59543741731056 M431.90502042512753,43.59543741731056 L432.3357593287864,34.521293575443735 M432.3357593287864,34.521293575443735 L435.9834729735951,25.684589844022014 M435.9834729735951,25.684589844022014 L442.6961729884707,17.4463618737679 M442.6961729884707,17.4463618737679 L452.19711777860806,10.1426076588412 M452.19711777860806,10.1426076588412 L464.0964648161874,4.070751505757812 M464.0964648161874,4.070751505757812 L477.9073556322483,-0.522288873266973 M477.9073556322483,-0.522288873266973 L493.06580615504305,-3.449933841564075 M493.06580615504305,-3.449933841564075 L508.95356654749133,-4.593347541619892 M508.95356654749133,-4.593347541619892 L524.9230444279879,-3.9061341421762563 M524.9230444279879,-3.9061341421762563 L540.3233678988297,-1.416176807901195 M540.3233678988297,-1.416176807901195 L554.5265520039657,2.77546578703857 M554.5265520039657,2.77546578703857 L566.9528024331925,8.498562445238974 M606.3043823635887,54.647064389204445 L605.757546986173,56.8576705508425 M605.757546986173,56.8576705508425 L606.1611412368379,59.07944831806907 M606.1611412368379,59.07944831806907 L607.4919169300636,61.183254919780495 M607.4919169300636,61.183254919780495 L609.6727002699374,63.04674896552433 M609.6727002699374,63.04674896552433 L612.5768416480684,64.56152301852478 M612.5768416480684,64.56152301852478 L616.0355389922486,65.63942283221792 M616.0355389922486,65.63942283221792 L619.8476706013125,66.21770181014165 M619.8476706013125,66.21770181014165 L623.7915032022552,66.26269467682721 M623.7915032022552,66.26269467682721 L627.6376345409772,65.7717834990492 M627.6376345409772,65.7717834990492 L631.1623395747749,64.77354354791896 M631.1623395747749,64.77354354791896 L634.1606569876162,63.32609065156532 M634.1606569876162,63.32609065156532 L636.4582991377347,61.51366186952703 M636.4582991377347,61.51366186952703 L637.9217983463909,59.44170151047706 M637.9217983463909,59.44170151047706 L638.4662645326002,57.23070719360999 M638.4662645326002,57.23070719360999 L638.0602476389527,55.00920962092391 M638.0602476389527,55.00920962092391 L636.7275564021402,52.90629051172539 M636.7275564021402,52.90629051172539 L634.5458027860047,51.04408202611859 M634.5458027860047,51.04408202611859 L631.6418685427816,49.53070892799525 M631.6418685427816,49.53070892799525 L628.184500559578,48.45399148098312 M628.184500559578,48.45399148098312 L624.3745138917996,47.87641289737667 M624.3745138917996,47.87641289737667 L620.4331448760931,47.83147486600819 M620.4331448760931,47.83147486600819 L616.5892544431952,48.32178710595315 M616.5892544431952,48.32178710595315 L613.0660256633062,49.31890406568277 M613.0660256633062,49.31890406568277 L610.0680998175519,50.76497431122618 M610.0680998175519,50.76497431122618 L607.769674841821,52.576077530187774 M607.769674841821,52.576077530187774 L606.3043823635887,54.647064389204445 M451.29575159118804,-9.814762603224722 L451.4291178100682,125.23614783395993 M445.3251651155634,116.41444871737593 L446.5573456541786,119.52036149278592 M446.5573456541786,119.52036149278592 L448.60781401185557,122.4839213176844 M448.60781401185557,122.4839213176844 L451.4291178100682,125.23614783395993 M515.9616239437157,105.67852813775266 L510.9631938548463,82.7160152400138 M510.9631938548463,82.7160152400138 L505.605593838124,67.68237971674989 M505.605593838124,67.68237971674989 L498.289833247467,53.985619752819275 M498.289833247467,53.985619752819275 L491.94833307279896,46.05107487671967 M491.94833307279896,46.05107487671967 L487.3654356005125,42.043723935963044 M487.3654356005125,42.043723935963044 L483.16807511427,39.49081955701155 M483.16807511427,39.49081955701155 L479.55928694470407,38.10692016652354 M479.55928694470407,38.10692016652354 L475.289464155428,37.43054266020653 M475.289464155428,37.43054266020653 L471.45818626319954,37.739759429774494 M471.45818626319954,37.739759429774494 L467.72515938309033,38.93961736924871 M467.72515938309033,38.93961736924871 L464.52315518611454,40.75845117269944 M464.52315518611454,40.75845117269944 L461.8563509819427,42.912986260950845 M461.8563509819427,42.912986260950845 L458.9514867410179,46.04464629976178 M458.9514867410179,46.04464629976178 L455.5709458502368,50.991172125037224 M455.5709458502368,50.991172125037224 L451.91331670823337,58.61166663991071 M451.91331670823337,58.61166663991071 L448.3628729219025,70.12905672945436 M448.3628729219025,70.12905672945436 L445.6450200429891,87.28314359084573 M445.6450200429891,87.28314359084573 L444.933798476894,101.96020558341411 M444.933798476894,101.96020558341411 L445.3251651155634,116.41444871737593 M518.4326198126123,115.04901568658954 L518.4554706537704,111.86551921055138 M518.4554706537704,111.86551921055138 L517.625284919003,108.71765349011503 M517.625284919003,108.71765349011503 L515.9616239437157,105.67852813775266 M508.18382116994667,108.39010081738195 L505.0645098396111,114.9925649923473 M503.52724998653684,105.74844548730266 L508.18382116994667,108.39010081738195 M503.52724998653684,105.74844548730266 L507.6698768395726,105.64564952070566 M507.6698768395726,105.64564952070566 L511.8162376727025,105.62233552313438 M511.8162376727025,105.62233552313438 L515.9616239437157,105.67852813775266 M501.0509444916033,538.4689999843133 L508.20290656390125,523.1170541587779 M508.19861994243325,429.9684680842786 L508.20290656390125,523.1170541587779 M505.0959512872051,436.6076283099233 L508.19861994243325,429.9684680842786 M508.17947492171055,13.945820876590346 L508.18382116994667,108.39010081738195 M508.17947492171055,13.945820876590346 L500.96665828038925,29.163657908109826 M500.96665828038925,29.163657908109826 L501.0509444916033,538.4689999843133 M515.9349452518695,427.24182005441696 L517.5897308872729,430.29784164802425 M517.5897308872729,430.29784164802425 L518.4154848342503,433.46320460317196 M518.4154848342503,433.46320460317196 L518.3927515756245,436.6643926846722 M515.9349452518695,427.24182005441696 L511.8116647798287,427.1853150010553 M511.8116647798287,427.1853150010553 L507.68741490570346,427.20875862783157 M507.68741490570346,427.20875862783157 L503.56687924138527,427.31212615253264 M508.19861994243325,429.9684680842786 L503.56687924138527,427.31212615253264 M445.6752914514368,438.03741268521753 L445.6255788048798,450.01212987283657 M445.6255788048798,450.01212987283657 L447.45599045221303,457.3907704678528 M447.45599045221303,457.3907704678528 L451.360488973417,463.7145497760729 M451.360488973417,463.7145497760729 L455.5929931856579,467.11840333438414 M455.5929931856579,467.11840333438414 L459.038530062001,468.70026739998866 M459.038530062001,468.70026739998866 L462.4511860013687,469.5954287538723 M462.4511860013687,469.5954287538723 L465.57498742588274,469.9699471348884 M465.57498742588274,469.9699471348884 L469.4984907301089,469.95041174950745 M469.4984907301089,469.95041174950745 L473.2374277680821,469.49486617073893 M473.2374277680821,469.49486617073893 L477.09529754431054,468.62208008627505 M477.09529754431054,468.62208008627505 L480.5927965863311,467.4953393883507 M480.5927965863311,467.4953393883507 L483.6575660314771,466.24857663913104 M483.6575660314771,466.24857663913104 L487.1808109015643,464.5087440319253 M487.1808109015643,464.5087440319253 L491.5843201286813,461.8427038191406 M491.5843201286813,461.8427038191406 L496.8688509600962,457.82126011014725 M496.8688509600962,457.82126011014725 L502.9228243156,451.80676028993287 M502.9228243156,451.80676028993287 L509.38083860630394,442.82688526030796 M509.38083860630394,442.82688526030796 L513.259310938901,435.042097059364 M513.259310938901,435.042097059364 L515.9349452518695,427.24182005441696 M451.7467770805306,446.908112781238 L448.94049720644773,444.1406018075831 M448.94049720644773,444.1406018075831 L446.9009349759828,441.1605807949337 M446.9009349759828,441.1605807949337 L445.6752914514368,438.03741268521753 M451.7467770805306,446.908112781238 L451.87813676156196,579.9271386409157 M518.3762650660954,569.6603658758156 L518.0347992051659,564.6435682909391 M518.0347992051659,564.6435682909391 L515.6410958623909,559.8175586009297 M515.6410958623909,559.8175586009297 L511.3322615710342,555.4567040103966 M511.3322615710342,555.4567040103966 L505.3540626599697,551.8086939948173 M505.3540626599697,551.8086939948173 L498.0467963526373,549.0805728575465 M498.0467963526373,549.0805728575465 L489.82595599787817,547.427073649372 M489.82595599787817,547.427073649372 L481.15862966522405,546.9419423900198 M481.15862966522405,546.9419423900198 L472.5371141856682,547.6526770168207 M472.5371141856682,547.6526770168207 L464.45113028616373,549.5189813136178 M464.45113028616373,549.5189813136178 L457.3601615333018,552.4350570558818 M457.3601615333018,552.4350570558818 L451.667455403479,556.2354775392257 M451.667455403479,556.2354775392257 L447.6971503231942,560.7045228525208 M447.6971503231942,560.7045228525208 L445.67583987093826,565.588322246964 M445.67583987093826,565.588322246964 L445.7194646586508,570.6091717404818 M445.7194646586508,570.6091717404818 L447.82657564205635,575.4813046180054 M447.82657564205635,575.4813046180054 L451.87813676156196,579.9271386409157 M598.6974337433402,664.6467271945266 L606.4414456753459,667.0008622435598 M606.4414456753459,667.0008622435598 L614.9273600191075,668.2288571660279 M614.9273600191075,668.2288571660279 L623.6712787606175,668.260532585698 M623.6712787606175,668.260532585698 L632.174514934833,667.0940847401022 M632.174514934833,667.0940847401022 L639.9521745509317,664.7961606118919 M639.9521745509317,664.7961606118919 L646.5610039385147,661.4980432857083 M646.5610039385147,661.4980432857083 L651.624710071435,657.3880265091409 M651.624710071435,657.3880265091409 L654.8554023709912,652.7005923598497 M654.8554023709912,652.7005923598497 L656.0699801614021,647.7029413820723 M656.0699801614021,647.7029413820723 L655.2002867252911,642.6796852599359 M655.2002867252911,642.6796852599359 L652.2968286439991,637.9166063202975 M652.2968286439991,637.9166063202975 L647.5256639905106,633.6844238883275 M647.5256639905106,633.6844238883275 L641.1587584567496,630.2234806126598 M641.1587584567496,630.2234806126598 L633.5584315761112,627.7301576197361 M633.5584315761112,627.7301576197361 L625.1567254756412,626.3458569490949 M625.1567254756412,626.3458569490949 L616.4309614470537,626.1490536937322 M598.6974337433402,664.6467271945266 L588.2366500426403,672.2418372561257 M588.2366500426403,672.2418372561257 L575.82064947291,678.7855707055298 M575.82064947291,678.7855707055298 L561.7625016062079,684.1115680406949 M561.7625016062079,684.1115680406949 L546.4174364745359,688.084270693068 M546.4174364745359,688.084270693068 L530.1738239310932,690.6024785605564 M530.1738239310932,690.6024785605564 L513.4431561865435,691.6019893420196 M513.4431561865435,691.6019893420196 L496.6495077117064,691.0573202283797 M496.6495077117064,691.0573202283797 L480.21857574332455,688.9823607668221 M480.21857574332455,688.9823607668221 L464.56669510850395,685.4300116298654 M415.8024819611122,657.1988808706749 L408.3999441233333,659.8934852069278 M408.3999441233333,659.8934852069278 L402.3077161423091,663.5242395100662 M402.3077161423091,663.5242395100662 L397.8725819336604,667.8850912964695 M397.8725819336604,667.8850912964695 L395.347455526693,672.7283639537345 M395.347455526693,672.7283639537345 L394.8769172199552,677.778729364765 M394.8769172199552,677.778729364765 L396.48878430127513,682.748797079792 M396.48878430127513,682.748797079792 L400.0922631398038,687.3554865333829 M400.0922631398038,687.3554865333829 L405.4829448469761,691.336152990873 M405.4829448469761,691.336152990873 L412.3542608748576,694.4636585095393 M412.3542608748576,694.4636585095393 L420.3148896795754,696.5594189229465 M420.3148896795754,696.5594189229465 L428.9110645307203,697.5037063100053 M428.9110645307203,697.5037063100053 L437.6525895355814,697.2425497620466 M437.6525895355814,697.2425497620466 L446.0408954253211,695.7908815855204 M446.0408954253211,695.7908815855204 L453.59769750266696,693.2316534742663 M453.59769750266696,693.2316534742663 L459.892398176739,689.7110369159415 M459.892398176739,689.7110369159415 L464.56669510850395,685.4300116298654 M415.8024819611122,657.1988808706749 L409.69804481576534,648.1633251164899 M409.69804481576534,648.1633251164899 L406.14949542800395,638.6866668613252 M406.14949542800395,638.6866668613252 L405.24390790218996,629.0082937846719 M405.24390790218996,629.0082937846719 L407.0015512577789,619.372226419285 M407.0015512577789,619.372226419285 L411.3756435947069,610.0209533692097 M411.3756435947069,610.0209533692097 L418.25374704402407,601.1893409503489 M418.25374704402407,601.1893409503489 L427.46087130630036,593.098820238165 M427.46087130630036,593.098820238165 L438.7640133095057,585.9518839983057 M438.7640133095057,585.9518839983057 L451.87813676156196,579.9271386409157 M441.78507396222085,670.3771089740299 L444.1910276204838,672.1555331674385 M444.1910276204838,672.1555331674385 L445.79037962948274,674.2159887253755 M445.79037962948274,674.2159887253755 L446.49005544403514,676.4388126376002 M446.49005544403514,676.4388126376002 L446.2491967215692,678.694866043033 M446.2491967215692,678.694866043033 L445.081586693604,680.8530259534191 M445.081586693604,680.8530259534191 L443.0549208940069,682.7877935662984 M443.0549208940069,682.7877935662984 L440.28687873499985,684.3866253357681 M440.28687873499985,684.3866253357681 L436.9383352937461,685.5564791484124 M436.9383352937461,685.5564791484124 L433.2039847904306,686.2292647453526 M433.2039847904306,686.2292647453526 L429.3010360702934,686.365808667572 M429.3010360702934,686.365808667572 L425.45651199415056,685.9581658237746 M425.45651199415056,685.9581658237746 L421.89403497724214,685.0300703934524 M421.89403497724214,685.0300703934524 L418.8207925294127,683.6355430410078 M418.8207925294127,683.6355430410078 L416.41542415929973,681.8557543501059 M416.41542415929973,681.8557543501059 L414.8176865920599,679.79424688211 M414.8176865920599,679.79424688211 L414.12028451421867,677.5709246311922 M414.12028451421867,677.5709246311922 L414.3635553850607,675.3150406199086 M414.3635553850607,675.3150406199086 L415.5331633831507,673.1576790316543 M415.5331633831507,673.1576790316543 L417.56095525885627,671.2241557811958 M417.56095525885627,671.2241557811958 L420.32899363157844,669.6267293484761 M420.32899363157844,669.6267293484761 L423.6764042914808,668.4581198982247 M423.6764042914808,668.4581198982247 L427.40875252274526,667.786132624778 M427.40875252274526,667.786132624778 L431.30928818148914,667.6497580947433 M431.30928818148914,667.6497580947433 L435.1515412060981,668.0569025993098 M435.1515412060981,668.0569025993098 L438.71240944959084,668.9839461231464 M438.71240944959084,668.9839461231464 L441.78507396222085,670.3771089740299 M485.71919774739354,576.0561102726492 L481.86219796504065,576.3715219640546 M481.86219796504065,576.3715219640546 L477.98680992737934,576.1458591435427 M477.98680992737934,576.1458591435427 L474.3184544465554,575.3922602465092 M474.3184544465554,575.3922602465092 L471.0704829280414,574.1545955275238 M471.0704829280414,574.1545955275238 L468.4317324739035,572.5048989644351 M468.4317324739035,572.5048989644351 L466.5555437633389,570.5391671219581 M466.5555437633389,570.5391671219581 L465.55084656878216,568.3717423843777 M465.55084656878216,568.3717423843777 L465.47584778641453,566.1286484325216 M465.47584778641453,566.1286484325216 L466.3346970137974,563.9402445337728 M466.3346970137974,563.9402445337728 L468.0773054494838,561.9336679690125 M468.0773054494838,561.9336679690125 L470.6022649891615,560.2254338964333 M470.6022649891615,560.2254338964333 L473.762804611668,558.9147030888845 M473.762804611668,558.9147030888845 L477.3753125618198,558.0775404273663 M477.3753125618198,558.0775404273663 L481.2299919710589,557.7625107024085 M481.2299919710589,557.7625107024085 L485.10301653096724,557.9878955051374 M485.10301653096724,557.9878955051374 L488.7695014011645,558.7406169387798 M488.7695014011645,558.7406169387798 L492.0165340283583,559.9770061246302 M492.0165340283583,559.9770061246302 L494.6554717673583,561.6253157087729 M494.6554717673583,561.6253157087729 L496.53295377726187,563.5898712373178 M496.53295377726187,563.5898712373178 L497.5397409502737,565.7566010207252 M497.5397409502737,565.7566010207252 L497.61715307082045,567.9996437372124 M497.61715307082045,567.9996437372124 L496.76048010352173,570.1886387485101 M496.76048010352173,570.1886387485101 L495.01932533810736,572.196329618971 M495.01932533810736,572.196329618971 L492.49475143975656,573.9059356014469 M492.49475143975656,573.9059356014469 L489.3334410812058,575.2179816336043 M489.3334410812058,575.2179816336043 L485.71919774739354,576.0561102726492 M566.4058909995342,598.4272467109058 L554.1010939519696,592.645802789242 M554.1010939519696,592.645802789242 L540.0366504929782,588.4114121720763 M540.0366504929782,588.4114121720763 L524.7867077093133,585.8960556630976 M524.7867077093133,585.8960556630976 L508.97314266828664,585.2018315065367 M508.97314266828664,585.2018315065367 L493.2405008991043,586.3569098145379 M493.2405008991043,586.3569098145379 L478.23007970808857,589.3144173218025 M478.23007970808857,589.3144173218025 L464.55411403530854,593.9542959457922 M464.55411403530854,593.9542959457922 L452.77109205051465,600.0880489662044 M452.77109205051465,600.0880489662044 L443.36311581625205,607.4662251554821 M443.36311581625205,607.4662251554821 L436.71620476347414,615.7883538012013 M436.71620476347414,615.7883538012013 L433.1043697716096,624.7150024022624 M433.1043697716096,624.7150024022624 L432.67807879365,633.8814531181549 M432.67807879365,633.8814531181549 L435.45768551930576,642.91252239607 M435.45768551930576,642.91252239607 L441.3321152970324,651.4379008659132 M441.3321152970324,651.4379008659132 L450.0629862002779,659.107398003038 M450.0629862002779,659.107398003038 L461.29400086592574,665.6054906468014 M461.29400086592574,665.6054906468014 L474.5653649028534,670.6644659218215 M474.5653649028534,670.6644659218215 L489.3326175951231,674.0756594315062 M489.3326175951231,674.0756594315062 L504.98906461469534,675.6982609864899 M504.98906461469534,675.6982609864899 L520.891002237018,675.4652544518376 M520.891002237018,675.4652544518376 L536.3844995239415,673.3862661245762 M536.3844995239415,673.3862661245762 L550.8326352393303,669.5471502699486 M550.8326352393303,669.5471502699486 L563.6420139558154,664.1063588790842 M563.6420139558154,664.1063588790842 L574.2873438050659,657.2882393583445 M574.2873438050659,657.2882393583445 L582.3331078844567,649.3735979765993 M582.3331078844567,649.3735979765993 L587.4513291137165,640.68792732829 M587.4513291137165,640.68792732829 L589.4347710802779,631.5878412580914 M589.4347710802779,631.5878412580914 L588.205040391852,622.4463156684758 M588.205040391852,622.4463156684758 L583.8153516481698,613.6373454834793 M583.8153516481698,613.6373454834793 L576.4478798067919,605.5206813231175 M576.4478798067919,605.5206813231175 L566.4058909995342,598.4272467109058 M605.3716579351982,645.0454279578139 L606.8226823650684,642.9533942734843 M606.8226823650684,642.9533942734843 L609.0986837614173,641.1238829792851 M609.0986837614173,641.1238829792851 L612.0673348713078,639.6631132702014 M612.0673348713078,639.6631132702014 L615.556138479338,638.6558596853072 M615.556138479338,638.6558596853072 L619.3624516124546,638.1605627176418 M619.3624516124546,638.1605627176418 L623.2652711581889,638.2059576153513 M623.2652711581889,638.2059576153513 L627.0379725677278,638.7894080798321 M627.0379725677278,638.7894080798321 L630.4614827891055,639.8770712404332 M630.4614827891055,639.8770712404332 L633.3369522339772,641.4058276925532 M633.3369522339772,641.4058276925532 L635.4972879222728,643.2869633054202 M635.4972879222728,643.2869633054202 L636.8168544697278,645.4112532670742 M636.8168544697278,645.4112532670742 L637.2188058237807,647.6553235036392 M637.2188058237807,647.6553235036392 L636.6795736059128,649.8887804567772 M636.6795736059128,649.8887804567772 L635.2303075472987,651.9817879424403 M635.2303075472987,651.9817879424403 L632.9550736321494,653.8126251367214 M632.9550736321494,653.8126251367214 L629.9860385290742,655.2747778804892 M629.9860385290742,655.2747778804892 L626.4957874242143,656.2831547995854 M626.4957874242143,656.2831547995854 L622.6872769155266,656.7790508558601 M622.6872769155266,656.7790508558601 L618.7820418355834,656.7336011231191 M618.7820418355834,656.7336011231191 L615.0072372743517,656.1494500698668 M615.0072372743517,656.1494500698668 L611.5824235921768,655.0606042298284 M611.5824235921768,655.0606042298284 L608.7067510694529,653.5304463873456 M608.7067510694529,653.5304463873456 L606.547366865756,651.6480248884427 M606.547366865756,651.6480248884427 L605.2296786234435,649.5228471723642 M605.2296786234435,649.5228471723642 L604.8301027513257,647.2784966634661 M604.8301027513257,647.2784966634661 L605.3716579351982,645.0454279578139 M614.4133315147792,534.9534464814151 L608.9492621150405,534.2419070371866 M608.9492621150405,534.2419070371866 L603.7353830410639,533.0609312035169 M603.7353830410639,533.0609312035169 L598.8930670839081,531.438073108377 M633.1349193718834,494.4407666813175 L641.9034245885496,515.0853977564518 M641.9034245885496,515.0853977564518 L647.5124921622669,529.8649062198912 M647.5124921622669,529.8649062198912 L652.3422943834141,544.881842063427 M652.3422943834141,544.881842063427 L654.8205268980926,554.968193313579 M654.8205268980926,554.968193313579 L655.8323063018463,560.9903588612658 M655.8323063018463,560.9903588612658 L656.2414561578757,565.6938935158184 M656.2414561578757,565.6938935158184 L656.2114070562811,569.1521312976126 M656.2114070562811,569.1521312976126 L655.7182225654815,572.5526985465463 M655.7182225654815,572.5526985465463 L654.836644875744,574.9467951832023 M654.836644875744,574.9467951832023 L653.5462361440514,576.6351765543752 M653.5462361440514,576.6351765543752 L652.0612949085855,577.5165213055232 M652.0612949085855,577.5165213055232 L650.52003931185,577.790182448598 M650.52003931185,577.790182448598 L648.4707415188975,577.521552674069 M648.4707415188975,577.521552674069 L645.4784893382728,576.2644075461985 M645.4784893382728,576.2644075461985 L641.2004214017431,573.247878335276 M641.2004214017431,573.247878335276 L635.1996816581943,567.2862851371972 M635.1996816581943,567.2862851371972 L626.9615254266844,556.5275768813729 M626.9615254266844,556.5275768813729 L620.4324873508738,546.0942931664914 M620.4324873508738,546.0942931664914 L614.4133315147792,534.9534464814151 M616.6658324532466,493.0264368179138 L622.2577799979292,493.0128844071219 M622.2577799979292,493.0128844071219 L627.7902460739922,493.48799380966835 M627.7902460739922,493.48799380966835 L633.1349193718834,494.4407666813175 M598.8930670839081,531.438073108377 L598.6974337433402,664.6467271945266 M628.3871605291472,498.89759876804226 L616.7922162742896,500.68453436528057 M633.0412680432073,501.5667682536429 L628.3871605291472,498.89759876804226 M633.0412680432073,501.5667682536429 L633.2122272443455,499.19230454997563 M633.2122272443455,499.19230454997563 L633.2434441379839,496.8160646920854 M633.2434441379839,496.8160646920854 L633.1349193718834,494.4407666813175 M628.2043624303774,592.154820850311 L601.4826314841373,596.2859001814053 M601.4826314841373,596.2859001814053 L602.2542337436364,86.47668881154169 M602.2542337436364,86.47668881154169 L629.2035942632597,82.38154871071168 M629.0182474881092,176.93901669730872 L629.2035942632597,82.38154871071168 M617.3610237317159,178.71611820962448 L629.0182474881092,176.93901669730872 M628.2043624303774,592.154820850311 L628.3871605291472,498.89759876804226 M633.7914229839964,172.50671699811926 L628.418010321765,171.55918953817434 M628.418010321765,171.55918953817434 L622.8558073601379,171.08669593272782 M622.8558073601379,171.08669593272782 L617.2338136656545,171.10017372725162 M633.7914229839964,172.50671699811926 L633.9005836399442,174.8689394233464 M633.9005836399442,174.8689394233464 L633.8692517401241,177.23210053895656 M633.8692517401241,177.23210053895656 L633.6974263921452,179.59349730232555 M629.0182474881092,176.93901669730872 L633.6974263921452,179.59349730232555 M614.9699972816422,212.7966593405 L625.1805573750476,194.84909038198344 M625.1805573750476,194.84909038198344 L632.7928990809621,181.94980459696237 M632.7928990809621,181.94980459696237 L640.6973402522676,168.7488146649631 M640.6973402522676,168.7488146649631 L646.0443226096363,159.78442431494756 M646.0443226096363,159.78442431494756 L649.2218150919678,154.3674355875927 M649.2218150919678,154.3674355875927 L651.6758397037725,150.08171267719683 M651.6758397037725,150.08171267719683 L653.4492276677029,146.8821172767024 M653.4492276677029,146.8821172767024 L655.1441964719115,143.66694815179244 M655.1441964719115,143.66694815179244 L656.278328483226,141.32351271132018 M656.278328483226,141.32351271132018 L657.0034790122093,139.57060929269733 M657.0034790122093,139.57060929269733 L657.2927243818597,138.5340657172909 M657.2927243818597,138.5340657172909 L657.2657605348575,138.05059105497043 M657.2657605348575,138.05059105497043 L656.9106611213288,137.99251075297968 M656.9106611213288,137.99251075297968 L655.9636464468517,138.70837032888073 M655.9636464468517,138.70837032888073 L654.0250900520905,140.8626553663371 M654.0250900520905,140.8626553663371 L650.5211121304364,145.4949143650797 M650.5211121304364,145.4949143650797 L644.64100224253,154.2629279112919 M644.64100224253,154.2629279112919 L639.265753843754,163.00622022943665 M639.265753843754,163.00622022943665 L633.7914229839964,172.50671699811926 M599.3661657153066,209.30059002081708 L604.234561319116,210.91453592507833 M604.234561319116,210.91453592507833 L609.4765143094289,212.0890268313937 M609.4765143094289,212.0890268313937 L614.9699972816422,212.7966593405 M599.5647959747567,74.05130457021994 L599.3661657153066,209.30059002081708 M462.9667835151779,121.39259412177717 L463.22284266019255,443.04321317301617 M451.4291178100682,125.23614783395993 L455.1796952194639,123.86371982475254 M455.1796952194639,123.86371982475254 L459.0278321055659,122.5817937751275 M459.0278321055659,122.5817937751275 L462.9667835151779,121.39259412177717 M414.86202877456867,66.67830457487759 L415.0773968172289,201.91019329311712 M421.6746876778629,208.5477951414569 L419.3126681942869,206.38824686776633 M419.3126681942869,206.38824686776633 L417.11228943837915,204.17440791574904 M417.11228943837915,204.17440791574904 L415.0773968172289,201.91019329311712 M421.6746876778629,208.5477951414569 L422.1524649204802,530.681120978932 M415.59036256915425,524.0068545424933 L417.61440688117074,526.2835779748937 M417.61440688117074,526.2835779748937 L419.8030493419847,528.5096456224979 M419.8030493419847,528.5096456224979 L422.1524649204802,530.681120978932 M415.59036256915425,524.0068545424933 L415.8024819611122,657.1988808706749 M451.7467770805306,446.908112781238 L455.4773269886448,445.52806335514185 M455.4773269886448,445.52806335514185 L459.3049185376708,444.2390178460014 M459.3049185376708,444.2390178460014 L463.22284266019255,443.04321317301617 M464.1077540841464,94.62592152836766 L464.2128544148203,229.92370912553298 M453.75901261845445,237.40084068872906 L457.900307537701,235.22152259466586 M457.900307537701,235.22152259466586 L461.4121072415577,232.70963440660537 M461.4121072415577,232.70963440660537 L464.2128544148203,229.92370912553298 M401.94455368707725,207.84648619234198 L396.7323657831303,194.84465100031457 M396.7323657831303,194.84465100031457 L394.47753623783433,187.24408278469775 M394.47753623783433,187.24408278469775 L393.8887238928718,181.27615428847378 M393.8887238928718,181.27615428847378 L394.88312065664695,178.58005882199473 M394.88312065664695,178.58005882199473 L396.2884502686696,177.692394743768 M396.2884502686696,177.692394743768 L398.03170498917416,177.5545588432191 M398.03170498917416,177.5545588432191 L399.8670348548318,177.9209567909918 M399.8670348548318,177.9209567909918 L402.4418246288415,178.92474105252327 M402.4418246288415,178.92474105252327 L405.1389188012796,180.36677633645633 M405.1389188012796,180.36677633645633 L408.1467446010684,182.30219470001623 M408.1467446010684,182.30219470001623 L411.05946918439435,184.42932639976738 M411.05946918439435,184.42932639976738 L413.7532153939956,186.58080731498907 M413.7532153939956,186.58080731498907 L417.0131728829296,189.3930619434032 M417.0131728829296,189.3930619434032 L421.34072029682164,193.44966113994084 M421.34072029682164,193.44966113994084 L426.9369225631948,199.21942063158173 M426.9369225631948,199.21942063158173 L433.9913709178309,207.3632583575195 M433.9913709178309,207.3632583575195 L442.58942641963694,218.82414633893725 M442.58942641963694,218.82414633893725 L448.6759753415335,228.27816739769008 M448.6759753415335,228.27816739769008 L453.75901261845445,237.40084068872906 M415.0773968172289,201.91019329311712 L410.1861624933678,203.49993166255425 M410.1861624933678,203.49993166255425 L405.77439092031005,205.49409388581788 M405.77439092031005,205.49409388581788 L401.94455368707725,207.84648619234198 M605.62764141094,524.8205733806858 L603.5447469075177,527.0797722233204 M603.5447469075177,527.0797722233204 L601.2985834657529,529.2869075508803 M601.2985834657529,529.2869075508803 L598.8930670839081,531.438073108377 M464.4631816224144,552.1750012546831 L464.56669510850395,685.4300116298654 M452.8607225401136,548.381730707913 L456.6344675386181,549.7391364201842 M456.6344675386181,549.7391364201842 L460.50422944187284,551.0043096714999 M460.50422944187284,551.0043096714999 L464.4631816224144,552.1750012546831 M452.54796887968706,226.15124537760633 L452.8607225401136,548.381730707913 M464.2128544148203,229.92370912553298 L460.2325983602939,228.75943845330812 M460.2325983602939,228.75943845330812 L456.34201535171553,227.5012048716176 M456.34201535171553,227.5012048716176 L452.54796887968706,226.15124537760633 M606.1368591992716,202.7194411706164 L604.0427989283971,204.96622814063838 M604.0427989283971,204.96622814063838 L601.7845888097795,207.161239399322 M601.7845888097795,207.161239399322 L599.3661657153066,209.30059002081708 M606.1368591992716,202.7194411706164 L605.62764141094,524.8205733806858 M485.487549490021,26.92934890913 L485.4704325564911,-13.646679507245665 M485.487549490021,26.92934890913 L489.1349699851046,26.099096484508664 M489.1349699851046,26.099096484508664 L492.3253015564261,24.79938110896586 M492.3253015564261,24.79938110896586 L494.87305277505124,23.105843640331045 M494.87305277505124,23.105843640331045 L496.6301946266276,21.117025245255377 M496.6301946266276,21.117025245255377 L497.49473764685735,18.94860978417921 M497.49473764685735,18.94860978417921 L497.4166245759173,16.72665776988464 M497.4166245759173,16.72665776988464 L496.4006100309643,14.58030405130512 M496.4006100309643,14.58030405130512 L494.50591369645855,12.634225801363414 M494.50591369645855,12.634225801363414 L491.8427772966025,11.001420915460926 M491.8427772966025,11.001420915460926 L488.5659681221068,9.776662816975602 M488.5659681221068,9.776662816975602 L484.86585799703744,9.031022918005306 M484.86585799703744,9.031022918005306 L480.95731061388324,8.807758582147471 M480.95731061388324,8.807758582147471 L477.06727155528944,9.119824450858573 M477.06727155528944,9.119824450858573 L473.42161849453987,9.949111229608036 M473.42161849453987,9.949111229608036 L470.2320718289413,11.24751176441822 M470.2320718289413,11.24751176441822 L467.6839278724834,12.939677753476303 M467.6839278724834,12.939677753476303 L465.92530561371854,14.927382221034122 M465.92530561371854,14.927382221034122 L465.05854619505504,17.095206711978676 M465.05854619505504,17.095206711978676 L465.1342014637038,19.317209988566276 M465.1342014637038,19.317209988566276 L466.14808749586706,21.464258443335098 M466.14808749586706,21.464258443335098 L468.0414667040848,23.411512623908038 M468.0414667040848,23.411512623908038 L470.70441227775973,25.045704039378165 M470.70441227775973,25.045704039378165 L473.98217769056816,26.271737299573203 M473.98217769056816,26.271737299573203 L477.6841928767934,27.018254401038007 M477.6841928767934,27.018254401038007 L481.5951473049241,27.241796667475 M481.5951473049241,27.241796667475 L485.487549490021,26.92934890913 M441.1481725371187,120.3667125534048 L441.1011092041086,79.72412419429611 M441.1481725371187,120.3667125534048 L438.047248372507,118.98656192708029 M438.047248372507,118.98656192708029 L434.45361755513426,118.06817770088622 M434.45361755513426,118.06817770088622 L430.57600064309247,117.66483640386548 M430.57600064309247,117.66483640386548 L426.63955140098375,117.79993702447018 M426.63955140098375,117.79993702447018 L422.87282316293783,118.46564725815955 M422.87282316293783,118.46564725815955 L419.49456104596555,119.6233413715438 M419.49456104596555,119.6233413715438 L416.7009908739822,121.20584847093113 M416.7009908739822,121.20584847093113 L414.65447071874854,123.12131545697844 M414.65447071874854,123.12131545697844 L413.4740280940572,125.2585331496332 M413.4740280940572,125.2585331496332 L413.22844915930057,127.49335636784252 M413.22844915930057,127.49335636784252 L413.93220760938806,129.69592485543177 M413.93220760938806,129.69592485543177 L415.5446001620961,131.73819172411459 M415.5446001620961,131.73819172411459 L417.97207310536174,133.50137125589129 M417.97207310536174,133.50137125589129 L421.073585864512,134.8828860941976 M421.073585864512,134.8828860941976 L424.66885519665726,135.80232200363844 M424.66885519665726,135.80232200363844 L428.5487851700452,136.20616153413124 M428.5487851700452,136.20616153413124 L432.4876921279146,136.0708915572905 M432.4876921279146,136.0708915572905 L436.2564597072307,135.40438316953015 M436.2564597072307,135.40438316953015 L439.6358755974216,134.245444957836 M439.6358755974216,134.245444957836 L442.4294496612627,132.66153281994502 M442.4294496612627,132.66153281994502 L444.47482293548336,130.74482173556152 M444.47482293548336,130.74482173556152 L445.6532306407833,128.60680589019944 M445.6532306407833,128.60680589019944 L445.8963527982566,126.37181331379065 M445.8963527982566,126.37181331379065 L445.19027852677567,124.16974305913402 M445.19027852677567,124.16974305913402 L443.57624163289944,122.12852787726848 M443.57624163289944,122.12852787726848 L441.1481725371187,120.3667125534048 M566.4058909995342,598.4272467109058 L566.9528024331925,8.498562445238974 M606.2402024803964,95.27181577065079 L606.3043823635887,54.647064389204445 M606.2402024803964,95.27181577065079 L605.6937303842485,97.4839954685466 M605.6937303842485,97.4839954685466 L606.0970480896533,99.70735449781057 M606.0970480896533,99.70735449781057 L607.4269232040623,101.81265819114543 M607.4269232040623,101.81265819114543 L609.606234048191,103.67747814959375 M609.606234048191,103.67747814959375 L612.5084164740608,105.1933298765606 M612.5084164740608,105.1933298765606 L615.964782284713,106.27199648929098 M615.964782284713,106.27199648929098 L619.7743454330703,106.8506868227368 M619.7743454330703,106.8506868227368 L623.7155221645917,106.89571169420248 M623.7155221645917,106.89571169420248 L627.559064852326,106.40445131150017 M627.559064852326,106.40445131150017 L631.0813991608677,105.40550123786238 M631.0813991608677,105.40550123786238 L634.0777017167238,103.95701857898894 M634.0777017167238,103.95701857898894 L636.3738020208834,102.14330024358253 M636.3738020208834,102.14330024358253 L637.8363219129346,100.06986548802206 M637.8363219129346,100.06986548802206 L638.3804280131894,97.85729762116961 M638.3804280131894,97.85729762116961 L637.9746909247558,95.63421879711859 M637.9746909247558,95.63421879711859 L636.6429028407938,93.5298026311587 M636.6429028407938,93.5298026311587 L634.462623019298,91.66626827970015 M634.462623019298,91.66626827970015 L631.5606474478557,90.15181756414472 M631.5606474478557,90.15181756414472 L628.1056092078215,89.07433336207384 M628.1056092078215,89.07433336207384 L624.2981881120584,88.49634344962368 M624.2981881120584,88.49634344962368 L620.3594716442626,88.4513734145068 M620.3594716442626,88.4513734145068 L616.5181668534107,88.9420348376193 M616.5181668534107,88.9420348376193 L612.997306810993,89.93986187496768 M612.997306810993,89.93986187496768 L610.0013952987331,91.38696183036552 M610.0013952987331,91.38696183036552 L607.7045132296929,93.19935455431875 M607.7045132296929,93.19935455431875 L606.2402024803964,95.27181577065079 M445.3251651155634,116.41444871737593 L448.8695226445452,115.1892772125288 M448.8695226445452,115.1892772125288 L452.48439978065653,114.0328268546545 M452.48439978065653,114.0328268546545 L456.16569507773477,112.94640275827078 M454.4538158120182,116.55685719128746 L456.16569507773477,112.94640275827078 M462.9667835151779,121.39259412177717 L454.4538158120182,116.55685719128746 M503.52724998653684,105.74844548730266 L496.26230724175815,85.42565829081298 M496.26230724175815,85.42565829081298 L488.5188266359631,63.05378708833814 M488.5188266359631,63.05378708833814 L479.5573288187854,65.68829352960336 M479.5573288187854,65.68829352960336 L470.6144734156971,67.0453956035002 M470.6144734156971,67.0453956035002 L461.64980180665765,67.13105919306895 M461.64980180665765,67.13105919306895 L458.82079145394925,91.11182468215321 M458.82079145394925,91.11182468215321 L456.16569507773477,112.94640275827078 M488.4964260180572,2.815611584055773 L488.5188266359631,63.05378708833814 M488.4964260180572,2.815611584055773 L508.17947492171055,13.945820876590346 M462.0166104661214,515.9975643030725 L454.842558578606,531.3421673865798 M488.6857337295034,511.88867351214026 L462.0166104661214,515.9975643030725 M454.842558578606,531.3421673865798 L474.35971690270674,542.5852303680822 M508.20290656390125,523.1170541587779 L488.6857337295034,511.88867351214026 M474.35971690270674,542.5852303680822 L501.0509444916033,538.4689999843133 M485.7023908418584,536.2150093305911 L481.8428224909289,536.5302095635229 M481.8428224909289,536.5302095635229 L477.9648539838728,536.3046980315471 M477.9648539838728,536.3046980315471 L474.29405636643975,535.5516043776381 M474.29405636643975,535.5516043776381 L471.04392318506643,534.3147694940185 M471.04392318506643,534.3147694940185 L468.4034172746129,532.6661791336246 M468.4034172746129,532.6661791336246 L466.5259813144166,530.7017655695659 M466.5259813144166,530.7017655695659 L465.5206174172442,528.5357945714934 M465.5206174172442,528.5357945714934 L465.44557098497904,526.2942053328239 M465.44557098497904,526.2942053328239 L466.30499410797205,524.1072696763727 M466.30499410797205,524.1072696763727 L468.04876439119425,522.1020395502072 M468.04876439119425,522.1020395502072 L470.5754060365125,520.3949518661301 M470.5754060365125,520.3949518661301 L473.73805022348307,519.0851007726234 M473.73805022348307,519.0851007726234 L477.35296297579885,518.2485000238302 M477.35296297579885,518.2485000238302 L481.21020786482933,517.9336817583617 M481.21020786482933,517.9336817583617 L485.0858097465527,518.1589152741055 M485.0858097465527,518.1589152741055 L488.7547342644153,518.91113146847 M488.7547342644153,518.91113146847 L492.00392730121433,520.1466908239731 M492.00392730121433,520.1466908239731 L494.64462075234286,521.7938942142082 M494.64462075234286,521.7938942142082 L496.5233517332886,523.7571314719471 M496.5233517332886,523.7571314719471 L497.53080839287946,525.9224075197238 M497.53080839287946,525.9224075197238 L497.60827137570556,528.1639455201631 M497.60827137570556,528.1639455201631 L496.75102741264743,530.3514722890123 M496.75102741264743,530.3514722890123 L495.0087127313696,532.3578167125634 M495.0087127313696,532.3578167125634 L492.4824572400871,534.0662762988829 M492.4824572400871,534.0662762988829 L489.31904129335885,535.377442611758 M489.31904129335885,535.377442611758 L485.7023908418584,536.2150093305911 M488.6857337295034,511.88867351214026 L488.6636652734128,452.54372433790394 M488.6636652734128,452.54372433790394 L496.3484972963766,439.1928307120837 M496.3484972963766,439.1928307120837 L503.56687924138527,427.31212615253264 M461.60057232161824,6.888569470230607 L488.4964260180572,2.815611584055773 M454.365288609735,22.099066035202043 L461.60057232161824,6.888569470230607 M500.96665828038925,29.163657908109826 L474.0483226297381,33.24395313920809 M474.0483226297381,33.24395313920809 L454.365288609735,22.099066035202043 M474.35971690270674,542.5852303680822 L474.0483226297381,33.24395313920809 M456.4579575839012,434.5500953466477 L452.796309562618,435.6425570013452 M452.796309562618,435.6425570013452 L449.2007276361923,436.80543359911377 M449.2007276361923,436.80543359911377 L445.6752914514368,438.03741268521753 M456.4579575839012,434.5500953466477 L459.12662390702764,444.91379443080734 M459.12662390702764,444.91379443080734 L461.9681110682962,456.64848777477937 M461.9681110682962,456.64848777477937 L470.8732120646747,454.02086599913946 M470.8732120646747,454.02086599913946 L479.75870521699665,452.6546732647395 M479.75870521699665,452.6546732647395 L488.6636652734128,452.54372433790394 M454.7552462275356,438.1806124064607 L463.22284266019255,443.04321317301617 M456.4579575839012,434.5500953466477 L454.7552462275356,438.1806124064607 M402.52789714780243,529.9759389204844 L406.3371959201973,527.610553777412 M406.3371959201973,527.610553777412 L410.72532532517477,525.6053757269422 M410.72532532517477,525.6053757269422 L415.59036256915425,524.0068545424933 M454.0653981137949,559.693357131374 L445.3464796835318,580.4521219050708 M445.3464796835318,580.4521219050708 L437.9069224507254,593.443702307618 M437.9069224507254,593.443702307618 L429.17256623102816,604.5911343797861 M429.17256623102816,604.5911343797861 L422.46180914317773,610.4604166129902 M422.46180914317773,610.4604166129902 L418.00448961387536,613.0414115731216 M418.00448961387536,613.0414115731216 L414.18270853958194,614.331996718442 M414.18270853958194,614.331996718442 L411.08897995526473,614.6632313370824 M411.08897995526473,614.6632313370824 L407.65871095768426,614.1333151167919 M407.65871095768426,614.1333151167919 L404.8013972160679,612.7795160921082 M404.8013972160679,612.7795160921082 L402.2339972790701,610.5990684006836 M402.2339972790701,610.5990684006836 L400.22149703874186,607.9719103050163 M400.22149703874186,607.9719103050163 L398.6980300118581,605.1706039835651 M398.6980300118581,605.1706039835651 L397.22415163470276,601.366643643225 M397.22415163470276,601.366643643225 L395.8129646532426,595.6907716360835 M395.8129646532426,595.6907716360835 L394.80660458898853,587.3720812701215 M394.80660458898853,587.3720812701215 L394.75347835076235,575.3385244166875 M394.75347835076235,575.3385244166875 L396.5337239657106,558.107647291874 M396.5337239657106,558.107647291874 L399.1843460111776,543.7917827709632 M399.1843460111776,543.7917827709632 L402.52789714780243,529.9759389204844 M464.4631816224144,552.1750012546831 L461.6774575738112,554.9762888041012 M461.6774575738112,554.9762888041012 L458.1844896373287,557.5020257234307 M458.1844896373287,557.5020257234307 L454.0653981137949,559.693357131374 M441.7388657405901,630.4729710723518 L441.78507396222085,670.3771089740299 M441.7388657405901,630.4729710723518 L444.1464239320087,632.2502105148156 M444.1464239320087,632.2502105148156 L445.7468413780537,634.3092936145349 M445.7468413780537,634.3092936145349 L446.4469814377464,636.5306371282356 M446.4469814377464,636.5306371282356 L446.20595852755133,638.7851882297214 M446.20595852755133,638.7851882297214 L445.0375651397149,640.9419112358455 M445.0375651397149,640.9419112358455 L443.0095421118865,642.8753908558324 M443.0095421118865,642.8753908558324 L440.23964760027036,644.4731583940593 M440.23964760027036,644.4731583940593 L436.8888643387131,645.6422335885331 M436.8888643387131,645.6422335885331 L433.1520168420304,646.3145714280388 M433.1520168420304,646.3145714280388 L429.24645930790166,646.4510244789642 M429.24645930790166,646.4510244789642 L425.399366482103,646.043652927867 M425.399366482103,646.043652927867 L421.83451032485436,645.1161751872489 M421.83451032485436,645.1161751872489 L418.7592168045942,643.7225760284047 M418.7592168045942,643.7225760284047 L416.3522446861689,641.9439720860156 M416.3522446861689,641.9439720860156 L414.7534438418832,639.8838370743622 M414.7534438418832,639.8838370743622 L414.055580559216,637.6619952210804 M414.055580559216,637.6619952210804 L414.29901884191963,635.4076135140458 M414.29901884191963,635.4076135140458 L415.46941286922697,633.2516888314764 M415.46941286922697,633.2516888314764 L417.4985634762024,631.3194535761284 M417.4985634762024,631.3194535761284 L420.26845419393925,629.7230913771565 M420.26845419393925,629.7230913771565 L423.6181031576573,628.5552605472935 M423.6181031576573,628.5552605472935 L427.352945704314,627.8837210327044 M427.352945704314,627.8837210327044 L431.2560869510855,627.7474373742659 M431.2560869510855,627.7474373742659 L435.1009056904218,628.1543105852436 M435.1009056904218,628.1543105852436 L438.664150925624,629.0807364175013 M438.664150925624,629.0807364175013 L441.7388657405901,630.4729710723518 M485.7023908418584,536.2150093305911 L485.71919774739354,576.0561102726492 M605.434672692802,605.1581808379914 L605.3716579351982,645.0454279578139 M605.434672692802,605.1581808379914 L606.8866611116487,603.0675433697768 M606.8866611116487,603.0675433697768 L609.1641774803898,601.2392532451788 M609.1641774803898,601.2392532451788 L612.134806420898,599.7794586837781 M612.134806420898,599.7794586837781 L615.6259358151857,598.7728775539549 M615.6259358151857,598.7728775539549 L619.4347876824884,598.2779112693296 M619.4347876824884,598.2779112693296 L623.3402116305592,598.3232758588615 M623.3402116305592,598.3232758588615 L627.1154320193416,598.9063367873014 M627.1154320193416,598.9063367873014 L630.5412296449929,599.9932738188253 M630.5412296449929,599.9932738188253 L633.4186221330435,601.5210097551164 M633.4186221330435,601.5210097551164 L635.5804047675945,603.4008897657998 M635.5804047675945,603.4008897657998 L636.9008579630961,605.5237620167493 M636.9008579630961,605.5237620167493 L637.3030839262549,607.7663348221904 M637.3030839262549,607.7663348221904 L636.7634980446153,609.9983016493353 M636.7634980446153,609.9983016493353 L635.3132703439264,612.089912916578 M635.3132703439264,612.089912916578 L633.0365224882371,613.9195289431138 M633.0365224882371,613.9195289431138 L630.065509045151,615.3807065389283 M630.065509045151,615.3807065389283 L626.5729302200939,616.3884110006193 M626.5729302200939,616.3884110006193 L622.7618780497578,616.8839763747942 M622.7618780497578,616.8839763747942 L618.8540353360653,616.8385569491841 M618.8540353360653,616.8385569491841 L615.076708985257,616.2547954321096 M615.076708985257,616.2547954321096 L611.6496061570488,615.1666757203218 M611.6496061570488,615.1666757203218 L608.7720103183474,613.6375383971144 M608.7720103183474,613.6375383971144 L606.6111804321982,611.7563724985313 M606.6111804321982,611.7563724985313 L605.2926080461691,609.6326124943885 M605.2926080461691,609.6326124943885 L604.8927607365436,607.389759416669 M604.8927607365436,607.389759416669 L605.434672692802,605.1581808379914 M614.4133315147792,534.9534464814151 L616.5608961251603,532.919534299479 M616.5608961251603,532.919534299479 L618.5873381891548,530.8451596522882 M618.5873381891548,530.8451596522882 L620.4903595122657,528.7327026211486 M614.1447236156143,529.7115918398956 L620.4903595122657,528.7327026211486 M605.62764141094,524.8205733806858 L614.1447236156143,529.7115918398956 M633.0412680432073,501.5667682536429 L640.267113419126,521.7759084981219 M640.267113419126,521.7759084981219 L647.9629721362348,544.0071939340414 M647.9629721362348,544.0071939340414 L645.5961691609762,547.8888430490622 M645.5961691609762,547.8888430490622 L643.2309448654796,553.0209331755068 M643.2309448654796,553.0209331755068 L640.8568905636882,559.4266848906649 M640.8568905636882,559.4266848906649 L630.3545563425403,543.2571050660584 M630.3545563425403,543.2571050660584 L620.4903595122657,528.7327026211486 M647.8269431679726,603.4438434797967 L628.2043624303774,592.154820850311 M647.8269431679726,603.4438434797967 L647.9629721362348,544.0071939340414 M640.7278504257115,618.8787389029803 L647.8269431679726,603.4438434797967 M613.9839303057523,623.0172173902235 L640.7278504257115,618.8787389029803 M601.4826314841373,596.2859001814053 L594.3612949842156,611.713393282251 M594.3612949842156,611.713393282251 L613.9839303057523,623.0172173902235 M595.0725673368114,101.77005245586855 L602.2542337436364,86.47668881154169 M595.0725673368114,101.77005245586855 L594.3612949842156,611.713393282251 M641.8348128853418,108.8731470656677 L614.8628833779416,112.9756845655757 M648.9938543122139,93.57238288364636 L641.8348128853418,108.8731470656677 M614.8628833779416,112.9756845655757 L595.0725673368114,101.77005245586855 M629.2035942632597,82.38154871071168 L648.9938543122139,93.57238288364636 M648.9938543122139,93.57238288364636 L648.8557715425654,153.90642270427946 M648.8557715425654,153.90642270427946 L641.032076900256,167.50768406288347 M641.032076900256,167.50768406288347 L633.6974263921452,179.59349730232555 M621.0796006597038,206.61007862166264 L619.1663830460219,208.7109328819988 M619.1663830460219,208.7109328819988 L617.1290784471948,210.7739154876597 M617.1290784471948,210.7739154876597 L614.9699972816422,212.7966593405 M621.0796006597038,206.61007862166264 L631.0613915734475,188.85899026642682 M631.0613915734475,188.85899026642682 L641.7038234462798,169.22329337103113 M641.7038234462798,169.22329337103113 L644.0875818098109,165.38885958134804 M644.0875818098109,165.38885958134804 L646.4679729634613,160.29070331580397 M646.4679729634613,160.29070331580397 L648.8557715425654,153.90642270427946 M614.6998458511869,207.58359104546994 L606.1368591992716,202.7194411706164 M621.0796006597038,206.61007862166264 L614.6998458511869,207.58359104546994 M454.4538158120182,116.55685719128746 L454.365288609735,22.099066035202043 M454.842558578606,531.3421673865798 L454.7552462275356,438.1806124064607 M409.99242015540545,210.32871317860628 L421.6746876778629,208.5477951414569 M408.26916945243227,213.96315379002021 L409.99242015540545,210.32871317860628 M408.26916945243227,213.96315379002021 L406.039813893449,211.96509234626555 M406.039813893449,211.96509234626555 L403.93081035144195,209.925421272292 M403.93081035144195,209.925421272292 L401.94455368707725,207.84648619234198 M437.46380809661076,621.6425852226877 L410.689250937007,625.781830281715 M410.5327441078924,532.4718736605032 L410.689250937007,625.781830281715 M422.1524649204802,530.681120978932 L410.5327441078924,532.4718736605032 M409.8337287320942,115.71629333020871 L409.99242015540545,210.32871317860628 M409.8337287320942,115.71629333020871 L436.836820213959,111.61298943896884 M436.836820213959,111.61298943896884 L437.46380809661076,621.6425852226877 M402.52789714780243,529.9759389204844 L404.5035653850083,532.0663547837539 M404.5035653850083,532.0663547837539 L406.60132134336396,534.1172882741264 M406.60132134336396,534.1172882741264 L408.81878284563805,536.1263809058996 M410.5327441078924,532.4718736605032 L408.81878284563805,536.1263809058996 M453.75901261845445,237.40084068872906 L450.10548928232,236.26375750264256 M450.10548928232,236.26375750264256 L446.5219428638924,235.05701678074186 M446.5219428638924,235.05701678074186 L443.0124811707612,233.7820151904064 M449.40359120935557,232.80677087283425 L443.0124811707612,233.7820151904064 M452.54796887968706,226.15124537760633 L449.40359120935557,232.80677087283425 M408.26916945243227,213.96315379002021 L405.552211238347,203.39647171970634 M405.552211238347,203.39647171970634 L402.65310701186024,191.4136124319279 M402.65310701186024,191.4136124319279 L409.2307250853353,196.4394744544224 M409.2307250853353,196.4394744544224 L415.7930822905712,200.18058865818364 M415.7930822905712,200.18058865818364 L422.3698679104045,202.6533934901513 M422.3698679104045,202.6533934901513 L433.02265000614574,219.06182468613264 M433.02265000614574,219.06182468613264 L443.0124811707612,233.7820151904064 M449.73325508467406,555.0739608532483 L452.8607225401136,548.381730707913 M443.3763851726534,556.0545822003473 L449.73325508467406,555.0739608532483 M443.3763851726534,556.0545822003473 L446.86706585397707,557.3366130141696 M446.86706585397707,557.3366130141696 L450.43143207928097,558.5500060830411 M450.43143207928097,558.5500060830411 L454.0653981137949,559.693357131374 M449.8287429414369,648.419351659132 L457.03356991762865,632.9539256405433 M457.03356991762865,632.9539256405433 L456.5733568092997,122.82613616838967 M456.5733568092997,122.82613616838967 L449.3067694682065,138.15742411329592 M449.40359120935557,232.80677087283425 L449.3067694682065,138.15742411329592 M449.8287429414369,648.419351659132 L449.73325508467406,555.0739608532483 M614.1447236156143,529.7115918398956 L613.9839303057523,623.0172173902235 M614.8628833779416,112.9756845655757 L614.6998458511869,207.58359104546994 M402.5445171201483,131.040160160531 L409.8337287320942,115.71629333020871 M422.2810126003761,142.26814912241377 L402.5445171201483,131.040160160531 M449.3067694682065,138.15742411329592 L422.2810126003761,142.26814912241377 M436.836820213959,111.61298943896884 L456.5733568092997,122.82613616838967 M461.60057232161824,6.888569470230607 L461.64980180665765,67.13105919306895 M462.0166104661214,515.9975643030725 L461.9681110682962,456.64848777477937 M443.3763851726534,556.0545822003473 L433.48179143338103,573.6433649021394 M433.48179143338103,573.6433649021394 L422.94437105320856,593.0803995653639 M422.94437105320856,593.0803995653639 L416.4061586260609,588.0439341082084 M416.4061586260609,588.0439341082084 L409.88599477071165,584.277977083468 M409.88599477071165,584.277977083468 L403.3552081273875,581.7654906749744 M403.3552081273875,581.7654906749744 L406.1728600422899,557.8829201702247 M406.1728600422899,557.8829201702247 L408.81878284563805,536.1263809058996 M423.03190258926764,652.5660194245031 L449.8287429414369,648.419351659132 M403.4621808482539,641.239833597223 L423.03190258926764,652.5660194245031 M410.689250937007,625.781830281715 L403.4621808482539,641.239833597223 M457.03356991762865,632.9539256405433 L437.46380809661076,621.6425852226877 M640.7278504257115,618.8787389029803 L640.8568905636882,559.4266848906649 M641.8348128853418,108.8731470656677 L641.7038234462798,169.22329337103113 M402.5445171201483,131.040160160531 L402.65310701186024,191.4136124319279 M403.4621808482539,641.239833597223 L403.3552081273875,581.7654906749744 M422.2810126003761,142.26814912241377 L422.3698679104045,202.6533934901513 M423.03190258926764,652.5660194245031 L422.94437105320856,593.0803995653639" stroke="black"  stroke-width="4"  fill="red"/>
<path d="M276.95033787223736,765.5444882273828 L275.84819585845037,484.6436815945967 M275.84819585845037,484.6436815945967 L285.7675705033516,491.6721218744552 M285.7675705033516,491.6721218744552 L293.01686976270935,499.7143924912079 M293.01686976270935,499.7143924912079 L297.29767074897757,508.4425958061386 M297.29767074897757,508.4425958061386 L298.4322623337981,517.5002788353243 M298.4322623337981,517.5002788353243 L296.37137145293605,526.5168690419773 M296.37137145293605,526.5168690419773 L291.1965872026831,535.1228200905987 M291.1965872026831,535.1228200905987 L283.11749003581406,542.9647953182996 M283.11749003581406,542.9647953182996 L272.46345548393276,549.720298461697 M272.46345548393276,549.720298461697 L259.6703777946128,555.1111100693543 M259.6703777946128,555.1111100693543 L245.26287574674035,558.9149608946807 M245.26287574674035,558.9149608946807 L229.83270963731894,560.9748371969854 M229.83270963731894,560.9748371969854 L214.01413960197044,561.205703097449 M214.01413960197044,561.205703097449 L198.45768330438406,559.598014221634 M198.45768330438406,559.598014221634 L183.80291281028713,556.218160845385 M183.80291281028713,556.218160845385 L170.65186727390022,551.2056639730954 M170.65186727390022,551.2056639730954 L159.54407220853,544.7672524479053 M159.54407220853,544.7672524479053 L150.93426220934293,537.1681719410915 M150.93426220934293,537.1681719410915 L145.17375810247768,528.7210506051968 M145.17375810247768,528.7210506051968 L142.496307891595,519.7728490063533 M142.496307891595,519.7728490063533 L143.0088158174171,510.69047375263716 M143.0088158174171,510.69047375263716 L146.6874181520745,501.84568497359015 M146.6874181520745,501.84568497359015 L153.37899242206515,493.59983287011033 M153.37899242206515,493.59983287011033 L162.8076897316331,486.2892664368944 M162.8076897316331,486.2892664368944 L174.58668201476996,480.2117048203471 M174.58668201476996,480.2117048203471 L188.2340433244283,475.6143238035124 M188.2340433244283,475.6143238035124 L203.19245566920767,472.6839039475816 M203.19245566920767,472.6839039475816 L218.85179632547306,471.539405594485 M218.85179632547306,471.539405594485 L234.57375205968884,472.2272696181017 M234.57375205968884,472.2272696181017 L249.71748364637264,474.7195931012111 M249.71748364637264,474.7195931012111 L263.6654344450467,478.9152012433655 M263.6654344450467,478.9152012433655 L275.84819585845037,484.6436815945967 M276.95033787223736,765.5444882273828 L264.82446411067366,759.789007640574 M264.82446411067366,759.789007640574 L250.94171350190229,755.5736176065045 M250.94171350190229,755.5736176065045 L235.86884048126907,753.0695404165187 M235.86884048126907,753.0695404165187 L220.22052338332884,752.378432104782 M220.22052338332884,752.378432104782 L204.63461304858208,753.5283283640865 M204.63461304858208,753.5283283640865 L189.74644246863966,756.4725673463506 M189.74644246863966,756.4725673463506 L176.1632799983007,761.0916229805921 M176.1632799983007,761.0916229805921 L164.43982856317012,767.1978273374677 M164.43982856317012,767.1978273374677 L155.05574325615902,774.5428319999364 M155.05574325615902,774.5428319999364 L148.39601809521787,782.8275079138493 M148.39601809521787,782.8275079138493 L144.73518062924293,791.7139165298513 M144.73518062924293,791.7139165298513 L144.2256022861248,800.8390038188156 M144.2256022861248,800.8390038188156 L146.8909999521922,809.829260920553 M146.8909999521922,809.829260920553 L152.62493742920276,818.3160594723543 M152.62493742920276,818.3160594723543 L161.19473466160485,825.9508145294278 M161.19473466160485,825.9508145294278 L172.2506979746639,832.4194374309186 M172.2506979746639,832.4194374309186 L185.34021447155925,837.4554456787173 M185.34021447155925,837.4554456787173 L199.92628803858247,840.8511479402482 M199.92628803858247,840.8511479402482 L215.40971135061525,842.4663743575745 M215.40971135061525,842.4663743575745 L231.1539275324397,842.2344261081475 M231.1539275324397,842.2344261081475 L246.51149008344657,840.164891915796 M246.51149008344657,840.164891915796 L260.8511353880908,836.343202908464 M260.8511353880908,836.343202908464 L273.58389907515175,830.9271032075146 M273.58389907515175,830.9271032075146 L284.1876398375426,824.1398972611348 M284.1876398375426,824.1398972611348 L292.22851986184344,816.2611024144501 M292.22851986184344,816.2611024144501 L297.3787152812038,807.614722315212 M297.3787152812038,807.614722315212 L299.4296310523846,798.5557487953076 M299.4296310523846,798.5557487953076 L298.30006042033665,789.4554633682305 M298.30006042033665,789.4554633682305 L294.0390443815181,780.6861827656262 M294.0390443815181,780.6861827656262 L286.82346114340504,772.6060416885762 M286.82346114340504,772.6060416885762 L276.95033787223736,765.5444882273828 M253.72355687673854,778.9544764875425 L245.22542892676083,775.0763658012218 M245.22542892676083,775.0763658012218 L235.36611466860776,772.4961260659 M235.36611466860776,772.4961260659 L224.71756869748498,771.3630043482626 M224.71756869748498,771.3630043482626 L213.897116964461,771.7425499996905 M213.897116964461,771.7425499996905 L203.53203753748414,773.6127999184619 M203.53203753748414,773.6127999184619 L194.22341575602007,776.8655817143099 M194.22341575602007,776.8655817143099 L186.51143683590692,781.3126990839439 M186.51143683590692,781.3126990839439 L180.8443271827876,786.6966034586844 M180.8443271827876,786.6966034586844 L177.552132075764,792.7052510751121 M177.552132075764,792.7052510751121 L176.82750296828192,798.9899555075367 M176.82750296828192,798.9899555075367 L178.71416862054974,805.1855749244876 M178.71416862054974,805.1855749244876 L183.10393989015716,810.9317366334444 M183.10393989015716,810.9317366334444 L189.74279250698947,815.8937880193753 M189.74279250698947,815.8937880193753 L198.24529754361106,819.7824479848712 M198.24529754361106,819.7824479848712 L208.1169433515879,822.3708202804721 M208.1169433515879,822.3708202804721 L218.7829502861334,823.5077948098772 M218.7829502861334,823.5077948098772 L229.62199236921043,823.1269395067686 M229.62199236921043,823.1269395067686 L240.00253266308135,821.2505175547817 M240.00253266308135,821.2505175547817 L249.31994391341073,817.9881153007366 M249.31994391341073,817.9881153007366 L257.03202737528494,813.530132919496 M257.03202737528494,813.530132919496 L262.6905326975898,808.1366080821365 M262.6905326975898,808.1366080821365 L265.96738572337676,802.1217884370387 M265.96738572337676,802.1217884370387 L266.67344969818805,795.8357743738181 M266.67344969818805,795.8357743738181 L264.7692489457379,789.6440077307134 M264.7692489457379,789.6440077307134 L260.366989613389,783.9059785890843 M260.366989613389,783.9059785890843 L253.72355687673854,778.9544764875425 M252.51147674999189,497.9908007551206 L259.18601746814204,502.91910327510135 M259.18601746814204,502.91910327510135 L263.6088008280898,508.6302572480237 M263.6088008280898,508.6302572480237 L265.5217388958456,514.7930350885572 M265.5217388958456,514.7930350885572 L264.8121033739776,521.049631345619 M264.8121033739776,521.049631345619 L261.5195626401703,527.0363138948853 M261.5195626401703,527.0363138948853 L255.83415281432502,532.4046176372124 M255.83415281432502,532.4046176372124 L248.0855045057731,536.8417605460595 M248.0855045057731,536.8417605460595 L238.72399339539564,540.0889161697028 M238.72399339539564,540.0889161697028 L228.29438806864786,541.9565702880948 M228.29438806864786,541.9565702880948 L217.40417991812174,542.3356461278804 M217.40417991812174,542.3356461278804 L206.68789462340334,541.2039839981738 M206.68789462340334,541.2039839981738 L196.76979410110397,538.6277071186806 M196.76979410110397,538.6277071186806 L188.22736781580292,534.7572227223682 M188.22736781580292,534.7572227223682 L181.55745099176903,529.8183707868725 M181.55745099176903,529.8183707868725 L177.14727410368764,524.0990841455595 M177.14727410368764,524.0990841455595 L175.25203705357185,517.9324534833092 M175.25203705357185,517.9324534833092 L175.9804131249535,511.67716687331506 M175.9804131249535,511.67716687331506 L179.28844067004258,505.69665642941106 M179.28844067004258,505.69665642941106 L184.98253571393275,500.3379732692692 M184.98253571393275,500.3379732692692 L192.73107799507264,495.91169550709714 M192.73107799507264,495.91169550709714 L202.0837161183224,492.67416046127863 M202.0837161183224,492.67416046127863 L212.49771415999825,490.8126784528651 M212.49771415999825,490.8126784528651 L223.36915618519055,490.43491228105 M223.36915618519055,490.43491228105 L234.06781565256597,491.5627215510679 M234.06781565256597,491.5627215510679 L243.97346844019094,494.13086576914435 M243.97346844019094,494.13086576914435 L252.51147674999189,497.9908007551206 M253.72355687673854,778.9544764875425 L252.51147674999189,497.9908007551206" stroke="black"  stroke-width="4"  fill="red"/>
<path d="M253.72355687673854,778.9544764875425 L252.51147674999189,497.9908007551206 M189.74279250698925,815.8937880193753 L188.227367815803,534.7572227223682 M253.72355687673854,778.9544764875425 L260.366989613389,783.9059785890843 M260.366989613389,783.9059785890843 L264.7692489457379,789.6440077307134 M264.7692489457379,789.6440077307134 L266.67344969818805,795.8357743738181 M266.67344969818805,795.8357743738181 L265.96738572337676,802.1217884370387 M265.96738572337676,802.1217884370387 L262.6905326975898,808.1366080821365 M262.6905326975898,808.1366080821365 L257.03202737528494,813.530132919496 M257.03202737528494,813.530132919496 L249.31994391341073,817.9881153007366 M249.31994391341073,817.9881153007366 L240.00253266308135,821.2505175547817 M240.00253266308135,821.2505175547817 L229.62199236921043,823.1269395067686 M229.62199236921043,823.1269395067686 L218.7829502861334,823.5077948098772 M218.7829502861334,823.5077948098772 L208.1169433515879,822.3708202804721 M208.1169433515879,822.3708202804721 L198.24529754361106,819.7824479848712 M198.24529754361106,819.7824479848712 L189.74279250698925,815.8937880193753 M252.51147674999189,497.9908007551206 L259.18601746814204,502.91910327510135 M259.18601746814204,502.91910327510135 L263.6088008280898,508.6302572480237 M263.6088008280898,508.6302572480237 L265.5217388958456,514.7930350885572 M265.5217388958456,514.7930350885572 L264.8121033739776,521.049631345619 M264.8121033739776,521.049631345619 L261.5195626401703,527.0363138948853 M261.5195626401703,527.0363138948853 L255.83415281432502,532.4046176372124 M255.83415281432502,532.4046176372124 L248.0855045057731,536.8417605460595 M248.0855045057731,536.8417605460595 L238.72399339539564,540.0889161697028 M238.72399339539564,540.0889161697028 L228.29438806864786,541.9565702880948 M228.29438806864786,541.9565702880948 L217.40417991812174,542.3356461278804 M217.40417991812174,542.3356461278804 L206.68789462340334,541.2039839981738 M206.68789462340334,541.2039839981738 L196.76979410110397,538.6277071186806 M196.76979410110397,538.6277071186806 L188.227367815803,534.7572227223682 M189.74279250698925,815.8937880193753 L183.10393989015716,810.9317366334444 M183.10393989015716,810.9317366334444 L178.71416862054974,805.1855749244876 M178.71416862054974,805.1855749244876 L176.82750296828192,798.9899555075367 M176.82750296828192,798.9899555075367 L177.552132075764,792.7052510751121 M177.552132075764,792.7052510751121 L180.8443271827876,786.6966034586844 M180.8443271827876,786.6966034586844 L186.51143683590692,781.3126990839439 M186.51143683590692,781.3126990839439 L194.22341575602007,776.8655817143099 M194.22341575602007,776.8655817143099 L203.53203753748414,773.6127999184619 M203.53203753748414,773.6127999184619 L213.897116964461,771.7425499996905 M213.897116964461,771.7425499996905 L224.71756869748498,771.3630043482626 M224.71756869748498,771.3630043482626 L235.36611466860776,772.4961260659 M235.36611466860776,772.4961260659 L245.22542892676083,775.0763658012218 M245.22542892676083,775.0763658012218 L253.72355687673854,778.9544764875425 M188.227367815803,534.7572227223682 L181.55745099176903,529.8183707868725 M181.55745099176903,529.8183707868725 L177.14727410368764,524.0990841455595 M177.14727410368764,524.0990841455595 L175.25203705357185,517.9324534833092 M175.25203705357185,517.9324534833092 L175.9804131249535,511.67716687331506 M175.9804131249535,511.67716687331506 L179.28844067004258,505.69665642941106 M179.28844067004258,505.69665642941106 L184.98253571393275,500.3379732692692 M184.98253571393275,500.3379732692692 L192.73107799507264,495.91169550709714 M192.73107799507264,495.91169550709714 L202.0837161183224,492.67416046127863 M202.0837161183224,492.67416046127863 L212.49771415999825,490.8126784528651 M212.49771415999825,490.8126784528651 L223.36915618519055,490.43491228105 M223.36915618519055,490.43491228105 L234.06781565256597,491.5627215510679 M234.06781565256597,491.5627215510679 L243.97346844019094,494.13086576914435 M243.97346844019094,494.13086576914435 L252.51147674999189,497.9908007551206" stroke="black"  stroke-width="4"  fill="red"/></svg>