<svg version="1.1" xmlns="http://www.w3.org/2000/svg" viewBox="-16.72698321622949 -38.152713081470324 27.24525563234955 70.97806390584549" fill="none" stroke="black" stroke-width="0.6%" vector-effect="non-scaling-stroke">
    <path d="M 3.10057 -31.23511 L 3.10057 -28.57432" />
    <path d="M 3.10057 -31.23511 L 1.41513 -29.74854" />
    <path d="M 2.20072 -34.09222 L 3.10057 -31.23511" />
    <path d="M 1.80115 -34.18326 L 2.20072 -34.09222" />
    <path d="M -3.47826 -32.73407 L -3.47826 -31.04082" />
    <path d="M -3.47826 -32.73407 L -2.17885 -33.88017" />
    <path d="M -2.93691 -31.01521 L -3.47826 -32.73407" />
    <path d="M 0.25308 -30.29381 A 1.99 1.73408 180 0 0 1.80115 -31.98459 L 1.80115 -35.41863 A 1.99 1.73408 360 0 1 -0.69225 -33.74095 A 1.99 1.73408 360 0 1 -2.17885 -35.41863 A 1.99 1.73408 360 0 1 1.80115 -35.41863" />
    <path d="M -2.17885 -31.98459 A 1.99 1.73408 180 0 0 -1.69898 -30.85526" />
    <path d="M -13.38039 20.5361 A 9.65 8.40899 180 0 0 3.11449 26.46354" />
    <path d="M -10.59515 -28.54465 A 9.65 8.40899 0 0 1 5.91961 -22.6347 A 9.65 8.40899 0 1 1 -13.38039 -22.6347 A 9.65 8.40899 0 0 1 -10.59515 -28.54465 Z" />
    <path d="M 9.51827 27.40671 L 9.51827 22.50093 L 8.72722 23.19865 A 3 2.61419 180 0 0 9.22038 21.55511 L 9.51827 22.50093" />
    <path d="M 8.61842 19.64383 L 8.91631 20.58965 A 3 2.61419 180 0 0 8.76743 20.3584" />
    <path d="M 7.12871 29.51433 L 7.12871 24.60856 L 6.03977 24.36045 A 3 2.61419 180 0 0 7.91975 23.91085 L 7.12871 24.60856" />
    <path d="M 7.12871 29.51433 L 9.51827 27.40671" />
    <path d="M 8.21886 19.55279 L 8.61842 19.64383" />
    <path d="M 9.22038 21.55511 A 3 2.61419 180 0 0 8.91631 20.58965" />
    <path d="M 3.83929 28.76485 L 7.12871 29.51433" />
    <path d="M 2.93944 25.90775 L 3.83929 28.76485 L 3.83929 23.85908 L 3.5414 22.91326 A 3 2.61419 180 0 0 4.92823 24.10719 L 3.83929 23.85908" />
    <path d="M 7.91975 23.91085 A 3 2.61419 180 0 0 8.72722 23.19865" />
    <path d="M 3.69029 20.3584 A 3 2.61419 180 0 0 3.23733 21.9478 L 2.93944 21.00198 L 3.72751 20.30689" />
    <path d="M 3.23733 21.9478 A 3 2.61419 180 0 0 3.5414 22.91326" />
    <path d="M 4.92823 24.10719 A 3 2.61419 180 0 0 6.03977 24.36045" />
    <path d="M 8.21886 20.09985 A 1.99 1.73408 0 1 1 4.23886 20.09985" />
    <path d="M 2.93944 25.90775 L 2.93944 21.00198" />
    <path d="M 4.23886 30.09127 A 1.99 1.73408 180 1 0 8.21886 30.09127" />
    <path d="M 7.91278 -4.12635 A 1.99 1.73408 0 0 1 4.54494 -4.12635 L 4.27911 -4.49419" />
    <path d="M 8.72722 -5.25483 A 3 2.61419 0 0 1 7.91975 -4.54263 L 8.72722 -5.25483 L 9.51827 -5.95255" />
    <path d="M 6.03977 -4.09303 A 3 2.61419 0 0 1 4.92823 -4.34629 L 6.03977 -4.09303 L 7.12871 -3.84492 L 7.91975 -4.54263" />
    <path d="M 3.5414 -5.54022 A 3 2.61419 0 0 1 3.23733 -6.50568 L 3.5414 -5.54022 L 3.83929 -4.5944 L 4.92823 -4.34629" />
    <path d="M 2.93944 -7.4515 L 3.23733 -6.50568" />
    <path d="M 3.83929 -9.50017 L 3.83929 -4.5944" />
    <path d="M 2.93944 -12.35727 L 2.93944 -7.4515" />
    <path d="M 3.83929 -9.50017 L 2.93944 -12.35727 L 4.23886 -13.50337" />
    <path d="M 7.12871 -8.75069 L 7.12871 -3.84492" />
    <path d="M 7.12871 -8.75069 L 3.83929 -9.50017" />
    <path d="M 9.51827 -10.85832 L 9.51827 -5.95255" />
    <path d="M 9.51827 -10.85832 L 7.12871 -8.75069" />
    <path d="M 8.61842 -13.71542 L 9.51827 -10.85832" />
    <path d="M 8.21886 -13.80646 L 8.61842 -13.71542" />
    <path d="M 4.23886 -11.6078 A 1.99 1.73408 180 0 0 8.21886 -11.6078 L 8.21886 -15.04184 A 1.99 1.73408 0 1 1 4.23886 -15.04184 A 1.99 1.73408 0 0 1 4.81322 -16.26057 A 1.99 1.73408 0 0 1 8.21886 -15.04184" />
    <path d="M -15.31212 14.29564 L -15.31212 -10.85462 A 1.99 1.73408 0 0 1 -15.72698 -9.26033 L -15.72698 15.88993" />
    <path d="M -2.17885 -31.98459 L -2.17885 -35.41863" />
    <path d="M -13.38039 -22.6347 L -13.38039 20.5361" />
    <path d="M 5.91961 -22.6347 L 5.91961 -16.75485" />
    <path d="M 4.23886 19.59932 L 3.69029 20.3584" />
    <path d="M 8.21886 19.59932 L 8.76743 20.3584" />
    <path d="M 4.23886 28.85589 L 4.23886 30.09127" />
    <path d="M 8.21886 28.55281 L 8.21886 30.09127" />
    <path d="M 4.23886 -4.50336 L 4.23886 20.09985" />
    <path d="M 8.21886 -4.54989 L 8.21886 20.09985" />
    <path d="M 7.91278 -4.12635 L 8.7302 -5.25746" />
    <path d="M 4.23886 -11.6078 L 4.23886 -15.04184" />
</svg>