<svg version="1.1" xmlns="http://www.w3.org/2000/svg" viewBox="-20.49281635216868 -37.7464888624994 34.18962074440742 69.62805850932645" fill="none" stroke="black" stroke-width="0.6%" vector-effect="non-scaling-stroke">
    <path d="M -15.20763 -21.49936 A 13.5 11.97327 0 0 1 -2.88049 -32.81037 A 4.5 3.99109 0 0 1 6.11908 -32.7554 A 4.5 3.99109 0 0 1 5.61916 -30.92712 A 13.5 11.97327 0 0 1 11.77436 -20.88098 A 13.5 11.97327 0 0 1 10.50027 -15.80331 A 4.5 3.99109 0 0 1 12.6968 -12.37474 A 4.5 3.99109 0 0 1 4.41154 -10.21647 A 13.5 11.97327 0 0 1 -12.79671 -14.02927 A 4.5 3.99109 0 0 1 -19.49282 -17.51281 A 4.5 3.99109 0 0 1 -15.20763 -21.49936 Z" />
    <path d="M 10.34061 -12.25146 A 2 1.77382 0 0 1 6.34061 -12.25146" />
    <path d="M -13.18509 -17.464 A 2 1.77382 0 0 1 -17.18509 -17.464" />
    <path d="M 7.77436 -20.88098 A 9.5 8.42564 0 0 1 -11.22564 -20.88098" />
    <path d="M 1.18281 -31.20656 A 2 1.77382 0 0 1 -0.33244 -32.92749" />
    <path d="M 3.66756 -32.92749 A 2 1.77382 0 0 1 1.18281 -31.20656" />
    <path d="M -19.49282 21.7524 A 4.5 3.99109 180 0 0 -12.79671 25.23595" />
    <path d="M 11.77436 18.38423 A 13.5 11.97327 0 0 1 11.77406 18.46389" />
    <path d="M 4.41154 29.04874 A 4.5 3.99109 180 0 0 12.6968 26.89048" />
    <path d="M 4.41154 29.04874 A 13.5 11.97327 0 0 1 -12.79671 25.23595" />
    <path d="M -12.79671 19.23068 A 4.5 3.99109 0 0 1 -19.49282 15.74713 A 4.5 3.99109 0 0 1 -18.58074 13.33826" />
    <path d="M -12.79671 19.23068 L -12.79671 25.23595" />
    <path d="M -12.79671 19.23068 A 13.5 11.97327 0 0 1 -13.54712 18.16109" />
    <path d="M -14.22192 18.78028 L -13.54712 18.16109" />
    <path d="M -17.61756 18.02791 L -14.22192 18.78028 L -14.22192 13.6989 L -13.54712 13.07971 L -13.54712 18.16109" />
    <path d="M -18.58074 15.04358 L -17.61756 18.02791 L -17.61756 12.94653 L -14.22192 13.6989" />
    <path d="M -18.58074 9.9622 L -17.61756 12.94653" />
    <path d="M -17.18509 8.6816 L -18.58074 9.9622" />
    <path d="M -14.05364 12.17724 A 2 1.77382 0 0 1 -17.18509 10.71457" />
    <path d="M -13.54712 13.07971 A 13.5 11.97327 0 0 1 -14.05364 12.17724" />
    <path d="M -14.05364 -3.08549 L -14.05364 12.17724" />
    <path d="M -18.58074 -6.66777 L -17.61756 -3.68344 L -17.61756 -8.26569" />
    <path d="M -14.22192 -2.93108 L -13.54712 -3.55026" />
    <path d="M -17.61756 -3.68344 L -14.22192 -2.93108 L -14.22192 -7.57545" />
    <path d="M -19.49282 -11.50755 A 4.5 3.99109 180 0 0 -12.79671 -8.024" />
    <path d="M -12.79671 -14.02927 L -12.79671 -8.024" />
    <path d="M 4.41154 -10.21647 L 4.41154 -4.21121 A 4.5 3.99109 180 0 0 12.6968 -6.36947" />
    <path d="M -13.54712 -7.72803 L -13.54712 -3.55026" />
    <path d="M 5.64094 -3.08461 L 5.64094 0.7012 L 5.90814 1.5291 L 5.90814 -2.93311" />
    <path d="M 6.56649 1.67497 L 6.56649 16.746 A 13.5 11.97327 0 0 1 5.64094 17.33117 L 5.90814 18.15907 L 9.30378 18.91143 L 11.73625 16.67947 L 10.77308 13.69514 L 10.34061 13.59932" />
    <path d="M 5.64094 17.33117 L 5.64094 22.41255 L 5.90814 23.24045 L 5.90814 18.15907" />
    <path d="M 4.41154 23.04347 A 13.5 11.97327 180 0 0 5.64094 22.41255" />
    <path d="M 4.41154 23.04347 L 4.41154 29.04874" />
    <path d="M 6.90257 -13.94619 A 2 1.77382 0 0 1 10.34061 -12.7134 L 10.34061 -12.25146" />
    <path d="M 10.34061 -12.7134 A 2 1.77382 0 0 1 6.34061 -12.7134 L 6.34061 -12.25146" />
    <path d="M 6.34061 -12.7134 A 2 1.77382 0 0 1 6.90257 -13.94619" />
    <path d="M -13.26231 -18.41408 A 2 1.77382 0 0 1 -13.18509 -17.92594 L -13.18509 -17.464" />
    <path d="M -13.18509 -17.92594 A 2 1.77382 0 0 1 -17.18509 -17.92594 L -17.18509 -17.464" />
    <path d="M -17.18509 -17.92594 A 2 1.77382 0 0 1 -13.26231 -18.41408" />
    <path d="M -8.55631 -27.66062 A 9.5 8.42564 0 0 1 7.77436 -21.80487 L 7.77436 -20.88098" />
    <path d="M 7.77436 -21.80487 A 9.5 8.42564 0 0 1 -11.22564 -21.80487 L -11.22564 -20.88098" />
    <path d="M -11.22564 -21.80487 A 9.5 8.42564 0 0 1 -8.55631 -27.66062" />
    <path d="M 1.18281 -31.6685 A 2 1.77382 0 0 1 -0.33244 -33.38943 L -0.33244 -32.92749" />
    <path d="M -0.33244 -33.38943 A 2 1.77382 0 1 1 3.66756 -33.38943 L 3.66756 -32.92749" />
    <path d="M 3.66756 -33.38943 A 2 1.77382 0 0 1 1.18281 -31.6685" />
    <path d="M 11.73625 18.42057 A 4.5 3.99109 0 0 1 12.6968 20.88521 L 12.6968 26.89048" />
    <path d="M 12.6968 20.88521 A 4.5 3.99109 0 0 1 4.41154 23.04347" />
    <path d="M -18.58074 15.04358 L -18.58074 9.9622" />
    <path d="M -18.58074 -6.66777 L -18.58074 -9.09867" />
    <path d="M 9.30378 23.99282 L 11.73625 21.76085 L 11.73625 16.67947" />
    <path d="M 5.90814 23.24045 L 9.30378 23.99282 L 9.30378 18.91143" />
    <path d="M 10.34061 15.92711 A 2 1.77382 0 0 1 6.56649 16.746" />
    <path d="M 9.30378 2.28146 L 11.73625 0.0495 L 11.73625 -3.90483" />
    <path d="M 5.90814 1.5291 L 9.30378 2.28146 L 9.30378 -2.50102" />
    <path d="M 6.11908 -32.7554 L 6.11908 -30.6253" />
    <path d="M -19.49282 15.74713 L -19.49282 21.7524" />
    <path d="M -17.18509 -3.58762 L -17.18509 10.71457" />
    <path d="M -19.49282 -17.51281 L -19.49282 -11.50755" />
    <path d="M 11.77436 -20.88098 L 11.77436 -14.79571" />
    <path d="M 11.77436 -3.9485 L 11.77436 18.38423" />
    <path d="M 12.6968 -12.37474 L 12.6968 -6.36947" />
    <path d="M 10.34061 1.3301 L 10.34061 15.92711" />
</svg>