<svg version="1.1" xmlns="http://www.w3.org/2000/svg" viewBox="-20.656649066197918 -38.197686782592484 34.2346542229113 69.62244850379487" fill="none" stroke="black" stroke-width="0.6%" vector-effect="non-scaling-stroke">
    <path d="M -14.90646 -21.66834 A 13 11.65341 360 0 1 -3.15604 -32.73942 A 4.5 4.03387 0 0 1 -3.18101 -33.16381 A 4.5 4.03387 0 0 1 5.81899 -33.16381 A 4.5 4.03387 0 0 1 5.08498 -30.95577 A 13 11.65341 360 0 1 11.08012 -21.13881 A 13 11.65341 360 0 1 9.90551 -16.29816 A 4.5 4.03387 0 0 1 12.578 -12.61191 A 4.5 4.03387 0 0 1 4.06182 -10.79232 A 13 11.65341 360 0 1 -12.50913 -14.37886 A 4.5 4.03387 0 0 1 -19.65665 -17.64071 A 4.5 4.03387 0 0 1 -14.90646 -21.66834 Z" />
    <path d="M -17.33849 -17.59001 A 1.99 1.78387 180 0 0 -13.35849 -17.59001 L -13.35849 -18.47644 A 1.99 1.78387 360 1 1 -17.33849 -18.47644 A 1.99 1.78387 360 0 1 -13.43971 -18.98088 A 1.99 1.78387 360 0 1 -13.35849 -18.47644" />
    <path d="M 6.2329 -12.48833 A 1.99 1.78387 180 0 0 10.2129 -12.48833 L 10.2129 -13.37476 A 1.99 1.78387 360 0 1 6.2329 -13.37476 A 1.99 1.78387 360 0 1 6.78118 -14.60436 A 1.99 1.78387 360 0 1 10.2129 -13.37476" />
    <path d="M 0.89888 -31.60405 A 1.99 1.78387 180 0 0 3.35593 -33.33809 L 3.35593 -34.22452 A 1.99 1.78387 360 0 1 0.89888 -32.49048 A 1.99 1.78387 360 0 1 -0.62407 -34.22452 A 1.99 1.78387 360 0 1 3.35593 -34.22452" />
    <path d="M -0.62407 -33.33809 A 1.99 1.78387 180 0 0 0.89888 -31.60405" />
    <path d="M -19.65665 21.36209 A 4.5 4.03387 180 0 0 -12.50913 24.62394" />
    <path d="M 4.06182 28.21048 A 4.5 4.03387 180 0 0 12.578 26.39089" />
    <path d="M 4.06182 28.21048 A 13 11.65341 360 0 1 -12.50913 24.62394" />
    <path d="M -12.50913 15.75966 A 4.5 4.03387 360 0 1 -19.65665 12.49782 A 4.5 4.03387 360 0 1 -18.65352 9.9589" />
    <path d="M -12.50913 15.75966 L -12.50913 24.62394" />
    <path d="M -12.50913 15.75966 A 13 11.65341 360 0 1 -13.37163 14.51522" />
    <path d="M -14.38704 15.47193 L -13.37163 14.51522" />
    <path d="M -17.69207 14.75661 L -14.38704 15.47193 L -14.38704 -4.802" />
    <path d="M -18.65352 11.83319 L -17.69207 14.75661" />
    <path d="M -19.65665 -8.77644 A 4.5 4.03387 180 0 0 -12.50913 -5.51459" />
    <path d="M -12.50913 -14.37886 L -12.50913 -5.51459" />
    <path d="M 4.06182 -1.92805 A 4.5 4.03387 180 0 0 12.578 -3.74764 L 12.578 -12.61191" />
    <path d="M 4.06182 -10.79232 L 4.06182 -1.92805" />
    <path d="M -13.37163 -5.0735 L -13.37163 14.51522" />
    <path d="M 5.46275 -0.46494 L 5.46275 18.59165 L 5.87931 19.85829 L 9.18434 20.57361 L 11.52793 18.36552" />
    <path d="M 4.06182 19.3462 A 13 11.65341 180 0 0 5.46275 18.59165" />
    <path d="M 4.06182 19.3462 L 4.06182 28.21048" />
    <path d="M 11.52793 14.93661 A 4.5 4.03387 360 0 1 12.578 17.52662 L 12.578 26.39089" />
    <path d="M 12.578 17.52662 A 4.5 4.03387 360 0 1 4.06182 19.3462" />
    <path d="M -17.69207 -5.44379 L -17.69207 14.75661" />
    <path d="M -18.65352 -6.23752 L -18.65352 11.83319" />
    <path d="M 5.87931 -0.22805 L 5.87931 19.85829" />
    <path d="M 11.52793 -1.15763 L 11.52793 18.36552" />
    <path d="M 9.18434 0.16242 L 9.18434 20.57361" />
    <path d="M 5.81899 -30.50238 L 5.81899 -33.16381" />
    <path d="M -3.18101 -32.73726 L -3.18101 -33.16381" />
    <path d="M -19.65665 12.49782 L -19.65665 21.36209" />
    <path d="M -19.65665 -8.77644 L -19.65665 -17.64071" />
    <path d="M 11.08012 -21.13881 L 11.08012 -15.61689" />
    <path d="M -17.33849 -17.59001 L -17.33849 -18.47644" />
    <path d="M 6.2329 -12.48833 L 6.2329 -13.37476" />
    <path d="M -0.62407 -33.33809 L -0.62407 -34.22452" />
</svg>