<svg version="1.1" xmlns="http://www.w3.org/2000/svg" viewBox="-20.49281635216868 -38.3949745728377 34.189620744407414 71.93953785176582" fill="none" stroke="black" stroke-width="0.6%" vector-effect="non-scaling-stroke">
    <path d="M -13.19509 -18.21565 A 13.5 12.56948 0 0 1 -2.88049 -24.10934 A 4.5 4.18983 360 0 1 -0.32244 -27.83143" />
    <path d="M 3.65756 -27.78692 A 4.5 4.18983 360 0 1 6.11908 -24.05163 A 4.5 4.18983 360 0 1 5.61916 -22.13232 A 13.5 12.56948 360 0 1 11.77436 -11.58594 A 13.5 12.56948 360 0 1 10.50027 -6.25542 A 4.5 4.18983 360 0 1 12.6968 -2.65613 A 4.5 4.18983 360 0 1 4.41154 -0.39039 A 13.5 12.56948 360 0 1 -12.79671 -4.39304 A 4.5 4.18983 0 0 1 -19.49282 -8.05005 A 4.5 4.18983 0 0 1 -17.17509 -11.71423" />
    <path d="M 10.33061 -2.52671 A 1.99 1.85283 360 0 1 6.35061 -2.52671" />
    <path d="M -13.19509 -7.9988 A 1.99 1.85283 0 0 1 -17.17509 -7.9988" />
    <path d="M 6.35061 -6.66826 A 9.65 8.98485 360 0 1 -11.37564 -11.58594" />
    <path d="M 1.18524 -22.43471 A 1.99 1.85283 360 0 1 -0.32244 -24.2323" />
    <path d="M 3.65756 -24.2323 A 1.99 1.85283 360 0 1 1.18524 -22.43471" />
    <path d="M -19.49282 22.96081 A 4.5 4.18983 180 0 0 -12.79671 26.61782" />
    <path d="M 11.77436 19.42492 A 13.5 12.56948 360 0 1 11.76208 19.96096" />
    <path d="M 4.41154 30.62047 A 4.5 4.18983 180 0 0 12.6968 28.35474" />
    <path d="M 4.41154 30.62047 A 13.5 12.56948 360 0 1 -12.79671 26.61782" />
    <path d="M -12.79671 20.78048 A 4.5 4.18983 0 0 1 -19.49282 17.12347 L -19.49282 22.96081" />
    <path d="M -19.49282 17.12347 A 4.5 4.18983 0 0 1 -18.48372 14.47955" />
    <path d="M -12.79671 20.78048 L -12.79671 26.61782" />
    <path d="M -12.79671 20.78048 A 13.5 12.56948 360 0 1 -13.59065 19.58355" />
    <path d="M -14.24944 20.21814 L -13.59065 19.58355" />
    <path d="M -17.54806 19.45087 L -14.24944 20.21814 L -14.24944 1.91955" />
    <path d="M -18.48372 16.40745 L -17.54806 19.45087" />
    <path d="M -19.49282 -2.21271 A 4.5 4.18983 180 0 0 -12.79671 1.4443" />
    <path d="M -12.79671 -4.39304 L -12.79671 1.4443" />
    <path d="M 4.41154 -0.39039 L 4.41154 5.44695 A 4.5 4.18983 180 0 0 12.6968 3.18121" />
    <path d="M -13.59065 1.76853 L -13.59065 19.58355" />
    <path d="M 5.71678 6.67732 L 5.71678 24.07447 L 5.97764 24.92297 L 9.27626 25.69023 L 11.63923 23.41408" />
    <path d="M 4.41154 24.78313 A 13.5 12.56948 180 0 0 5.71678 24.07447" />
    <path d="M 4.41154 24.78313 L 4.41154 30.62047" />
    <path d="M 6.90976 -15.12426 A 1.99 1.85283 360 0 1 10.33061 -13.83655 L 10.33061 -2.52671" />
    <path d="M 10.33061 -13.83655 A 1.99 1.85283 360 0 1 6.35061 -13.83655 L 6.35061 -2.52671" />
    <path d="M 6.35061 -13.83655 A 1.99 1.85283 360 0 1 6.90976 -15.12426" />
    <path d="M -13.27193 -19.81853 A 1.99 1.85283 0 0 1 -13.19509 -19.30865 L -13.19509 -7.9988" />
    <path d="M -13.19509 -19.30865 A 1.99 1.85283 0 0 1 -17.17509 -19.30865 L -17.17509 -7.9988" />
    <path d="M -17.17509 -19.30865 A 1.99 1.85283 0 0 1 -13.27193 -19.81853" />
    <path d="M -8.66416 -18.56 A 9.65 8.98485 360 0 1 7.32592 -15.43043" />
    <path d="M 6.35061 -7.39793 A 9.65 8.98485 360 0 1 -11.37564 -12.3156 L -11.37564 -11.58594" />
    <path d="M -11.37564 -12.3156 A 9.65 8.98485 360 0 1 -8.66416 -18.56" />
    <path d="M 1.18524 -33.74455 A 1.99 1.85283 360 0 1 -0.32244 -35.54214 L -0.32244 -24.2323" />
    <path d="M -0.32244 -35.54214 A 1.99 1.85283 360 0 1 3.65756 -35.54214 L 3.65756 -24.2323" />
    <path d="M 3.65756 -35.54214 A 1.99 1.85283 360 0 1 1.18524 -33.74455" />
    <path d="M 11.63923 19.81894 A 4.5 4.18983 360 0 1 12.6968 22.5174 L 12.6968 28.35474" />
    <path d="M 12.6968 22.5174 A 4.5 4.18983 360 0 1 4.41154 24.78313" />
    <path d="M -17.54806 1.23612 L -17.54806 19.45087" />
    <path d="M -18.48372 0.43121 L -18.48372 16.40745" />
    <path d="M 5.97764 6.82613 L 5.97764 24.92297" />
    <path d="M 11.63923 5.87967 L 11.63923 23.41408" />
    <path d="M 9.27626 7.24871 L 9.27626 25.69023" />
    <path d="M 6.11908 -24.05163 L 6.11908 -21.81547" />
    <path d="M -19.49282 -8.05005 L -19.49282 -2.21271" />
    <path d="M 11.77436 -11.58594 L 11.77436 -5.19765" />
    <path d="M 11.77436 5.72274 L 11.77436 19.42492" />
    <path d="M 12.6968 -2.65613 L 12.6968 3.18121" />
</svg>