<svg version="1.1" xmlns="http://www.w3.org/2000/svg" viewBox="-20.656620554747956 -38.19332862759079 34.234731273502874 69.61313932912529" fill="none" stroke="black" stroke-width="0.6%" vector-effect="non-scaling-stroke">
    <path d="M -14.90649 -21.66269 A 13 11.65423 360 0 1 -3.15624 -32.73469 A 4.5 4.03416 360 0 1 -3.18122 -33.15917 A 4.5 4.03416 360 1 1 5.81878 -33.15917 A 4.5 4.03416 360 0 1 5.08481 -30.95102 A 13 11.65423 360 0 1 11.08009 -21.13328 A 13 11.65423 360 0 1 9.90556 -16.29243 A 4.5 4.03416 360 0 1 12.57811 -12.6059 A 4.5 4.03416 360 0 1 4.06196 -10.78614 A 13 11.65423 360 0 1 -12.50905 -14.37273 A 4.5 4.03416 360 0 1 -19.65662 -17.63477 A 4.5 4.03416 360 0 1 -14.90649 -21.66269 Z" />
    <path d="M -17.33846 -17.58407 A 1.99 1.78399 180 0 0 -13.35846 -17.58407 L -13.35846 -18.47024 A 1.99 1.78399 360 1 1 -17.33846 -18.47024 A 1.99 1.78399 360 0 1 -13.43968 -18.97474 A 1.99 1.78399 360 0 1 -13.35846 -18.47024" />
    <path d="M 6.23301 -12.48232 A 1.99 1.78399 180 0 0 10.21301 -12.48232 L 10.21301 -13.36849 A 1.99 1.78399 360 0 1 6.23301 -13.36849 A 1.99 1.78399 360 0 1 6.78127 -14.59816 A 1.99 1.78399 360 0 1 10.21301 -13.36849" />
    <path d="M 0.89869 -31.59929 A 1.99 1.78399 180 0 0 3.35572 -33.33346 L 3.35572 -34.21963 A 1.99 1.78399 360 0 1 0.89869 -32.48546 A 1.99 1.78399 360 0 1 -0.62428 -34.21963 A 1.99 1.78399 360 0 1 3.35572 -34.21963" />
    <path d="M -0.62428 -33.33346 A 1.99 1.78399 180 0 0 0.89869 -31.59929" />
    <path d="M -19.65662 21.35678 A 4.5 4.03416 180 0 0 -12.50905 24.61883" />
    <path d="M 4.06196 28.20542 A 4.5 4.03416 180 0 0 12.57811 26.38565" />
    <path d="M 4.06196 28.20542 A 13 11.65423 360 0 1 -12.50905 24.61883" />
    <path d="M -12.50905 20.18797 A 4.5 4.03416 360 0 1 -19.65662 16.92593 A 4.5 4.03416 360 0 1 -18.6535 14.38684" />
    <path d="M -12.50905 20.18797 L -12.50905 24.61883" />
    <path d="M -12.50905 20.18797 A 13 11.65423 0 0 1 -13.37157 18.94346 L -14.38697 19.90024 L -14.38697 -9.2292" />
    <path d="M -17.69201 19.18491 L -18.6535 16.26129 L -18.6535 -10.66483" />
    <path d="M -14.38697 19.90024 L -17.69201 19.18491 L -17.69201 -9.87101" />
    <path d="M -19.65662 -13.20391 A 4.5 4.03416 180 0 0 -12.50905 -9.94187" />
    <path d="M -12.50905 -14.37273 L -12.50905 -9.94187" />
    <path d="M 4.06196 -10.78614 L 4.06196 -6.35528 A 4.5 4.03416 180 0 0 12.57811 -8.17504" />
    <path d="M -13.37157 -9.50073 L -13.37157 18.94346" />
    <path d="M 4.06196 23.77456 L 4.06196 28.20542" />
    <path d="M 4.06196 23.77456 A 13 11.65423 180 0 0 5.46287 23.01994" />
    <path d="M 5.46287 -4.89211 L 5.46287 23.01994" />
    <path d="M 11.52805 19.36462 A 4.5 4.03416 360 0 1 12.57811 21.95479 L 12.57811 26.38565" />
    <path d="M 12.57811 21.95479 A 4.5 4.03416 360 0 1 4.06196 23.77456" />
    <path d="M 5.87945 24.28666 L 5.46287 23.01994" />
    <path d="M 9.18449 25.00199 L 5.87945 24.28666" />
    <path d="M 11.52805 22.79372 L 9.18449 25.00199" />
    <path d="M 5.87945 -4.65519 L 5.87945 24.28666" />
    <path d="M 11.52805 -5.58487 L 11.52805 22.79372" />
    <path d="M 9.18449 -4.26472 L 9.18449 25.00199" />
    <path d="M -3.18122 -33.15917 L -3.18122 -32.73253" />
    <path d="M 5.81878 -33.15917 L 5.81878 -30.49764" />
    <path d="M -19.65662 16.92593 L -19.65662 21.35678" />
    <path d="M -19.65662 -17.63477 L -19.65662 -13.20391" />
    <path d="M 11.08009 -21.13328 L 11.08009 -15.6112" />
    <path d="M 12.57811 -12.6059 L 12.57811 -8.17504" />
    <path d="M -17.33846 -17.58407 L -17.33846 -18.47024" />
    <path d="M 6.23301 -12.48232 L 6.23301 -13.36849" />
    <path d="M -0.62428 -33.33346 L -0.62428 -34.21963" />
</svg>