<svg version="1.1" xmlns="http://www.w3.org/2000/svg" viewBox="-28.869790044542473 -57.89129596140375 50.436174106714326 113.49854208475176" fill="none" stroke="black" stroke-width="0.6%" vector-effect="non-scaling-stroke">
    <path d="M 1.56638 47.56272 A 9.5 7.04452 180 1 0 20.56638 47.56272" />
    <path d="M 7.13325 12.97161 A 9.5 7.04452 0 0 1 20.56638 19.38403 A 9.5 7.04452 0 1 1 1.56638 19.38403 A 9.5 7.04452 0 0 1 7.13325 12.97161 Z" />
    <path d="M -21.45691 -49.23673 A 13 9.63987 360 0 1 -5.93943 -54.47024 A 4.5 3.33688 0 0 1 2.88777 -53.55442 A 4.5 3.33688 0 0 1 0.95882 -50.81581 A 13 9.63987 0 0 1 3.36569 -45.22793 A 13 9.63987 0 0 1 -0.68774 -38.23399 A 4.5 3.33688 0 0 1 0.57908 -35.91305 A 4.5 3.33688 0 0 1 -8.40485 -35.63127 A 13 9.63987 0 0 1 -22.27578 -42.97957 L -22.27578 -29.56114" />
    <path d="M -22.27578 -42.97957 A 4.5 3.33688 0 0 1 -27.86979 -46.21634 A 4.5 3.33688 0 0 1 -21.45691 -49.23673" />
    <path d="M -21.58816 -46.08813 A 1.99 1.47564 180 0 0 -21.57885 -46.23066 A 1.99 1.47564 180 0 0 -25.55885 -46.23066 A 1.99 1.47564 180 0 0 -21.58816 -46.08813 Z" />
    <path d="M -4.66201 -37.12129 A 1.99 1.47564 180 0 0 -5.82812 -35.77805 A 1.99 1.47564 180 0 0 -1.84812 -35.77805 A 1.99 1.47564 180 0 0 -4.66201 -37.12129 Z" />
    <path d="M -13.62955 -51.7416 A 9.65 7.15575 0 0 1 0.01569 -45.22793 A 9.65 7.15575 0 1 1 -19.28431 -45.22793 A 9.65 7.15575 0 0 1 -13.62955 -51.7416 Z" />
    <path d="M -2.65277 -52.47439 A 1.99 1.47564 180 0 0 0.49403 -53.67509 A 1.99 1.47564 180 1 0 -3.48597 -53.67509 A 1.99 1.47564 180 0 0 -2.65277 -52.47439 Z" />
    <path d="M -24.3176 -29.53589 A 4.5 3.33688 180 0 0 -22.27578 -29.56114" />
    <path d="M -27.86979 -38.30639 C -27.87 -38.29 -27.87 -38.28 -27.86951 -38.26235 C -27.87 -38.25 -27.87 -38.23 -27.86867 -38.21812 C -27.87 -38.2 -27.87 -38.19 -27.86729 -38.17374 C -27.87 -38.16 -27.87 -38.14 -27.8654 -38.12927 C -27.86 -38.11 -27.86 -38.1 -27.86264 -38.07833 C -27.86 -38.06 -27.86 -38.04 -27.85927 -38.0274 C -27.86 -38.01 -27.86 -37.99 -27.85531 -37.97651 C -27.85 -37.96 -27.85 -37.94 -27.85081 -37.92571 C -27.85 -37.91 -27.85 -37.89 -27.84578 -37.87505 C -27.84 -37.86 -27.84 -37.84 -27.84027 -37.82456 C -27.84 -37.81 -27.84 -37.79 -27.8343 -37.77426 C -27.83 -37.76 -27.83 -37.74 -27.8279 -37.72418 C -27.82 -37.69 -27.82 -37.66 -27.8149 -37.63158 C -27.81 -37.6 -27.81 -37.57 -27.80064 -37.53989 C -27.8 -37.51 -27.79 -37.48 -27.78524 -37.44914 C -27.78 -37.42 -27.77 -37.39 -27.76882 -37.35938 C -27.76 -37.33 -27.76 -37.3 -27.75148 -37.27062 C -27.75 -37.24 -27.74 -37.21 -27.73332 -37.18285 C -27.73 -37.15 -27.72 -37.12 -27.71441 -37.09607 C -27.71 -37.07 -27.7 -37.04 -27.69482 -37.01025 C -27.69 -36.97 -27.68 -36.94 -27.66818 -36.89901 C -27.66 -36.86 -27.65 -36.83 -27.6406 -36.78935 C -27.63 -36.75 -27.62 -36.72 -27.61218 -36.68119 C -27.6 -36.65 -27.59 -36.61 -27.58301 -36.57448 C -27.57 -36.54 -27.56 -36.5 -27.55318 -36.46916 C -27.54 -36.43 -27.53 -36.4 -27.52274 -36.36517 C -27.51 -36.33 -27.5 -36.3 -27.49176 -36.26245 C -27.48 -36.23 -27.47 -36.19 -27.46028 -36.16094 C -27.18 -35.27 -26.86 -34.51 -26.53618 -33.78887 C -25.79 -32.16 -25.04 -30.79 -24.3176 -29.53589" />
    <path d="M -23.24045 -3.11741 L -23.24045 1.67989" />
    <path d="M -22.55631 -2.75498 L -23.24045 -3.11741 L -23.97358 -2.87016" />
    <path d="M -23.45409 -3.92997 A 4.5 3.33688 360 0 1 -22.55631 -3.87558" />
    <path d="M -23.45409 -3.92997 A 15 11.12293 180 0 0 -23.97358 -2.87016" />
    <path d="M -24.3176 2.66834 C -24.34 2.71 -24.37 2.74 -24.39938 2.78272 C -24.43 2.82 -24.45 2.86 -24.48139 2.8958 C -24.51 2.93 -24.54 2.97 -24.56362 3.00755 C -24.59 3.04 -24.62 3.08 -24.64606 3.11795 C -24.67 3.15 -24.7 3.19 -24.7287 3.22696 C -24.76 3.26 -24.78 3.3 -24.81153 3.33455 C -24.84 3.37 -24.87 3.41 -24.89456 3.44067 C -24.92 3.48 -24.95 3.51 -24.97776 3.5453 C -25.01 3.58 -25.03 3.61 -25.06113 3.64839 C -25.09 3.68 -25.12 3.72 -25.14466 3.74989 C -25.17 3.78 -25.2 3.82 -25.22835 3.84975 C -25.26 3.88 -25.28 3.92 -25.31216 3.94793 C -25.34 3.98 -25.37 4.01 -25.39611 4.04437 C -25.42 4.08 -25.45 4.11 -25.48016 4.13901 C -25.51 4.17 -25.54 4.2 -25.56431 4.23178 C -25.59 4.26 -25.62 4.29 -25.64855 4.32263 C -25.67 4.35 -25.69 4.37 -25.71766 4.39562 C -25.74 4.42 -25.76 4.44 -25.7868 4.46721 C -25.81 4.49 -25.83 4.51 -25.85596 4.53736 C -25.88 4.56 -25.9 4.58 -25.92514 4.60602 C -25.95 4.63 -25.97 4.65 -25.9943 4.67314 C -26.02 4.7 -26.04 4.72 -26.06346 4.73866 C -26.09 4.76 -26.11 4.78 -26.13258 4.80251 C -26.16 4.82 -26.18 4.84 -26.20165 4.86462 C -26.22 4.89 -26.25 4.91 -26.27066 4.92493 C -26.29 4.94 -26.32 4.96 -26.33958 4.98336 C -26.36 5 -26.39 5.02 -26.40839 5.03981 C -26.43 5.06 -26.45 5.08 -26.47707 5.09418 C -26.57 5.17 -26.66 5.23 -26.74988 5.28875 C -27.19 5.51 -27.78 5.93 -27.86979 4.9148 L -27.86979 12.82475 A 4.5 3.33688 180 0 0 -22.27578 16.06151" />
    <path d="M -27.86979 4.9148 C -27.87 4.91 -27.87 4.91 -27.86975 4.9027 C -27.87 4.89 -27.87 4.88 -27.86924 4.87064 C -27.87 4.86 -27.87 4.85 -27.86815 4.83755 C -27.87 4.83 -27.87 4.81 -27.86646 4.80346 C -27.87 4.79 -27.87 4.78 -27.86416 4.7684 C -27.86 4.76 -27.86 4.74 -27.86125 4.73239 C -27.86 4.72 -27.86 4.71 -27.85771 4.69549 C -27.86 4.68 -27.86 4.67 -27.85354 4.65773 C -27.85 4.65 -27.85 4.63 -27.84876 4.61917 C -27.85 4.61 -27.85 4.59 -27.84336 4.57988 C -27.84 4.57 -27.84 4.55 -27.83735 4.53992 C -27.84 4.53 -27.83 4.51 -27.83075 4.49934 C -27.83 4.49 -27.83 4.47 -27.82358 4.45824 C -27.82 4.44 -27.82 4.43 -27.81585 4.41666 C -27.81 4.4 -27.81 4.39 -27.80759 4.37469 C -27.8 4.36 -27.8 4.35 -27.79881 4.33238 C -27.8 4.32 -27.79 4.3 -27.78955 4.28982 C -27.79 4.27 -27.78 4.26 -27.77876 4.24242 C -27.78 4.23 -27.77 4.21 -27.76743 4.19485 C -27.76 4.18 -27.76 4.16 -27.75561 4.14718 C -27.75 4.13 -27.75 4.12 -27.74333 4.09946 C -27.74 4.08 -27.73 4.07 -27.73006 4.04968 C -27.73 4.03 -27.72 4.02 -27.71636 3.99997 C -27.71 3.98 -27.71 3.97 -27.70226 3.95038 C -27.7 3.93 -27.69 3.92 -27.68781 3.90095 C -27.68 3.87 -27.67 3.84 -27.65793 3.8027 C -27.65 3.77 -27.64 3.74 -27.62693 3.70545 C -27.44 3.15 -27.23 2.66 -27.02332 2.21209 C -26.63 1.37 -26.24 0.66 -25.8623 -0.00994 C -25 -1.53 -24.19 -2.78 -23.45409 -3.92997" />
    <path d="M -22.27578 2.64308 A 4.5 3.33688 360 0 1 -24.3176 2.66834" />
    <path d="M -22.27578 2.64308 L -22.27578 16.06151" />
    <path d="M 3.36569 13.81315 A 13 9.63987 0 0 1 3.17383 15.4632" />
    <path d="M 1.61972 18.6386 A 13 9.63987 0 0 1 0.57908 19.77711" />
    <path d="M -8.40485 23.40981 A 4.5 3.33688 180 0 0 0.57908 23.12803" />
    <path d="M -8.40485 23.40981 A 13 9.63987 0 0 1 -22.27578 16.06151" />
    <path d="M -22.55631 -29.51601 L -22.55631 1.44915" />
    <path d="M -8.40485 -35.63127 L -8.40485 -22.21284 A 4.5 3.33688 180 0 0 -7.7752 -20.77234 C -7.76 -20.8 -7.75 -20.82 -7.73126 -20.84743 C -7.72 -20.87 -7.7 -20.9 -7.68568 -20.92271 C -7.67 -20.95 -7.65 -20.97 -7.63841 -20.99818 C -7.62 -21.02 -7.61 -21.05 -7.58943 -21.07385 C -7.57 -21.1 -7.56 -21.12 -7.5387 -21.14974 C -7.52 -21.18 -7.5 -21.2 -7.48618 -21.22585 C -7.47 -21.25 -7.45 -21.28 -7.43185 -21.3022 C -7.41 -21.33 -7.39 -21.35 -7.37565 -21.3788 C -7.36 -21.4 -7.34 -21.43 -7.31755 -21.45566 C -7.3 -21.48 -7.28 -21.51 -7.25749 -21.53279 C -7.24 -21.56 -7.22 -21.58 -7.19543 -21.61022 C -7.17 -21.64 -7.15 -21.66 -7.13131 -21.68795 C -7.11 -21.71 -7.09 -21.74 -7.06508 -21.766 C -7.04 -21.79 -7.02 -21.82 -6.99668 -21.84439 C -6.97 -21.87 -6.95 -21.9 -6.92604 -21.92314 C -6.9 -21.95 -6.88 -21.98 -6.85309 -22.00228 C -6.83 -22.02 -6.81 -22.05 -6.7915 -22.06746 C -6.77 -22.09 -6.75 -22.11 -6.72826 -22.13292 C -6.71 -22.15 -6.69 -22.18 -6.66334 -22.19868 C -6.64 -22.22 -6.62 -22.24 -6.59666 -22.26475 C -6.57 -22.29 -6.55 -22.31 -6.52819 -22.33115 C -6.51 -22.35 -6.48 -22.38 -6.45785 -22.39789 C -6.43 -22.42 -6.41 -22.44 -6.38559 -22.465 C -6.36 -22.49 -6.34 -22.51 -6.31134 -22.53249 C -6.29 -22.56 -6.26 -22.58 -6.23503 -22.60038 C -6.21 -22.62 -6.18 -22.65 -6.15657 -22.6687 C -6.1 -22.71 -6.05 -22.76 -5.99289 -22.80672 C -5.88 -22.9 -5.76 -22.99 -5.63552 -23.08904 C -5.24 -23.38 -4.79 -23.69 -4.17256 -24.04041 C 0.08 -26.16 0.8 -25.12 0.57908 -24.49033 L 0.57908 -35.91305" />
    <path d="M -6.79075 -20.88827 L -6.79075 9.80115 L -6.93304 10.88841 L -6.27771 11.23558" />
    <path d="M -8.40485 9.99138 A 13 9.63987 180 0 0 -6.79075 9.80115" />
    <path d="M -8.40485 9.99138 L -8.40485 23.40981" />
    <path d="M -22.27578 2.64308 A 13 9.63987 0 0 1 -22.55631 1.44915" />
    <path d="M 0.57908 -24.49033 C 0.58 -24.47 0.58 -24.44 0.57741 -24.42029 C 0.58 -24.4 0.58 -24.39 0.57427 -24.36964 C 0.57 -24.35 0.57 -24.34 0.56956 -24.31813 C 0.57 -24.3 0.57 -24.28 0.56334 -24.2658 C 0.56 -24.25 0.56 -24.23 0.55565 -24.21266 C 0.55 -24.19 0.55 -24.18 0.54654 -24.15873 C 0.54 -24.14 0.54 -24.12 0.53604 -24.10402 C 0.53 -24.09 0.53 -24.07 0.5242 -24.04854 C 0.52 -24.03 0.52 -24.01 0.51106 -23.99232 C 0.51 -23.97 0.5 -23.95 0.49664 -23.93536 C 0.49 -23.92 0.49 -23.9 0.48098 -23.87767 C 0.48 -23.86 0.47 -23.84 0.46412 -23.81927 C 0.46 -23.8 0.45 -23.78 0.44608 -23.76018 C 0.44 -23.74 0.43 -23.72 0.42689 -23.70039 C 0.42 -23.68 0.41 -23.66 0.40658 -23.63992 C 0.4 -23.62 0.39 -23.6 0.38516 -23.57877 C 0.38 -23.56 0.37 -23.54 0.36267 -23.51697 A 15 11.12293 0 0 1 -0.82099 -22.80901" />
    <path d="M -1.94186 8.16579 A 13 9.63987 180 0 0 -0.68774 7.38866 A 4.5 3.33688 0 0 1 0.36267 8.68726 C 0.37 8.75 0.38 8.81 0.3871 8.87064 C 0.4 8.93 0.4 8.99 0.41024 9.0547 C 0.42 9.12 0.43 9.18 0.43208 9.23943 C 0.44 9.3 0.45 9.36 0.45258 9.42484 C 0.46 9.49 0.47 9.55 0.47171 9.61094 C 0.48 9.67 0.48 9.74 0.48942 9.79774 C 0.5 9.86 0.5 9.92 0.50569 9.98524 C 0.51 10.05 0.52 10.11 0.52047 10.17344 C 0.53 10.24 0.53 10.3 0.53371 10.36235 C 0.54 10.43 0.54 10.49 0.54537 10.55199 C 0.55 10.62 0.55 10.68 0.5554 10.74235 C 0.56 10.81 0.56 10.87 0.56375 10.93344 C 0.57 11 0.57 11.06 0.57035 11.12527 C 0.57 11.19 0.57 11.25 0.57515 11.31785 C 0.58 11.38 0.58 11.45 0.57809 11.5112 C 0.58 11.58 0.58 11.64 0.57908 11.70531 L 0.57908 23.12803" />
    <path d="M -1.94186 -23.88939 L -1.94186 8.16579" />
    <path d="M -26.33537 3.4672 L -26.33537 1.33057 L -26.15643 1.00321 L -25.97916 0.68022 L -25.80353 0.36155 L -25.62952 0.04716 L -25.45712 -0.26298 L -25.28628 -0.56892 L -25.117 -0.87071 L -24.94924 -1.16838 L -24.783 -1.46198 L -24.61823 -1.75153 L -24.45493 -2.03709 L -24.29307 -2.31869 L -24.13262 -2.59637 L -23.97358 -2.87016" />
    <path d="M -24.55259 1.55423 A 15 11.12293 180 0 0 -24.3176 2.66834" />
    <path d="M -24.55259 1.55423 L -24.69476 1.69906 L -24.83818 1.84665 L -24.98287 1.99701 L -25.12884 2.15016 L -25.27612 2.30612 L -25.42473 2.46492 L -25.57468 2.62657 L -25.726 2.7911 L -25.87871 2.95853 L -26.03282 3.12889 L -26.18837 3.30218 L -26.34536 3.47845 L -26.50382 3.6577 L -26.66377 3.83998 L -26.64025 3.62238 L -26.61676 3.41084 L -26.5933 3.20532 L -26.56985 3.00578 L -26.54642 2.81217 L -26.52299 2.62445 L -26.49957 2.44259 L -26.47615 2.26655 L -26.45273 2.0963 L -26.4293 1.93179 L -26.40585 1.77299 L -26.38238 1.61988 L -26.35889 1.47241 L -26.33537 1.33057" />
    <path d="M -23.89726 1.9014 L -22.55631 1.44915" />
    <path d="M -24.55259 1.55423 L -23.89726 1.9014" />
    <path d="M -7.7752 11.43188 A 4.5 3.33688 0 0 1 -8.40485 9.99138" />
    <path d="M 0.57908 11.70531 C 0.58 11.73 0.58 11.75 0.57896 11.77319 C 0.58 11.83 0.58 11.88 0.57764 11.93663 C 0.58 11.99 0.58 12.05 0.57484 12.10063 C 0.57 12.16 0.57 12.21 0.57051 12.26517 C 0.57 12.32 0.57 12.38 0.56458 12.43029 C 0.56 12.49 0.56 12.54 0.557 12.59597 C 0.55 12.65 0.55 12.71 0.54771 12.76224 C 0.54 12.82 0.54 12.87 0.53663 12.92909 C 0.53 12.98 0.53 13.04 0.52369 13.09654 C 0.52 13.15 0.51 13.21 0.50881 13.2646 C 0.5 13.32 0.5 13.38 0.4919 13.43326 C 0.49 13.49 0.48 13.55 0.47287 13.60254 C 0.47 13.66 0.46 13.72 0.4516 13.77243 C 0.44 13.83 0.44 13.89 0.428 13.94296 C 0.42 14 0.41 14.06 0.40192 14.11413 C 0.39 14.17 0.38 14.23 0.37325 14.28594 C 0.36 14.34 0.35 14.4 0.34181 14.4584 C 0.33 14.51 0.32 14.56 0.31318 14.6037 C 0.3 14.65 0.29 14.7 0.28237 14.74946 C 0.27 14.8 0.26 14.85 0.24927 14.89569 C 0.24 14.94 0.23 14.99 0.21375 15.04239 C 0.2 15.09 0.19 15.14 0.17566 15.18956 C 0.16 15.24 0.15 15.29 0.13485 15.33719 C 0.13 15.36 0.12 15.39 0.11336 15.41118 C 0.11 15.44 0.1 15.46 0.09112 15.48529 C 0.08 15.51 0.08 15.53 0.0681 15.55951 C 0.06 15.58 0.05 15.61 0.04428 15.63384 C -0.24 16.42 -0.56 17.3 -1.50096 18.00152 C -2.66 18.77 -3.79 18.23 -4.3693 17.78373 C -6.44 16.07 -7.17 13.69 -7.7752 11.43188 A 15 11.12293 180 0 0 -6.27771 11.23558" />
    <path d="M -6.27771 -20.96864 A 15 11.12293 0 0 1 -7.7752 -20.77234" />
    <path d="M -6.60464 -20.91582 L -6.60464 11.06239" />
    <path d="M -1.78613 -23.95594 L -0.94476 -23.51021" />
    <path d="M -6.27771 -20.96864 L -6.13553 -21.11348 L -5.99211 -21.26106 L -5.84743 -21.41142 L -5.70145 -21.56457 L -5.55417 -21.72053 L -5.40557 -21.87933 L -5.25561 -22.04098 L -5.10429 -22.20552 L -4.95158 -22.37295 L -4.79747 -22.5433 L -4.64193 -22.71659 L -4.48494 -22.89286 L -4.32647 -23.07212 L -4.16652 -23.25439 L -3.94487 -23.29127 L -3.72348 -23.3339 L -3.50233 -23.38228 L -3.28135 -23.43644 L -3.06051 -23.49637 L -2.83976 -23.56209 L -2.61906 -23.63362 L -2.39836 -23.71096 L -2.17761 -23.79414 L -1.95677 -23.88317 L -1.73579 -23.97807 L -1.51464 -24.07887 L -1.29325 -24.18557 L -1.0716 -24.2982 L -1.05261 -24.17628 L -1.0338 -24.05681 L -1.01517 -23.93978 L -0.9967 -23.82517 L -0.97841 -23.71296 L -0.96028 -23.60315 L -0.94232 -23.49571 L -0.92452 -23.39064 L -0.90688 -23.28791 L -0.88939 -23.18751 L -0.87207 -23.08944 L -0.85489 -22.99367 L -0.83787 -22.9002 L -0.82099 -22.80901" />
    <path d="M -0.7432 8.80079 L -1.94186 8.16579" />
    <path d="M -0.82099 9.39522 L -0.7432 8.80079" />
    <path d="M -0.82099 9.39522 A 15 11.12293 180 0 0 0.36267 8.68726" />
    <path d="M -3.50972 15.44133 L -3.50972 -23.38057" />
    <path d="M -0.82099 9.39522 L -0.83787 9.74433 L -0.85489 10.09798 L -0.87207 10.45623 L -0.88939 10.81912 L -0.90688 11.1867 L -0.92452 11.55902 L -0.94232 11.93613 L -0.96028 12.31808 L -0.97841 12.70493 L -0.9967 13.09671 L -1.01517 13.4935 L -1.0338 13.89533 L -1.05261 14.30227 L -1.0716 14.71437 L -1.29325 14.75125 L -1.51464 14.79388 L -1.73579 14.84227 L -1.95677 14.89642 L -2.17761 14.95635 L -2.39836 15.02207 L -2.61906 15.0936 L -2.83976 15.17094 L -3.06051 15.25412 L -3.28135 15.34316 L -3.50233 15.43806 L -3.72348 15.53885 L -3.94487 15.64555 L -4.16652 15.75818 L -4.32647 15.40644 L -4.48494 15.05928 L -4.64193 14.71668 L -4.79747 14.37858 L -4.95158 14.04494 L -5.10429 13.71572 L -5.25561 13.39086 L -5.40557 13.07032 L -5.55417 12.75407 L -5.70145 12.44206 L -5.84743 12.13425 L -5.99211 11.83059 L -6.13553 11.53105 L -6.27771 11.23558" />
    <path d="M 1.56638 19.38403 L 1.56638 47.56272" />
    <path d="M 20.56638 19.38403 L 20.56638 47.56272" />
    <path d="M -27.86979 -38.30639 L -27.86979 -46.21634" />
    <path d="M 2.88777 -47.81771 L 2.88777 -53.55442" />
    <path d="M 3.36569 -45.22793 L 3.36569 13.81315" />
</svg>