<svg version="1.1" xmlns="http://www.w3.org/2000/svg" viewBox="-20.492816352168685 -38.21462064119787 34.18962074440742 68.78806405564274" fill="none" stroke="black" stroke-width="0.6%" vector-effect="non-scaling-stroke">
    <path d="M -15.20763 -21.79452 A 13.5 12.10911 0 0 1 -2.88049 -33.23385 A 4.5 4.03637 0 0 1 6.11908 -33.17825 A 4.5 4.03637 0 0 1 5.61916 -31.32923 A 13.5 12.10911 0 0 1 11.77436 -21.16913 A 13.5 12.10911 0 0 1 10.50027 -16.03385 A 4.5 4.03637 0 0 1 12.6968 -12.56639 A 4.5 4.03637 0 0 1 4.41154 -10.38364 A 13.5 12.10911 0 0 1 -12.79671 -14.23969 A 4.5 4.03637 0 0 1 -19.49282 -17.76275 A 4.5 4.03637 0 0 1 -15.20763 -21.79452 Z" />
    <path d="M 7.92436 -21.16913 A 9.65 8.65577 0 0 1 -11.37564 -21.16913" />
    <path d="M -19.49282 20.25698 A 4.5 4.03637 180 0 0 -12.79671 23.78004" />
    <path d="M 4.41154 27.63609 A 4.5 4.03637 180 0 0 12.6968 25.45334" />
    <path d="M 4.41154 27.63609 A 13.5 12.10911 0 0 1 -12.79671 23.78004" />
    <path d="M -12.79671 16.70661 A 4.5 4.03637 0 0 1 -19.49282 13.18354 A 4.5 4.03637 0 0 1 -18.48372 10.63646" />
    <path d="M -12.79671 16.70661 L -12.79671 23.78004" />
    <path d="M -12.79671 16.70661 A 13.5 12.10911 0 0 1 -13.59065 15.55352" />
    <path d="M -14.24944 16.16486 L -13.59065 15.55352" />
    <path d="M -17.54806 15.4257 L -14.24944 16.16486 L -14.24944 -6.7084" />
    <path d="M -18.48372 12.49375 L -17.54806 15.4257" />
    <path d="M -19.49282 -10.68931 A 4.5 4.03637 180 0 0 -12.79671 -7.16625" />
    <path d="M -12.79671 -14.23969 L -12.79671 -7.16625" />
    <path d="M 4.41154 -10.38364 L 4.41154 -3.3102 A 4.5 4.03637 180 0 0 12.6968 -5.49295" />
    <path d="M -13.59065 -6.85389 L -13.59065 15.55352" />
    <path d="M 5.71678 -2.12489 L 5.71678 19.87995 L 5.97764 20.69737 L 9.27626 21.43653 L 11.63923 19.24374" />
    <path d="M 4.41154 20.56265 A 13.5 12.10911 180 0 0 5.71678 19.87995" />
    <path d="M 4.41154 20.56265 L 4.41154 27.63609" />
    <path d="M -8.66416 -28.06899 A 9.65 8.65577 0 0 1 7.92436 -22.05331 L 7.92436 -21.16913" />
    <path d="M 7.92436 -22.05331 A 9.65 8.65577 0 0 1 -11.37564 -22.05331 L -11.37564 -21.16913" />
    <path d="M -11.37564 -22.05331 A 9.65 8.65577 0 0 1 -8.66416 -28.06899" />
    <path d="M 11.63923 15.78028 A 4.5 4.03637 0 0 1 12.6968 18.37991 L 12.6968 25.45334" />
    <path d="M 12.6968 18.37991 A 4.5 4.03637 0 0 1 4.41154 20.56265" />
    <path d="M 7.63793 29.45846 A 1.99 1.78497 180 0 0 9.24407 29.37888" />
    <path d="M -15.67649 24.24649 A 1.99 1.78497 180 0 0 -14.99202 24.29335" />
    <path d="M -17.54806 -7.3668 L -17.54806 15.4257" />
    <path d="M -18.48372 -8.14223 L -18.48372 12.49375" />
    <path d="M 5.97764 -1.98153 L 5.97764 20.69737" />
    <path d="M 11.63923 -2.89333 L 11.63923 19.24374" />
    <path d="M 9.27626 -1.57443 L 9.27626 21.43653" />
    <path d="M 6.11908 -33.17825 L 6.11908 -31.02399" />
    <path d="M -19.49282 13.18354 L -19.49282 20.25698" />
    <path d="M -19.49282 -17.76275 L -19.49282 -10.68931" />
    <path d="M 11.77436 -21.16913 L 11.77436 -15.01482" />
    <path d="M 11.77436 -3.04451 L 11.77436 15.93147" />
    <path d="M 12.6968 -12.56639 L 12.6968 -5.49295" />
</svg>