<svg version="1.1" xmlns="http://www.w3.org/2000/svg" viewBox="-20.65664906619793 -39.04148940973968 34.23465422291131 69.51918463096678" fill="none" stroke="black" stroke-width="0.6%" vector-effect="non-scaling-stroke">
    <path d="M -14.90646 -22.35678 A 13 11.77 360 0 1 -3.15604 -33.53861 A 4.5 4.07423 360 0 1 -3.18101 -33.96726 A 4.5 4.07423 360 0 1 5.81899 -33.96726 A 4.5 4.07423 360 0 1 5.08498 -31.73712 A 13 11.77 360 0 1 11.08012 -21.82195 A 13 11.77 360 0 1 9.90551 -16.93286 A 4.5 4.07423 360 0 1 12.578 -13.20974 A 4.5 4.07423 360 0 1 4.06182 -11.37195 A 13 11.77 360 0 1 -12.50913 -14.99437 A 4.5 4.07423 360 0 1 -19.65665 -18.28885 A 4.5 4.07423 360 0 1 -14.90646 -22.35678 Z" />
    <path d="M -17.33849 -18.23765 A 1.99 1.80172 180 0 0 -13.35849 -18.23765 L -13.35849 -18.66224 A 1.99 1.80172 360 0 1 -17.33849 -18.66224 A 1.99 1.80172 360 0 1 -13.43971 -19.17172 A 1.99 1.80172 360 0 1 -13.35849 -18.66224" />
    <path d="M 6.2329 -13.08492 A 1.99 1.80172 180 0 0 10.2129 -13.08492 L 10.2129 -13.50952 A 1.99 1.80172 360 0 1 6.2329 -13.50952 A 1.99 1.80172 360 0 1 6.78118 -14.75142 A 1.99 1.80172 360 0 1 10.2129 -13.50952" />
    <path d="M 0.89888 -32.39189 A 1.99 1.80172 180 0 0 3.35593 -34.14328 L 3.35593 -34.56787 A 1.99 1.80172 360 0 1 0.89888 -32.81648 A 1.99 1.80172 360 0 1 -0.62407 -34.56787 A 1.99 1.80172 360 1 1 3.35593 -34.56787" />
    <path d="M -0.62407 -34.14328 A 1.99 1.80172 180 0 0 0.89888 -32.39189" />
    <path d="M -19.65665 19.07531 A 4.5 4.07423 180 0 0 -12.50913 22.36979" />
    <path d="M 4.06182 25.99221 A 4.5 4.07423 180 0 0 12.578 24.15442" />
    <path d="M 4.06182 25.99221 A 13 11.77 360 0 1 -12.50913 22.36979" />
    <path d="M -12.50913 15.57631 A 4.5 4.07423 360 0 1 -19.65665 12.28183 A 4.5 4.07423 360 0 1 -17.33849 8.71852" />
    <path d="M -12.50913 15.57631 L -12.50913 22.36979" />
    <path d="M -12.50913 15.57631 A 13 11.77 360 0 1 -13.49338 14.1092 C -13.5 14.06 -13.51 14.02 -13.52236 13.97089 C -13.53 13.92 -13.54 13.88 -13.55116 13.83228 C -13.56 13.79 -13.57 13.74 -13.57979 13.69336 C -13.59 13.65 -13.6 13.6 -13.60825 13.5541 C -13.62 13.51 -13.63 13.46 -13.63655 13.41449 C -13.65 13.37 -13.66 13.32 -13.66469 13.27451 C -13.67 13.23 -13.68 13.18 -13.69269 13.13412 C -13.7 13.09 -13.71 13.04 -13.72056 12.99331 C -13.73 12.95 -13.74 12.91 -13.74555 12.8661 C -13.75 12.82 -13.76 12.78 -13.77045 12.73849 C -13.78 12.7 -13.79 12.65 -13.79527 12.61044 C -13.8 12.57 -13.81 12.52 -13.82003 12.48192 A 1.99 1.80172 360 0 1 -17.33849 11.32816" />
    <path d="M -13.49338 14.1092 A 2.7 2.44454 360 0 1 -17.42375 10.76924" />
    <path d="M -13.82003 -6.31338 A 1.99 1.80172 0 0 1 -16.87804 -6.31457 L -17.07809 -6.5322" />
    <path d="M -13.82003 -6.31338 L -13.82003 12.48192" />
    <path d="M -18.01035 -7.64388 A 3 2.71615 0 0 1 -18.3315 -8.60801" />
    <path d="M -15.48115 -6.18311 A 3 2.71615 0 0 1 -16.59797 -6.42725 L -15.48115 -6.18311 L -14.38704 -5.94394 L -13.61122 -6.68222 L -13.37163 -6.91022" />
    <path d="M -13.34877 -6.87187 A 3 2.71615 0 0 1 -13.61122 -6.68222" />
    <path d="M -13.34877 -6.87187 C -13.36 -6.85 -13.38 -6.83 -13.39691 -6.81319 C -13.41 -6.79 -13.43 -6.77 -13.44453 -6.7552 C -13.46 -6.74 -13.48 -6.72 -13.49165 -6.69795 C -13.51 -6.68 -13.52 -6.66 -13.53829 -6.64149 C -13.55 -6.62 -13.57 -6.6 -13.58448 -6.58591 C -13.59 -6.58 -13.6 -6.57 -13.6074 -6.55847 C -13.62 -6.55 -13.62 -6.54 -13.63023 -6.53127 C -13.64 -6.52 -13.65 -6.51 -13.65295 -6.50435 C -13.66 -6.5 -13.67 -6.49 -13.67558 -6.4777 C -13.68 -6.47 -13.69 -6.46 -13.69811 -6.45134 C -13.71 -6.44 -13.71 -6.43 -13.72056 -6.4253 C -13.73 -6.42 -13.74 -6.41 -13.74555 -6.3966 C -13.75 -6.39 -13.76 -6.38 -13.77045 -6.36836 C -13.78 -6.36 -13.79 -6.35 -13.79527 -6.3406 C -13.8 -6.33 -13.81 -6.32 -13.82003 -6.31338" />
    <path d="M -19.65665 -11.49537 A 4.5 4.07423 180 0 0 -12.50913 -8.20088" />
    <path d="M -12.50913 -14.99437 L -12.50913 -8.20088" />
    <path d="M 4.06182 -11.37195 L 4.06182 -4.57846 A 4.5 4.07423 180 0 0 12.578 -6.41625" />
    <path d="M -13.34877 -6.87187 A 13 11.77 360 0 1 -13.37163 -6.91022" />
    <path d="M -13.37163 -7.75538 L -13.37163 -6.91022" />
    <path d="M 5.46275 -3.10071 L 5.46275 -2.79301 L 5.56103 -2.49115 A 3 2.71615 0 0 1 5.42308 -2.76833" />
    <path d="M 5.46275 -2.79301 A 13 11.77 360 0 1 5.42308 -2.76833" />
    <path d="M 6.28137 -1.42581 L 6.28137 16.87611 A 1.99 1.80172 180 0 0 10.2129 16.48088" />
    <path d="M 6.28137 16.87611 C 6.27 16.91 6.26 16.94 6.24306 16.9669 C 6.23 17 6.22 17.03 6.20488 17.0574 C 6.19 17.09 6.18 17.12 6.16682 17.14762 C 6.15 17.18 6.14 17.21 6.12885 17.23758 C 6.12 17.27 6.1 17.3 6.09097 17.32729 C 6.08 17.36 6.07 17.39 6.05316 17.41676 C 6.03 17.48 6 17.54 5.97772 17.59501 C 5.95 17.65 5.93 17.71 5.90244 17.77239 C 5.88 17.83 5.85 17.89 5.82727 17.94897 C 5.8 18.01 5.78 18.07 5.75214 18.12478 C 5.73 18.18 5.7 18.24 5.67703 18.29986" />
    <path d="M 4.06182 19.19873 A 13 11.77 180 0 0 5.67703 18.29986" />
    <path d="M 4.06182 19.19873 L 4.06182 25.99221" />
    <path d="M 10.2129 13.7744 A 4.5 4.07423 360 0 1 12.578 17.36094 L 12.578 24.15442" />
    <path d="M 12.578 17.36094 A 4.5 4.07423 360 0 1 4.06182 19.19873" />
    <path d="M 6.24513 27.87538 A 1.99 1.80172 180 0 0 10.21158 27.7416" />
    <path d="M -17.33425 22.64074 A 1.99 1.80172 180 0 0 -13.38581 22.82082" />
    <path d="M -18.32131 -8.59886 L -18.01035 -7.64388 L -17.69207 -6.66642 L -16.59797 -6.42725" />
    <path d="M -14.38704 -7.48116 L -14.38704 -5.94394" />
    <path d="M -17.69207 -8.12938 L -17.69207 -6.66642" />
    <path d="M 10.29817 15.92196 A 2.7 2.44454 360 1 1 5.67703 18.29986" />
    <path d="M 9.75245 -1.16185 A 1.99 1.80172 0 0 1 6.69335 -1.16185 L 6.49329 -1.37948" />
    <path d="M 8.09024 -1.03039 A 3 2.71615 0 0 1 6.97342 -1.27452 L 8.09024 -1.03039 L 9.18434 -0.79121 L 9.96017 -1.5295 L 10.7521 -2.28312 A 3 2.71615 0 0 1 10.52876 -2.00634 A 3 2.71615 0 0 1 9.96017 -1.5295" />
    <path d="M 5.56103 -2.49115 L 5.87931 -1.5137 L 6.97342 -1.27452" />
    <path d="M 5.87931 -2.86145 L 5.87931 -1.5137" />
    <path d="M 10.7521 -2.28312 L 11.52793 -3.0214" />
    <path d="M 11.52793 -3.80033 L 11.52793 -3.0214" />
    <path d="M 9.18434 -2.46707 L 9.18434 -0.79121" />
    <path d="M -3.18101 -33.96726 L -3.18101 -33.53643" />
    <path d="M 5.81899 -33.96726 L 5.81899 -31.2792" />
    <path d="M -19.65665 12.28183 L -19.65665 19.07531" />
    <path d="M -17.33849 10.67648 L -17.42375 10.76924" />
    <path d="M -17.33849 -6.58913 L -17.33849 11.32816" />
    <path d="M -19.65665 -18.28885 L -19.65665 -11.49537" />
    <path d="M 11.08012 -21.82195 L 11.08012 -16.24478" />
    <path d="M 11.08012 -2.59525 L 11.08012 14.3259" />
    <path d="M 12.578 -13.20974 L 12.578 -6.41625" />
    <path d="M -17.33849 -18.23765 L -17.33849 -18.66224" />
    <path d="M 6.2329 -13.08492 L 6.2329 -13.50952" />
    <path d="M -0.62407 -34.14328 L -0.62407 -34.56787" />
    <path d="M 10.2129 15.82921 L 10.29817 15.92196" />
    <path d="M 10.2129 -1.66274 L 10.2129 16.48088" />
    <path d="M 9.75245 -1.16185 L 10.52876 -2.00634" />
</svg>