<svg version="1.1" xmlns="http://www.w3.org/2000/svg" viewBox="-20.000001000000005 -38.60743926875027 40.00000200000001 74.13196152973259" fill="none" stroke="black" stroke-width="0.6%" vector-effect="non-scaling-stroke">
    <path d="M -12.96785 -23.00634 A 13 11.22096 0 0 1 -0.91372 -33.41086 A 4.5 3.88418 0 0 1 -0.9283 -33.72326 A 4.5 3.88418 0 0 1 8.0717 -33.72326 A 4.5 3.88418 0 0 1 7.27523 -31.51692 A 13 11.22096 0 0 1 13 -22.21766 A 13 11.22096 0 0 1 11.68735 -17.30407 A 4.5 3.88418 0 0 1 14.25807 -13.79497 A 4.5 3.88418 0 0 1 5.69262 -12.12972 A 13 11.22096 0 0 1 -10.77363 -15.93804 A 4.5 3.88418 0 0 1 -17.82978 -19.13474 A 4.5 3.88418 0 0 1 -12.96785 -23.00634 Z" />
    <path d="M -15.51296 -19.09006 A 1.99 1.71767 180 0 0 -11.53296 -19.09006 L -11.53296 -20.09995 A 1.99 1.71767 0 0 1 -15.51296 -20.09995 A 1.99 1.71767 0 0 1 -11.60077 -20.54452 A 1.99 1.71767 0 0 1 -11.53296 -20.09995" />
    <path d="M 7.90949 -13.6729 A 1.99 1.71767 180 0 0 11.88949 -13.6729 L 11.88949 -14.6828 A 1.99 1.71767 0 0 1 7.90949 -14.6828 A 1.99 1.71767 0 0 1 8.49235 -15.89737 A 1.99 1.71767 0 0 1 11.88949 -14.6828" />
    <path d="M 3.10842 -32.23087 A 1.99 1.71767 180 0 0 5.61347 -33.89001 L 5.61347 -34.8999 A 1.99 1.71767 0 0 1 3.10842 -33.24076 A 1.99 1.71767 0 0 1 1.63347 -34.8999 A 1.99 1.71767 0 0 1 5.61347 -34.8999" />
    <path d="M 1.63347 -33.89001 A 1.99 1.71767 180 0 0 3.10842 -32.23087" />
    <path d="M 13 -18.57795 A 15 12.94726 0 0 1 14.25807 -8.09721" />
    <path d="M 5.69262 -2.03078 A 4.5 3.88418 180 0 0 5.97027 -1.59901" />
    <path d="M -12.22008 -4.61033 A 15 12.94726 0 0 1 -12.67366 -5.19314 A 4.5 3.88418 180 0 0 -10.77363 -5.83911" />
    <path d="M -19 -12.11872 A 19 16.39986 180 0 0 19 -12.11872 L 19 -17.16819 A 19 16.39986 0 0 1 13.86451 -5.95469 A 19 16.39986 0 0 1 -13.86451 -5.95469 A 19 16.39986 0 0 1 -19 -17.16819 A 19 16.39986 0 0 1 -13.43503 -28.76464 A 19 16.39986 0 0 1 -0.9283 -33.54846" />
    <path d="M -15.92712 17.32147 L -16.80711 14.48676" />
    <path d="M -12.64298 18.08103 L -15.92712 17.32147" />
    <path d="M -12.64298 18.08103 L -11.60132 17.18192" />
    <path d="M -10.77363 18.39834 A 13 11.22096 0 0 1 -11.60132 17.18192" />
    <path d="M -10.77363 18.39834 A 4.5 3.88418 0 0 1 -12.67366 19.04431 A 15 12.94726 180 0 0 6.9639 23.58609 A 4.5 3.88418 0 0 1 5.69262 22.20666 L 5.69262 24.09738" />
    <path d="M 5.69262 22.20666 A 13 11.22096 180 0 0 7.11406 21.51043 L 7.49533 22.73863" />
    <path d="M 10.77948 23.49819 L 7.49533 22.73863" />
    <path d="M 13.18364 21.42304 L 10.77948 23.49819" />
    <path d="M 13.18364 18.02262 A 4.5 3.88418 0 0 1 13.28548 18.12962 A 15 12.94726 180 0 0 13.18364 5.94303" />
    <path d="M 13.18364 0.30927 A 19 16.39986 0 0 1 19 12.11872 L 19 17.16819" />
    <path d="M 19 12.11872 A 19 16.39986 0 0 1 -19 12.11872 L -19 17.16819 A 19 16.39986 180 0 0 19 17.16819" />
    <path d="M -19 12.11872 A 19 16.39986 0 0 1 -16.80711 4.47016" />
    <path d="M -17.82978 25.30058 A 4.5 3.88418 180 0 0 -12.9475 29.17071" />
    <path d="M 5.97027 32.73738 A 4.5 3.88418 180 0 0 14.25807 30.64034" />
    <path d="M -10.77363 18.39834 L -10.77363 21.12734" />
    <path d="M -10.77363 -15.93804 L -10.77363 -5.83911" />
    <path d="M -17.82978 -13.05519 C -17.83 -13.04 -17.83 -13.03 -17.8294 -13.019 C -17.83 -13.01 -17.83 -12.99 -17.82824 -12.98133 C -17.83 -12.97 -17.83 -12.96 -17.82665 -12.94902 C -17.83 -12.94 -17.83 -12.93 -17.82445 -12.91562 C -17.82 -12.9 -17.82 -12.89 -17.82163 -12.8811 C -17.82 -12.87 -17.82 -12.86 -17.81815 -12.84544 C -17.82 -12.83 -17.82 -12.82 -17.81397 -12.80859 C -17.81 -12.8 -17.81 -12.78 -17.80906 -12.77055 C -17.81 -12.76 -17.81 -12.74 -17.8034 -12.73128 C -17.8 -12.72 -17.8 -12.7 -17.79694 -12.69077 C -17.79 -12.68 -17.79 -12.66 -17.79018 -12.65184 C -17.79 -12.64 -17.79 -12.63 -17.78268 -12.61182 C -17.78 -12.6 -17.78 -12.58 -17.77442 -12.57072 C -17.77 -12.56 -17.77 -12.54 -17.76538 -12.52856 C -17.76 -12.52 -17.76 -12.5 -17.75654 -12.48962 C -17.75 -12.48 -17.75 -12.46 -17.74705 -12.44985 C -17.74 -12.44 -17.74 -12.42 -17.7369 -12.40929 C -17.73 -12.4 -17.73 -12.38 -17.7261 -12.36799 C -17.72 -12.35 -17.72 -12.34 -17.71465 -12.326 C -17.71 -12.31 -17.71 -12.3 -17.70255 -12.28336 C -17.7 -12.27 -17.69 -12.25 -17.68981 -12.24013 C -17.69 -12.23 -17.68 -12.21 -17.67646 -12.19638 C -17.67 -12.17 -17.66 -12.14 -17.64799 -12.10761 C -17.64 -12.08 -17.63 -12.05 -17.61734 -12.01762 C -17.6 -11.96 -17.57 -11.9 -17.55046 -11.83622 C -17.52 -11.77 -17.5 -11.7 -17.46982 -11.63693 C -17.41 -11.5 -17.35 -11.37 -17.28944 -11.23985 C -17.02 -10.69 -16.75 -10.25 -16.50199 -9.8587 C -16.03 -9.12 -15.59 -8.55 -15.1728 -8.02263 C -14.23 -6.84 -13.41 -5.96 -12.67366 -5.19314" />
    <path d="M 13.57118 -5.69046 C 13.58 -5.7 13.58 -5.7 13.58947 -5.70833 C 13.61 -5.72 13.62 -5.74 13.63543 -5.75365 C 13.65 -5.77 13.66 -5.78 13.67854 -5.79675 C 13.69 -5.81 13.71 -5.82 13.71899 -5.83776 C 13.73 -5.85 13.74 -5.86 13.75696 -5.8768 C 13.77 -5.89 13.78 -5.9 13.79261 -5.91399 C 13.8 -5.93 13.82 -5.94 13.82609 -5.94943 C 13.84 -5.96 13.85 -5.97 13.85755 -5.98324 C 13.87 -5.99 13.88 -6 13.88712 -6.01551 C 13.89 -6.02 13.9 -6.03 13.90555 -6.03589 C 13.91 -6.04 13.92 -6.05 13.92326 -6.05568 C 13.93 -6.06 13.93 -6.07 13.94026 -6.07488 C 13.95 -6.08 13.95 -6.09 13.95658 -6.09352 C 13.96 -6.1 13.97 -6.11 13.97226 -6.11163 C 13.98 -6.12 13.98 -6.12 13.98732 -6.12922 C 13.99 -6.13 14 -6.14 14.00178 -6.1463 C 14.01 -6.15 14.01 -6.16 14.01566 -6.16291 C 14.02 -6.17 14.03 -6.18 14.04178 -6.19472 C 14.05 -6.21 14.06 -6.22 14.06584 -6.22478 C 14.07 -6.23 14.08 -6.24 14.08796 -6.2532 C 14.1 -6.26 14.1 -6.27 14.10829 -6.28007 C 14.11 -6.29 14.12 -6.29 14.12237 -6.2992 C 14.13 -6.31 14.13 -6.31 14.13556 -6.31754 C 14.14 -6.32 14.14 -6.33 14.14788 -6.33513 C 14.15 -6.34 14.16 -6.35 14.15939 -6.35201 C 14.16 -6.36 14.17 -6.36 14.17011 -6.36819 C 14.17 -6.37 14.18 -6.38 14.18008 -6.3837 C 14.19 -6.39 14.19 -6.4 14.19787 -6.41283 C 14.22 -6.45 14.23 -6.48 14.2442 -6.50685 C 14.25 -6.53 14.26 -6.55 14.25807 -6.5711 L 14.25807 -13.79497" />
    <path d="M 5.69262 -12.12972 L 5.69262 -2.03078" />
    <path d="M -11.60132 -5.44958 L -11.60132 -4.18044" />
    <path d="M -11.60132 0.86902 L -11.60132 17.18192" />
    <path d="M 7.11406 3.08817 L 7.11406 21.51043" />
    <path d="M 8.0717 -32.01457 A 19 16.39986 0 0 1 19 -17.16819" />
    <path d="M -16.80711 -4.47016 L -16.80711 14.48676" />
    <path d="M -12.64298 18.08103 L -12.64298 0.12327" />
    <path d="M -12.64298 -5.15148 L -12.64298 -5.19713" />
    <path d="M 7.49533 2.9511 L 7.49533 22.73863" />
    <path d="M -15.92712 -3.1766 L -15.92712 17.32147" />
    <path d="M 10.77948 1.38628 L 10.77948 23.49819" />
    <path d="M 13.18364 -0.30927 L 13.18364 21.42304" />
    <path d="M 8.0717 -31.01365 L 8.0717 -33.72326" />
    <path d="M -0.9283 -33.40997 L -0.9283 -33.72326" />
    <path d="M -17.82978 22.83476 L -17.82978 25.30058" />
    <path d="M -17.82978 -13.05519 L -17.82978 -19.13474" />
    <path d="M 13 -22.21766 L 13 -16.48876" />
    <path d="M -15.51296 -19.09006 L -15.51296 -20.09995" />
    <path d="M 7.90949 -13.6729 L 7.90949 -14.6828" />
    <path d="M 1.63347 -33.89001 L 1.63347 -34.8999" />
    <path d="M 14.25807 28.00777 L 14.25807 30.64034" />
    <path d="M -19 -12.11872 L -19 -17.16819" />
</svg>