<svg version="1.1" xmlns="http://www.w3.org/2000/svg" viewBox="-19.105627000306004 -38.0550171163842 38.00000200000001 72.85112457238452" fill="none" stroke="black" stroke-width="0.6%" vector-effect="non-scaling-stroke">
    <path d="M -13.06958 -22.33335 A 13 11.35966 360 0 1 -0.96565 -32.82279 A 4.5 3.93219 0 0 1 -0.97877 -33.12282 A 4.5 3.93219 0 0 1 8.02123 -33.12282 A 4.5 3.93219 0 0 1 7.21414 -30.87583 A 13 11.35966 360 0 1 12.89437 -21.48801 A 13 11.35966 360 0 1 11.55805 -16.47145 A 4.5 3.93219 0 0 1 14.11197 -12.92598 A 4.5 3.93219 0 0 1 5.53856 -11.25487 A 13 11.35966 360 0 1 -10.90928 -15.1698 L -10.90928 -5.44482" />
    <path d="M -10.90928 -15.1698 A 4.5 3.93219 0 0 1 -17.95007 -18.41524 A 4.5 3.93219 0 0 1 -13.06958 -22.33335" />
    <path d="M -15.63347 -18.3707 A 1.99 1.7389 180 0 0 -11.65347 -18.3707 L -11.65347 -19.3432 A 1.99 1.7389 360 0 1 -15.63347 -19.3432 A 1.99 1.7389 360 0 1 -11.71916 -19.7863 A 1.99 1.7389 360 0 1 -11.65347 -19.3432" />
    <path d="M 7.7628 -12.8019 A 1.99 1.7389 180 0 0 11.7428 -12.8019 L 11.7428 -13.77439 A 1.99 1.7389 360 1 1 7.7628 -13.77439 A 1.99 1.7389 360 0 1 8.3515 -15.00906 A 1.99 1.7389 360 0 1 11.7428 -13.77439" />
    <path d="M 3.05079 -31.61367 A 1.99 1.7389 180 0 0 5.56379 -33.29144 L 5.56379 -34.26394 A 1.99 1.7389 360 0 1 3.05079 -32.58617 A 1.99 1.7389 360 0 1 1.58379 -34.26394 A 1.99 1.7389 360 0 1 5.56379 -34.26394" />
    <path d="M 1.58379 -33.29144 A 1.99 1.7389 180 0 0 3.05079 -31.61367" />
    <path d="M -17.95007 24.37466 A 4.5 3.93219 180 0 0 -10.90928 27.6201" />
    <path d="M 5.53856 31.53503 A 4.5 3.93219 180 0 0 14.11197 29.86391" />
    <path d="M 5.53856 31.53503 A 13 11.35966 360 0 1 -10.90928 27.6201" />
    <path d="M -10.90928 24.15752 L -10.90928 27.6201" />
    <path d="M -17.88953 14.00682 A 4.5 3.93219 180 0 0 -17.95007 14.64969 A 4.5 3.93219 180 0 0 -16.95044 17.12083 A 18 15.72877 180 0 0 11.19456 23.81993 A 18 15.72877 180 0 0 13.81125 21.55227 A 4.5 3.93219 360 0 1 11.19456 23.81993" />
    <path d="M -17.88953 14.00682 A 18 15.72877 180 0 0 -16.95044 17.12083" />
    <path d="M -16.95044 -6.21912 A 4.5 3.93219 180 0 0 -10.90928 -5.44482" />
    <path d="M -17.95007 -8.69026 A 4.5 3.93219 180 0 0 -16.95044 -6.21912" />
    <path d="M 5.53856 -11.25487 L 5.53856 -1.52989 A 4.5 3.93219 180 0 0 11.19456 0.47999 A 18 15.72877 0 0 1 -15.26576 -3.28336 A 18 15.72877 0 0 1 -16.95044 -6.21912" />
    <path d="M 11.19456 0.47999 A 4.5 3.93219 180 0 0 13.81125 -1.78767 A 4.5 3.93219 180 0 0 14.11197 -3.20101 L 14.11197 -12.92598" />
    <path d="M -11.73113 -5.05626 L -11.73113 0.24516" />
    <path d="M -11.73113 5.10765 L -11.73113 14.99719" />
    <path d="M 6.96333 -0.02209 L 6.96333 2.70205" />
    <path d="M 6.96333 7.56454 L 6.96333 18.27496" />
    <path d="M 5.53856 26.51242 L 5.53856 31.53503" />
    <path d="M -12.77709 13.72864 L -12.77709 4.27048" />
    <path d="M -12.77709 -0.59201 L -12.77709 -4.80229" />
    <path d="M -16.05757 -5.48547 L -16.05757 -4.9807 L -15.90277 -4.73318 L -15.74915 -4.48838 L -15.59669 -4.2463 L -15.44539 -4.0069 L -15.29523 -3.77016 L -15.14619 -3.53607 L -14.99826 -3.30461 L -14.85143 -3.07575 L -14.70568 -2.84947 L -14.56101 -2.62575 L -14.4174 -2.40457 L -14.27483 -2.18592 L -14.13329 -1.96977 L -13.99278 -1.7561" />
    <path d="M -16.05757 0.38606 L -16.05757 11.92382 L -16.92395 9.05091" />
    <path d="M -13.55417 12.51968 L -16.05757 11.92382" />
    <path d="M -16.92395 -1.29555 L -16.92395 9.05091" />
    <path d="M -16.28861 -5.63905 L -16.27214 -5.58951 L -16.25566 -5.54037 L -16.23917 -5.49161 L -16.22269 -5.44324 L -16.2062 -5.39526 L -16.1897 -5.34766 L -16.1732 -5.30045 L -16.1567 -5.25362 L -16.14019 -5.20718 L -16.12368 -5.16112 L -16.10716 -5.11544 L -16.09063 -5.07015 L -16.0741 -5.02524 L -16.05757 -4.9807" />
    <path d="M 7.33871 0.19255 L 7.33871 2.55754" />
    <path d="M 7.33871 7.42003 L 7.33871 18.09362" />
    <path d="M -18.10563 11.57691 A 18 15.72877 180 0 0 -17.88953 14.00682" />
    <path d="M 13.81125 21.55227 A 18 15.72877 180 0 0 17.89437 11.57691" />
    <path d="M 13.03328 13.03796 A 15 13.10731 180 0 0 14.16726 2.68302" />
    <path d="M -13.55417 12.51968 A 15 13.10731 180 0 0 8.11578 17.67759" />
    <path d="M 14.10224 -2.94264 A 18 15.72877 360 0 1 14.16726 -2.86915" />
    <path d="M 16.12115 -0.09307 A 18 15.72877 360 0 1 17.89437 6.71442 L 17.89437 11.57691" />
    <path d="M 17.89437 6.71442 A 18 15.72877 360 0 1 -18.10563 6.71442 L -18.10563 11.57691" />
    <path d="M -18.10563 6.71442 A 18 15.72877 360 0 1 -16.92395 1.10942" />
    <path d="M 13.03328 16.18136 L 10.61918 18.27345 L 8.11578 17.67759" />
    <path d="M -18.10563 -6.90055 A 18 15.72877 180 0 0 17.89437 -6.90055 L 17.89437 -11.76304 A 18 15.72877 0 0 1 15.0545 -3.28336 A 18 15.72877 0 0 1 13.81125 -1.78767" />
    <path d="M 14.11197 -11.07848 A 15 13.10731 0 0 1 14.05504 -2.57751" />
    <path d="M 12.81888 -22.71048 A 18 15.72877 0 0 1 17.89437 -11.76304" />
    <path d="M -17.95007 -9.6997 A 18 15.72877 0 0 1 -18.10563 -11.76304 A 18 15.72877 0 0 1 -17.95007 -13.82637" />
    <path d="M -13.42039 -22.34734 A 18 15.72877 0 0 1 -13.03013 -22.71048" />
    <path d="M 13.03328 3.85025 L 13.03328 16.18136" />
    <path d="M 10.61918 5.73148 L 10.61918 18.27345" />
    <path d="M 10.61918 0.63142 L 10.61918 0.86899" />
    <path d="M 8.02123 -30.35435 L 8.02123 -33.12282" />
    <path d="M -0.97877 -32.82203 L -0.97877 -33.12282" />
    <path d="M -17.95007 14.64969 L -17.95007 24.37466" />
    <path d="M -17.95007 -8.69026 L -17.95007 -18.41524" />
    <path d="M 12.89437 -21.48801 L 12.89437 -15.61585" />
    <path d="M -15.63347 -18.3707 L -15.63347 -19.3432" />
    <path d="M 7.7628 -12.8019 L 7.7628 -13.77439" />
    <path d="M 1.58379 -33.29144 L 1.58379 -34.26394" />
    <path d="M 14.11197 21.22303 L 14.11197 29.86391" />
    <path d="M -18.10563 -6.90055 L -18.10563 -11.76304" />
</svg>