<svg version="1.1" xmlns="http://www.w3.org/2000/svg" viewBox="-20.65664906619793 -39.04148940973968 34.23465422291131 69.51918463096678" fill="none" stroke="black" stroke-width="0.6%" vector-effect="non-scaling-stroke">
    <path d="M -14.90646 -22.35678 A 13 11.77 360 0 1 -3.15604 -33.53861 A 4.5 4.07423 360 0 1 -3.18101 -33.96726 A 4.5 4.07423 360 0 1 5.81899 -33.96726 A 4.5 4.07423 360 0 1 5.08498 -31.73712 A 13 11.77 360 0 1 11.08012 -21.82195 A 13 11.77 360 0 1 9.90551 -16.93286 A 4.5 4.07423 360 0 1 12.578 -13.20974 A 4.5 4.07423 360 0 1 4.06182 -11.37195 A 13 11.77 360 0 1 -12.50913 -14.99437 A 4.5 4.07423 360 0 1 -19.65665 -18.28885 A 4.5 4.07423 360 0 1 -14.90646 -22.35678 Z" />
    <path d="M -17.33849 -18.23765 A 1.99 1.80172 180 0 0 -13.35849 -18.23765 L -13.35849 -18.66224 A 1.99 1.80172 360 0 1 -17.33849 -18.66224 A 1.99 1.80172 360 0 1 -13.43971 -19.17172 A 1.99 1.80172 360 0 1 -13.35849 -18.66224" />
    <path d="M 6.2329 -13.08492 A 1.99 1.80172 180 0 0 10.2129 -13.08492 L 10.2129 -13.50952 A 1.99 1.80172 360 0 1 6.2329 -13.50952 A 1.99 1.80172 360 0 1 6.78118 -14.75142 A 1.99 1.80172 360 0 1 10.2129 -13.50952" />
    <path d="M 0.89888 -32.39189 A 1.99 1.80172 180 0 0 3.35593 -34.14328 L 3.35593 -34.56787 A 1.99 1.80172 360 0 1 0.89888 -32.81648 A 1.99 1.80172 360 0 1 -0.62407 -34.56787 A 1.99 1.80172 360 1 1 3.35593 -34.56787" />
    <path d="M -0.62407 -34.14328 A 1.99 1.80172 180 0 0 0.89888 -32.39189" />
    <path d="M -19.65665 19.07531 A 4.5 4.07423 180 0 0 -12.50913 22.36979" />
    <path d="M 4.06182 25.99221 A 4.5 4.07423 180 0 0 12.578 24.15442" />
    <path d="M 4.06182 25.99221 A 13 11.77 360 0 1 -12.50913 22.36979" />
    <path d="M -12.50913 13.87794 A 4.5 4.07423 360 0 1 -19.65665 10.58346 L -19.65665 19.07531" />
    <path d="M -19.65665 10.58346 A 4.5 4.07423 360 0 1 -17.33849 7.02015" />
    <path d="M -12.50913 13.87794 L -12.50913 22.36979" />
    <path d="M -12.50913 13.87794 A 13 11.77 360 0 1 -13.82003 11.78842 A 1.99 1.80172 360 0 1 -17.33849 10.63466" />
    <path d="M -13.82003 -5.90664 L -13.82003 11.78842" />
    <path d="M -14.79805 -5.73572 A 1.99 1.80172 0 0 1 -16.17639 -5.82875" />
    <path d="M -19.65665 -9.797 A 4.5 4.07423 180 0 0 -12.50913 -6.50251" />
    <path d="M -12.50913 -14.99437 L -12.50913 -6.50251" />
    <path d="M 4.06182 -11.37195 L 4.06182 -2.88009 A 4.5 4.07423 180 0 0 12.578 -4.71788" />
    <path d="M 6.28137 -0.98246 L 6.28137 16.18261" />
    <path d="M 4.06182 17.50036 A 13 11.77 180 0 0 6.28137 16.18261" />
    <path d="M 4.06182 17.50036 L 4.06182 25.99221" />
    <path d="M 10.2129 12.07603 A 4.5 4.07423 360 0 1 12.578 15.66257 L 12.578 24.15442" />
    <path d="M 12.578 15.66257 A 4.5 4.07423 360 0 1 4.06182 17.50036" />
    <path d="M 6.24513 27.87538 A 1.99 1.80172 180 0 0 10.21158 27.7416" />
    <path d="M -17.33425 22.64074 A 1.99 1.80172 180 0 0 -13.38581 22.82082" />
    <path d="M 10.2129 15.78738 A 1.99 1.80172 360 0 1 6.28137 16.18261" />
    <path d="M 9.29174 -0.79465 A 1.99 1.80172 0 0 1 7.34311 -0.69835" />
    <path d="M -3.18101 -33.96726 L -3.18101 -33.53643" />
    <path d="M 5.81899 -33.96726 L 5.81899 -31.2792" />
    <path d="M -17.33849 -6.23369 L -17.33849 10.63466" />
    <path d="M -19.65665 -18.28885 L -19.65665 -9.797" />
    <path d="M 11.08012 -21.82195 L 11.08012 -16.24478" />
    <path d="M 11.08012 -1.68284 L 11.08012 12.62753" />
    <path d="M 12.578 -13.20974 L 12.578 -4.71788" />
    <path d="M -17.33849 -18.23765 L -17.33849 -18.66224" />
    <path d="M 6.2329 -13.08492 L 6.2329 -13.50952" />
    <path d="M -0.62407 -34.14328 L -0.62407 -34.56787" />
    <path d="M 10.2129 -1.13135 L 10.2129 15.78738" />
</svg>