<svg version="1.1" xmlns="http://www.w3.org/2000/svg" viewBox="-20.65664906619792 -38.19768678259248 34.2346542229113 69.62244850379486" fill="none" stroke="black" stroke-width="0.6%" vector-effect="non-scaling-stroke">
    <path d="M -14.90646 -21.66834 A 13 11.65341 360 0 1 -3.15604 -32.73942 A 4.5 4.03387 360 0 1 -3.18101 -33.16381 A 4.5 4.03387 360 0 1 5.81899 -33.16381 A 4.5 4.03387 360 0 1 5.08498 -30.95577 A 13 11.65341 360 0 1 11.08012 -21.13881 A 13 11.65341 360 0 1 9.90551 -16.29816 A 4.5 4.03387 360 0 1 12.578 -12.61191 A 4.5 4.03387 360 0 1 4.06182 -10.79232 A 13 11.65341 360 0 1 -12.50913 -14.37886 A 4.5 4.03387 360 0 1 -19.65665 -17.64071 A 4.5 4.03387 360 0 1 -14.90646 -21.66834 Z" />
    <path d="M -17.33849 -17.59001 A 1.99 1.78387 180 0 0 -13.35849 -17.59001 L -13.35849 -18.47644 A 1.99 1.78387 360 1 1 -17.33849 -18.47644 A 1.99 1.78387 360 0 1 -13.43971 -18.98088 A 1.99 1.78387 360 0 1 -13.35849 -18.47644" />
    <path d="M 6.2329 -12.48833 A 1.99 1.78387 180 0 0 10.2129 -12.48833 L 10.2129 -13.37476 A 1.99 1.78387 360 0 1 6.2329 -13.37476 A 1.99 1.78387 360 0 1 6.78118 -14.60436 A 1.99 1.78387 360 0 1 10.2129 -13.37476" />
    <path d="M 0.89888 -31.60405 A 1.99 1.78387 180 0 0 3.35593 -33.33809 L 3.35593 -34.22452 A 1.99 1.78387 360 0 1 0.89888 -32.49048 A 1.99 1.78387 360 0 1 -0.62407 -34.22452 A 1.99 1.78387 360 0 1 3.35593 -34.22452" />
    <path d="M -0.62407 -33.33809 A 1.99 1.78387 180 0 0 0.89888 -31.60405" />
    <path d="M -19.65665 21.36209 A 4.5 4.03387 180 0 0 -12.50913 24.62394" />
    <path d="M 4.06182 28.21048 A 4.5 4.03387 180 0 0 12.578 26.39089" />
    <path d="M 4.06182 28.21048 A 13 11.65341 360 0 1 -12.50913 24.62394" />
    <path d="M -12.50913 17.97573 A 4.5 4.03387 360 0 1 -19.65665 14.71388 L -19.65665 21.36209" />
    <path d="M -19.65665 14.71388 A 4.5 4.03387 360 0 1 -17.33849 11.18588" />
    <path d="M -12.50913 17.97573 L -12.50913 24.62394" />
    <path d="M -12.50913 17.97573 A 13 11.65341 360 0 1 -13.34877 16.76926 C -13.36 16.69 -13.38 16.62 -13.39691 16.54295 C -13.41 16.47 -13.43 16.39 -13.44453 16.316 C -13.46 16.24 -13.48 16.16 -13.49165 16.08837 C -13.51 16.01 -13.52 15.94 -13.53829 15.86 C -13.55 15.78 -13.57 15.71 -13.58448 15.63085 C -13.6 15.55 -13.62 15.48 -13.63023 15.40083 C -13.64 15.36 -13.65 15.32 -13.65295 15.28547 C -13.66 15.25 -13.67 15.21 -13.67558 15.16986 C -13.68 15.13 -13.69 15.09 -13.69811 15.05399 C -13.71 15.02 -13.71 14.98 -13.72056 14.93783 C -13.73 14.89 -13.74 14.85 -13.74555 14.8077 C -13.75 14.76 -13.76 14.72 -13.77045 14.67716 C -13.78 14.63 -13.79 14.59 -13.79527 14.5462 C -13.8 14.5 -13.81 14.46 -13.82003 14.41476 A 1.99 1.78387 360 0 1 -17.33849 13.27243" />
    <path d="M -13.34877 16.76926 A 3 2.68925 360 0 1 -17.73314 13.13285" />
    <path d="M -13.82003 -7.14069 L -13.82003 14.41476" />
    <path d="M -19.65665 -10.99251 A 4.5 4.03387 180 0 0 -12.50913 -7.73066" />
    <path d="M -12.50913 -14.37886 L -12.50913 -7.73066" />
    <path d="M 4.06182 -10.79232 L 4.06182 -4.14412 A 4.5 4.03387 180 0 0 12.578 -5.96371" />
    <path d="M 6.28137 -2.26529 L 6.28137 18.76542 A 1.99 1.78387 180 0 0 10.2129 18.37411" />
    <path d="M 6.28137 18.76542 C 6.26 18.81 6.25 18.85 6.22694 18.89795 C 6.21 18.94 6.19 18.99 6.17275 19.0299 C 6.15 19.07 6.14 19.12 6.11877 19.16133 C 6.1 19.21 6.08 19.25 6.06496 19.29226 C 6.05 19.34 6.03 19.38 6.01128 19.42273 C 5.99 19.47 5.98 19.51 5.95769 19.55275 C 5.94 19.6 5.92 19.64 5.90419 19.68234 C 5.89 19.73 5.87 19.77 5.85073 19.81153 C 5.83 19.85 5.82 19.9 5.79731 19.94034 C 5.78 19.98 5.76 20.03 5.74391 20.06877 C 5.73 20.11 5.71 20.15 5.6905 20.19684 C 5.67 20.24 5.65 20.28 5.63709 20.32456 C 5.62 20.37 5.6 20.41 5.58365 20.45195 C 5.57 20.49 5.55 20.54 5.53017 20.579 C 5.49 20.66 5.46 20.75 5.42308 20.83215" />
    <path d="M 4.06182 21.56227 A 13 11.65341 180 0 0 5.42308 20.83215" />
    <path d="M 4.06182 21.56227 L 4.06182 28.21048" />
    <path d="M 10.2129 16.19168 A 4.5 4.03387 360 0 1 12.578 19.74268 L 12.578 26.39089" />
    <path d="M 12.578 19.74268 A 4.5 4.03387 360 0 1 4.06182 21.56227" />
    <path d="M 10.60755 18.23453 A 3 2.68925 360 1 1 5.42308 20.83215" />
    <path d="M -3.18101 -33.16381 L -3.18101 -32.73726" />
    <path d="M 5.81899 -33.16381 L 5.81899 -30.50238" />
    <path d="M -17.33849 12.66939 L -17.73314 13.13285" />
    <path d="M -17.33849 -7.4645 L -17.33849 13.27243" />
    <path d="M -19.65665 -17.64071 L -19.65665 -10.99251" />
    <path d="M 11.08012 -21.13881 L 11.08012 -15.61689" />
    <path d="M 11.08012 -2.95873 L 11.08012 16.73771" />
    <path d="M 12.578 -12.61191 L 12.578 -5.96371" />
    <path d="M -17.33849 -17.59001 L -17.33849 -18.47644" />
    <path d="M 6.2329 -12.48833 L 6.2329 -13.37476" />
    <path d="M -0.62407 -33.33809 L -0.62407 -34.22452" />
    <path d="M 10.2129 17.77107 L 10.60755 18.23453" />
    <path d="M 10.2129 -2.4127 L 10.2129 18.37411" />
</svg>