<svg version="1.1" xmlns="http://www.w3.org/2000/svg" viewBox="-20.904730756382197 -38.382452170238494 34.58218654322922 69.88811110450654" fill="none" stroke="black" stroke-width="0.6%" vector-effect="non-scaling-stroke">
    <path d="M -14.97137 -21.85858 A 13 11.62857 360 0 1 -3.24449 -32.92606 A 4.5 4.02527 0 0 1 -3.27038 -33.35718 A 4.5 4.02527 0 0 1 5.72962 -33.35718 A 4.5 4.02527 0 0 1 5.0003 -31.16026 A 13 11.62857 360 0 1 11.01631 -21.35231 A 13 11.62857 360 0 1 9.85196 -16.54213 A 4.5 4.02527 0 0 1 12.5323 -12.86063 A 4.5 4.02527 0 0 1 4.01999 -11.03808 A 13 11.62857 360 0 1 -12.55855 -14.58873 A 4.5 4.02527 0 0 1 -19.713 -17.83911 A 4.5 4.02527 0 0 1 -14.97137 -21.85858 Z" />
    <path d="M -17.39473 -17.7882 A 1.99 1.78007 180 0 0 -13.41473 -17.7882 L -13.41473 -18.68231 A 1.99 1.78007 360 0 1 -17.39473 -18.68231 A 1.99 1.78007 360 0 1 -13.49703 -19.18892 A 1.99 1.78007 360 0 1 -13.41473 -18.68231" />
    <path d="M 6.18745 -12.73756 A 1.99 1.78007 180 0 0 10.16745 -12.73756 L 10.16745 -13.63168 A 1.99 1.78007 360 0 1 6.18745 -13.63168 A 1.99 1.78007 360 0 1 6.73312 -14.8562 A 1.99 1.78007 360 0 1 10.16745 -13.63168" />
    <path d="M 0.81282 -31.80002 A 1.99 1.78007 180 0 0 3.26619 -33.53116 L 3.26619 -34.42527 A 1.99 1.78007 360 0 1 0.81282 -32.69414 A 1.99 1.78007 360 0 1 -0.71381 -34.42527 A 1.99 1.78007 360 1 1 3.26619 -34.42527" />
    <path d="M -0.71381 -33.53116 A 1.99 1.78007 180 0 0 0.81282 -31.80002" />
    <path d="M -19.713 21.5019 A 4.5 4.02527 180 0 0 -12.55855 24.75228" />
    <path d="M 4.01999 28.30293 A 4.5 4.02527 180 0 0 12.5323 26.48038" />
    <path d="M 4.01999 28.30293 A 13 11.62857 360 0 1 -12.55855 24.75228" />
    <path d="M -12.55855 20.28171 A 4.5 4.02527 360 0 1 -14.02847 20.91465" />
    <path d="M -12.55855 20.28171 L -12.55855 24.75228" />
    <path d="M -12.59976 20.22986 C -12.63 20.13 -12.65 20.02 -12.67963 19.92026 C -12.71 19.82 -12.73 19.71 -12.75833 19.60982 C -12.78 19.51 -12.81 19.4 -12.83588 19.29853 C -12.86 19.19 -12.89 19.09 -12.91228 18.98636 C -12.94 18.88 -12.96 18.78 -12.98753 18.6733 C -13.01 18.57 -13.04 18.46 -13.06164 18.35933 C -13.09 18.25 -13.11 18.15 -13.13462 18.04443 C -13.16 17.94 -13.18 17.83 -13.20649 17.72854 C -13.23 17.65 -13.24 17.56 -13.26177 17.4815 C -13.28 17.4 -13.3 17.32 -13.31639 17.23381 C -13.33 17.15 -13.35 17.07 -13.37037 16.98545 C -13.39 16.9 -13.41 16.82 -13.4237 16.73639 L -13.49234 16.81508 L -13.56124 16.89905 L -13.63047 16.98837 L -13.70012 17.08316 L -13.77025 17.18352 L -13.84096 17.28957 L -13.91233 17.40143 L -13.98442 17.51922 L -14.05733 17.64308 L -14.13115 17.77314 L -14.20594 17.90957 L -14.2818 18.05251 L -14.35882 18.20212 L -14.43708 18.35858 L -14.43708 -8.76287 L -14.35882 -8.75413 L -14.2818 -8.74989 L -14.20594 -8.75014 L -14.13115 -8.75489 L -14.05733 -8.76415 L -13.98442 -8.77791 L -13.91233 -8.79621 L -13.84096 -8.81905 L -13.77025 -8.84647 L -13.70012 -8.8785 L -13.63047 -8.91517 L -13.56124 -8.95652 L -13.49234 -9.0026 L -13.4237 -9.05347 L -13.4237 16.73639" />
    <path d="M -14.43708 18.35858 L -14.69172 18.12065 L -14.93775 17.91465 L -15.17668 17.73932 L -15.40998 17.59357 L -15.63908 17.4765 L -15.86541 17.38739 L -16.09035 17.3257 L -16.31529 17.29104 L -16.54162 17.2832 L -16.77072 17.30213 L -17.00402 17.34795 L -17.24295 17.42095 L -17.48898 17.52156 L -17.74362 17.65041 L -17.81814 17.24249 L -17.89014 16.87225 L -17.96006 16.53741 L -18.02834 16.23591 L -18.09539 15.96589 L -18.16162 15.7257 L -18.22745 15.51384 L -18.29328 15.32902 L -18.35951 15.17009 L -18.42656 15.03607 L -18.49483 14.92615 L -18.56475 14.83964 L -18.63675 14.77601 L -18.71127 14.73487" />
    <path d="M -19.00384 14.66602 A 4.5 4.02527 180 0 0 -14.02847 20.91465" />
    <path d="M -12.59976 20.22986 A 4.5 4.02527 360 0 1 -14.02847 20.91465" />
    <path d="M -17.91657 -9.60553 L -17.90464 -9.59168 L -17.89266 -9.57849 L -17.88062 -9.56596 L -17.86851 -9.55409 L -17.85635 -9.54287 L -17.84411 -9.5323 L -17.83181 -9.52238 L -17.81944 -9.51312 L -17.807 -9.50449 L -17.79448 -9.49652 L -17.78189 -9.48919 L -17.76921 -9.4825 L -17.75646 -9.47645 L -17.74362 -9.47104 L -17.74362 17.65041" />
    <path d="M -17.74362 -9.47104 L -17.48898 -9.23311 L -17.24295 -9.02711 L -17.00402 -8.85178 L -16.77072 -8.70602 L -16.54162 -8.58895 L -16.31529 -8.49985 L -16.09035 -8.43816 L -15.86541 -8.4035 L -15.63908 -8.39566 L -15.40998 -8.41459 L -15.17668 -8.46041 L -14.93775 -8.53341 L -14.69172 -8.63402 L -14.43708 -8.76287" />
    <path d="M -12.71184 -10.0223 C -12.73 -9.99 -12.76 -9.96 -12.77708 -9.9357 C -12.8 -9.91 -12.82 -9.88 -12.84151 -9.84971 C -12.86 -9.82 -12.88 -9.79 -12.90515 -9.76434 C -12.93 -9.74 -12.95 -9.71 -12.96799 -9.67959 C -12.99 -9.65 -13.01 -9.62 -13.03004 -9.59549 C -13.05 -9.57 -13.07 -9.54 -13.0913 -9.51206 C -13.11 -9.48 -13.13 -9.46 -13.15179 -9.4293 C -13.17 -9.4 -13.19 -9.37 -13.2115 -9.34726 C -13.23 -9.32 -13.25 -9.3 -13.26548 -9.27281 C -13.28 -9.25 -13.3 -9.22 -13.31884 -9.19901 C -13.34 -9.17 -13.35 -9.15 -13.37157 -9.12588 C -13.39 -9.1 -13.41 -9.08 -13.4237 -9.05347" />
    <path d="M -14.02847 -9.48523 A 4.5 4.02527 0 0 1 -19.00384 -10.90141 A 4.5 4.02527 0 0 1 -19.713 -14.48007" />
    <path d="M -12.55855 -14.58873 L -12.55855 -10.11816" />
    <path d="M -14.02847 -9.48523 A 4.5 4.02527 180 0 0 -12.55855 -10.11816" />
    <path d="M -19.713 -13.36854 A 4.5 4.02527 180 0 0 -14.02847 -9.48523" />
    <path d="M 5.01005 -5.40772 A 4.5 4.02527 180 0 0 12.5323 -8.39006 L 12.5323 -12.86063" />
    <path d="M 4.01999 -6.56751 A 4.5 4.02527 180 0 0 5.01005 -5.40772" />
    <path d="M 4.01999 -11.03808 L 4.01999 -6.56751" />
    <path d="M 5.4193 -4.84846 L 5.4193 20.77203 C 5.38 20.86 5.34 20.95 5.30634 21.03993 C 5.28 21.1 5.26 21.16 5.23136 21.21661 C 5.21 21.28 5.18 21.33 5.15623 21.39271 C 5.13 21.45 5.11 21.51 5.08093 21.56826 C 5.06 21.63 5.03 21.69 5.00545 21.74325 C 4.98 21.8 4.96 21.86 4.92978 21.91771 C 4.9 21.98 4.88 22.03 4.85392 22.09164 C 4.8 22.21 4.75 22.32 4.70156 22.43793 C 4.65 22.55 4.6 22.67 4.54832 22.78216 C 4.5 22.9 4.45 23.01 4.39416 23.12437 C 4.34 23.24 4.29 23.35 4.23906 23.46459 C 4.19 23.58 4.14 23.69 4.08298 23.80283 A 13 11.62857 360 0 1 4.01999 23.83236 L 4.01999 28.30293" />
    <path d="M -12.55855 20.28171 A 13 11.62857 360 0 1 -12.59976 20.22986" />
    <path d="M 5.01005 24.99216 A 4.5 4.02527 360 0 1 4.01999 23.83236" />
    <path d="M -18.71127 -10.5527 L -18.71127 14.73487" />
    <path d="M 11.484 21.20184 L 11.30387 21.18844 L 11.12985 21.19938 L 10.96084 21.23472 L 10.79582 21.29468 L 10.63376 21.37962 L 10.47366 21.49008 L 10.31455 21.62673 L 10.15544 21.79041 L 9.99535 21.98213 L 9.83329 22.20308 L 9.66826 22.45461 L 9.49926 22.73828 L 9.32523 23.05583 L 9.14511 23.40922 L 8.89046 23.17129 L 8.64443 22.96529 L 8.4055 22.78996 L 8.17221 22.6442 L 7.9431 22.52713 L 7.71677 22.43803 L 7.49183 22.37633 L 7.26689 22.34167 L 7.04057 22.33384 L 6.81146 22.35277 L 6.57816 22.39859 L 6.33924 22.47158 L 6.09321 22.5722 L 5.83856 22.70105 L 5.80618 22.5209 L 5.77432 22.34796 L 5.74294 22.18205 L 5.71199 22.02298 L 5.68145 21.87057 L 5.65129 21.72463 L 5.62146 21.58501 L 5.59194 21.45155 L 5.56268 21.32409 L 5.53366 21.20249 L 5.50485 21.08662 L 5.47621 20.97633 L 5.4477 20.87151 L 5.4193 20.77203" />
    <path d="M 5.01005 24.99216 A 4.5 4.02527 360 0 1 4.08298 23.80283" />
    <path d="M 5.01005 24.99216 A 4.5 4.02527 180 0 0 11.77657 19.71666" />
    <path d="M 5.66562 -4.55489 L 5.67754 -4.54104 L 5.68953 -4.52785 L 5.70157 -4.51532 L 5.71367 -4.50345 L 5.72584 -4.49223 L 5.73807 -4.48166 L 5.75037 -4.47175 L 5.76274 -4.46248 L 5.77518 -4.45386 L 5.7877 -4.44588 L 5.8003 -4.43855 L 5.81297 -4.43186 L 5.82572 -4.42581 L 5.83856 -4.4204 L 5.83856 22.70105" />
    <path d="M 5.83856 -4.4204 L 6.09321 -4.18248 L 6.33924 -3.97648 L 6.57816 -3.80114 L 6.81146 -3.65539 L 7.04057 -3.53832 L 7.26689 -3.44921 L 7.49183 -3.38752 L 7.71677 -3.35286 L 7.9431 -3.34502 L 8.17221 -3.36395 L 8.4055 -3.40978 L 8.64443 -3.48277 L 8.89046 -3.58338 L 9.14511 -3.71224 L 9.14511 23.40922" />
    <path d="M 9.14511 -3.71224 L 9.25482 -3.70123 L 9.36214 -3.69912 L 9.46732 -3.7059 L 9.57059 -3.7216 L 9.67219 -3.74624 L 9.77234 -3.77989 L 9.87126 -3.82261 L 9.96919 -3.87451 L 10.06635 -3.93569 L 10.16294 -4.00631 L 10.25919 -4.08651 L 10.35532 -4.17648 L 10.45153 -4.27643 L 10.54806 -4.38656 L 11.77657 -5.85077 A 4.5 4.02527 0 0 1 5.01005 -5.40772" />
    <path d="M 12.5323 -9.28113 A 4.5 4.02527 0 0 1 11.77657 -5.85077" />
    <path d="M 11.484 -5.50207 L 11.484 21.20184" />
    <path d="M 5.72962 -30.71282 L 5.72962 -33.35718" />
    <path d="M -3.27038 -32.92378 L -3.27038 -33.35718" />
    <path d="M -19.713 18.24469 L -19.713 21.5019" />
    <path d="M -18.71127 14.31732 L -19.00384 14.66602" />
    <path d="M -17.91657 -9.60553 L -19.00384 -10.90141" />
    <path d="M -19.713 -13.36854 L -19.713 -17.83911" />
    <path d="M 11.01631 -21.35231 L 11.01631 -15.87362" />
    <path d="M -17.39473 -17.7882 L -17.39473 -18.68231" />
    <path d="M 6.18745 -12.73756 L 6.18745 -13.63168" />
    <path d="M -0.71381 -33.53116 L -0.71381 -34.42527" />
    <path d="M 12.5323 23.14702 L 12.5323 26.48038" />
    <path d="M 11.484 19.36796 L 11.77657 19.71666" />
    <path d="M 5.66562 -4.55489 L 4.78904 -5.59965" />
</svg>